CommonSerif-BoldItalic.ufo
<glyph name="percent" format="2">
  <advance width="637"/>
  <unicode hex="0025"/>
  <outline>
    <contour>
      <point x="143" y="372" type="curve" smooth="yes"/>
      <point x="143" y="331"/>
      <point x="163" y="297"/>
      <point x="220" y="297" type="curve" smooth="yes"/>
      <point x="306" y="297"/>
      <point x="387" y="388"/>
      <point x="387" y="475" type="curve" smooth="yes"/>
      <point x="387" y="481"/>
      <point x="387" y="487"/>
      <point x="386" y="493" type="curve"/>
      <point x="402" y="483"/>
      <point x="428" y="474"/>
      <point x="448" y="474" type="curve" smooth="yes"/>
      <point x="476" y="474"/>
      <point x="514" y="481"/>
      <point x="554" y="497" type="curve"/>
      <point x="104" y="-4" type="line"/>
      <point x="152" y="-16" type="line"/>
      <point x="658" y="548" type="line"/>
      <point x="650.695" y="551.835"/>
      <point x="623.102" y="566.322"/>
      <point x="618" y="569" type="curve"/>
      <point x="570" y="525"/>
      <point x="506" y="519"/>
      <point x="467" y="519" type="curve" smooth="yes"/>
      <point x="438" y="519"/>
      <point x="394" y="531"/>
      <point x="372" y="546" type="curve"/>
      <point x="358" y="562"/>
      <point x="337" y="566"/>
      <point x="316" y="566" type="curve" smooth="yes"/>
      <point x="219" y="566"/>
      <point x="143" y="464"/>
    </contour>
    <contour>
      <point x="380" y="65" type="curve" smooth="yes"/>
      <point x="380" y="15"/>
      <point x="400" y="-20"/>
      <point x="448" y="-20" type="curve" smooth="yes"/>
      <point x="549" y="-20"/>
      <point x="623" y="105"/>
      <point x="623" y="196" type="curve" smooth="yes"/>
      <point x="623" y="235" name=".hr01"/>
      <point x="596" y="249"/>
      <point x="562" y="249" type="curve" smooth="yes"/>
      <point x="461" y="249"/>
      <point x="380" y="165"/>
    </contour>
    <contour>
      <point x="462" y="48" type="curve" smooth="yes"/>
      <point x="462" y="91" name=".hr02"/>
      <point x="502" y="215"/>
      <point x="556" y="215" type="curve" smooth="yes"/>
      <point x="574" y="215"/>
      <point x="581" y="193"/>
      <point x="581" y="174" type="curve" smooth="yes"/>
      <point x="581" y="136"/>
      <point x="527" y="20"/>
      <point x="482" y="20" type="curve" smooth="yes"/>
      <point x="470" y="20" name=".hr03"/>
      <point x="462" y="30"/>
    </contour>
    <contour>
      <point x="227" y="364" type="curve" smooth="yes"/>
      <point x="227" y="407"/>
      <point x="267" y="531"/>
      <point x="321" y="531" type="curve" smooth="yes"/>
      <point x="339" y="531"/>
      <point x="346" y="509"/>
      <point x="346" y="490" type="curve" smooth="yes"/>
      <point x="346" y="450"/>
      <point x="292" y="336"/>
      <point x="247" y="336" type="curve" smooth="yes"/>
      <point x="235" y="336"/>
      <point x="227" y="346"/>
    </contour>
  </outline>
</glyph>
<glyph name="period" format="2">
  <advance width="226"/>
  <unicode hex="002E"/>
  <outline>
    <contour>
      <point x="37" y="44" type="curve" smooth="yes"/>
      <point x="37" y="13"/>
      <point x="61" y="-10"/>
      <point x="96" y="-10" type="curve" smooth="yes"/>
      <point x="140" y="-10"/>
      <point x="186" y="28"/>
      <point x="186" y="74" type="curve" smooth="yes"/>
      <point x="186" y="106"/>
      <point x="162" y="129"/>
      <point x="127" y="129" type="curve" smooth="yes"/>
      <point x="84" y="129"/>
      <point x="37" y="89"/>
    </contour>
  </outline>
</glyph>
<glyph name="zero" format="2">
  <advance width="514"/>
  <unicode hex="0030"/>
  <outline>
    <contour>
      <point x="253" y="-10" type="curve" smooth="yes"/>
      <point x="449.343" y="-10"/>
      <point x="549" y="259.967"/>
      <point x="549" y="420" type="curve" smooth="yes"/>
      <point x="549" y="565"/>
      <point x="467" y="610"/>
      <point x="390" y="610" type="curve" smooth="yes"/>
      <point x="196.12" y="610"/>
      <point x="96" y="355.483"/>
      <point x="96" y="195" type="curve" smooth="yes"/>
      <point x="96" y="78"/>
      <point x="146" y="-10"/>
    </contour>
    <contour>
      <point x="263" y="33" type="curve" smooth="yes"/>
      <point x="226" y="33"/>
      <point x="215" y="70"/>
      <point x="215" y="118" type="curve" smooth="yes"/>
      <point x="215" y="200.23"/>
      <point x="272.007" y="565"/>
      <point x="380" y="565" type="curve" smooth="yes"/>
      <point x="421.206" y="565"/>
      <point x="425" y="496.485"/>
      <point x="425" y="469" type="curve" smooth="yes"/>
      <point x="425" y="399.054"/>
      <point x="364.437" y="33"/>
    </contour>
  </outline>
</glyph>
<glyph name="A" format="2">
  <advance width="710"/>
  <unicode hex="0041"/>
  <anchor x="480" y="740" name="t.uni0302"/>
  <outline>
    <contour>
      <point x="174" y="73" type="curve"/>
      <point x="185.206" y="93.8326"/>
      <point x="236.897" y="189.924"/>
      <point x="252" y="218" type="curve" smooth="yes"/>
      <point x="259" y="231"/>
      <point x="266" y="235"/>
      <point x="289" y="235" type="curve" smooth="yes"/>
      <point x="320.049" y="235"/>
      <point x="422.632" y="235"/>
      <point x="471" y="235" type="curve"/>
      <point x="492" y="73" type="line"/>
      <point x="493" y="68"/>
      <point x="493" y="63"/>
      <point x="493" y="62" type="curve"/>
      <point x="493" y="48"/>
      <point x="478" y="39"/>
      <point x="452" y="37" type="curve" smooth="yes"/>
      <point x="446.244" y="36.5456"/>
      <point x="424.07" y="34.795"/>
      <point x="414" y="34" type="curve"/>
      <point x="408" y="28"/>
      <point x="403" y="5"/>
      <point x="408" y="-2" type="curve"/>
      <point x="444" y="-1"/>
      <point x="535" y="0"/>
      <point x="575" y="0" type="curve" smooth="yes"/>
      <point x="615" y="0"/>
      <point x="657" y="-1"/>
      <point x="700" y="-2" type="curve"/>
      <point x="706" y="3"/>
      <point x="711" y="26"/>
      <point x="707" y="34" type="curve"/>
      <point x="703.641" y="34.5599"/>
      <point x="691.873" y="36.5211"/>
      <point x="689" y="37" type="curve" smooth="yes"/>
      <point x="661" y="42"/>
      <point x="634" y="61"/>
      <point x="631" y="82" type="curve" smooth="yes"/>
      <point x="612.016" y="207.684"/>
      <point x="563.552" y="528.551"/>
      <point x="544" y="658" type="curve"/>
      <point x="539" y="658" type="line"/>
      <point x="524" y="647"/>
      <point x="440" y="614"/>
      <point x="430" y="614" type="curve"/>
      <point x="401.311" y="566.03"/>
      <point x="161.784" y="165.522"/>
      <point x="122" y="99" type="curve"/>
      <point x="95" y="51"/>
      <point x="66" y="34"/>
      <point x="13" y="34" type="curve"/>
      <point x="7" y="28"/>
      <point x="1" y="6"/>
      <point x="6" y="-2" type="curve"/>
      <point x="42" y="-1"/>
      <point x="60" y="0"/>
      <point x="97" y="0" type="curve" smooth="yes"/>
      <point x="136" y="0"/>
      <point x="189" y="-1"/>
      <point x="224" y="-2" type="curve"/>
      <point x="231" y="4"/>
      <point x="236" y="28"/>
      <point x="231" y="34" type="curve"/>
      <point x="226.699" y="34.561"/>
      <point x="211.795" y="36.505"/>
      <point x="208" y="37" type="curve" smooth="yes"/>
      <point x="186" y="40"/>
      <point x="171" y="48"/>
      <point x="171" y="61" type="curve" smooth="yes"/>
      <point x="171" y="65"/>
      <point x="172" y="69"/>
    </contour>
    <contour>
      <point x="317" y="283" type="line" smooth="yes"/>
      <point x="301" y="283"/>
      <point x="293" y="285"/>
      <point x="293" y="290" type="curve" smooth="yes"/>
      <point x="293" y="292"/>
      <point x="294" y="294"/>
      <point x="295" y="296" type="curve"/>
      <point x="424" y="520" type="line"/>
      <point x="430" y="520" type="line"/>
      <point x="463" y="283" type="line"/>
    </contour>
  </outline>
  <guideline angle="99.6337" x="588" y="86"/>
  <guideline angle="238.794" x="437" y="622"/>
  <guideline angle="278.415" x="482" y="241"/>
  <guideline angle="78" x="317" y="3"/>
  <guideline angle="0" x="0" y="740"/>
</glyph>
<glyph name="F" format="2">
  <advance width="518"/>
  <unicode hex="0046"/>
  <anchor x="410" y="740" name="t.uni0302"/>
  <anchor x="255" y="-60" name="b.minus-60"/>
  <outline>
    <contour>
      <point x="175" y="120" type="line"/>
      <point x="251" y="120" type="line"/>
      <point x="335" y="554" type="line" smooth="yes"/>
      <point x="339" y="573"/>
      <point x="353" y="593"/>
      <point x="371" y="600" type="curve"/>
      <point x="488" y="602" type="line"/>
      <point x="544" y="595"/>
      <point x="555" y="554"/>
      <point x="562" y="491" type="curve"/>
      <point x="574" y="489"/>
      <point x="594" y="491"/>
      <point x="604" y="496" type="curve"/>
      <point x="607" y="537"/>
      <point x="622" y="638"/>
      <point x="622" y="646" type="curve" smooth="yes"/>
      <point x="622" y="648"/>
      <point x="622" y="649"/>
      <point x="619" y="649" type="curve"/>
      <point x="602" y="646"/>
      <point x="594" y="645"/>
      <point x="571" y="645" type="curve" smooth="yes"/>
      <point x="277" y="645" type="line"/>
    </contour>
    <contour>
      <point x="228" y="0" type="line"/>
      <point x="331" y="536" type="line"/>
      <point x="277" y="645" type="line"/>
      <point x="217" y="645"/>
      <point x="170" y="646"/>
      <point x="135" y="647" type="curve"/>
      <point x="130" y="642"/>
      <point x="127" y="624"/>
      <point x="129" y="613" type="curve" name=".hr01"/>
      <point x="182" y="609"/>
      <point x="199" y="598"/>
      <point x="199" y="566" type="curve" smooth="yes"/>
      <point x="199" y="555"/>
      <point x="197" y="540"/>
      <point x="194" y="522" type="curve" smooth="yes"/>
      <point x="117" y="122" type="line" smooth="yes"/>
      <point x="104" y="55"/>
      <point x="86" y="40"/>
      <point x="16" y="32" type="curve"/>
      <point x="10" y="26"/>
      <point x="4" y="5"/>
      <point x="9" y="-2" type="curve"/>
      <point x="46" y="-1"/>
      <point x="115" y="0"/>
      <point x="145" y="0" type="curve" smooth="yes"/>
    </contour>
    <contour>
      <point x="152" y="0" type="line"/>
      <point x="161" y="0" type="line" smooth="yes"/>
      <point x="199" y="0"/>
      <point x="278" y="-1"/>
      <point x="316" y="-2" type="curve"/>
      <point x="326" y="3"/>
      <point x="331" y="26"/>
      <point x="323" y="32" type="curve"/>
      <point x="272" y="32"/>
      <point x="247" y="49"/>
      <point x="247" y="90" type="curve" smooth="yes"/>
      <point x="247" y="99"/>
      <point x="249" y="108"/>
      <point x="251" y="120" type="curve"/>
      <point x="175" y="120" type="line"/>
    </contour>
    <contour>
      <point x="377" y="367" type="curve" smooth="yes"/>
      <point x="284" y="367" type="line"/>
      <point x="274" y="317" type="line"/>
      <point x="367" y="317" type="line" smooth="yes"/>
      <point x="425" y="317"/>
      <point x="443" y="302"/>
      <point x="443" y="273" type="curve" smooth="yes"/>
      <point x="443" y="255" type="line"/>
      <point x="449" y="249"/>
      <point x="477" y="249"/>
      <point x="483" y="255" type="curve"/>
      <point x="493" y="313"/>
      <point x="504" y="371"/>
      <point x="517" y="429" type="curve"/>
      <point x="513" y="435"/>
      <point x="482" y="435"/>
      <point x="476" y="429" type="curve"/>
      <point x="459" y="370"/>
      <point x="437" y="367"/>
    </contour>
  </outline>
  <guideline angle="0" x="0" y="120"/>
  <guideline angle="0" x="0" y="740"/>
  <guideline angle="259.216" x="251" y="645"/>
  <guideline angle="259.077" x="343" y="521"/>
</glyph>
<glyph name="K" format="2">
  <advance width="688"/>
  <unicode hex="004B"/>
  <anchor x="478" y="740" name="t.uni0302"/>
  <anchor x="323" y="-60" name="b.minus-60"/>
  <outline>
    <contour>
      <point x="149" y="0" type="line"/>
      <point x="161" y="0" type="line" smooth="yes"/>
      <point x="199" y="0"/>
      <point x="269" y="-1"/>
      <point x="307" y="-2" type="curve"/>
      <point x="318" y="4"/>
      <point x="321" y="26"/>
      <point x="313" y="32" type="curve"/>
      <point x="270" y="37"/>
      <point x="246" y="44"/>
      <point x="246" y="81" type="curve" smooth="yes"/>
      <point x="246" y="92"/>
      <point x="248" y="105"/>
      <point x="251" y="122" type="curve" smooth="yes"/>
      <point x="329" y="523" type="line" smooth="yes"/>
      <point x="342" y="590"/>
      <point x="364" y="609"/>
      <point x="426" y="613" type="curve"/>
      <point x="437" y="619"/>
      <point x="441" y="641"/>
      <point x="433" y="647" type="curve"/>
      <point x="394" y="646"/>
      <point x="325" y="645"/>
      <point x="287" y="645" type="curve" smooth="yes"/>
      <point x="275" y="645" type="line"/>
    </contour>
    <contour>
      <point x="266" y="308" type="line"/>
      <point x="308" y="311"/>
      <point x="317" y="301"/>
      <point x="333" y="271" type="curve" smooth="yes"/>
      <point x="440" y="74" type="line" smooth="yes"/>
      <point x="451" y="54"/>
      <point x="461" y="28"/>
      <point x="461" y="4" type="curve" smooth="yes"/>
      <point x="461" y="1"/>
      <point x="461" y="-2"/>
      <point x="465" y="-2" type="curve"/>
      <point x="479" y="-1"/>
      <point x="515" y="0"/>
      <point x="545" y="0" type="curve" smooth="yes"/>
      <point x="571" y="0" type="line" smooth="yes"/>
      <point x="606" y="0"/>
      <point x="642" y="0"/>
      <point x="677" y="-2" type="curve"/>
      <point x="683" y="3"/>
      <point x="687" y="24"/>
      <point x="683" y="32" type="curve"/>
      <point x="651" y="39"/>
      <point x="637" y="44"/>
      <point x="617" y="74" type="curve"/>
      <point x="457" y="333" type="line" smooth="yes"/>
      <point x="450" y="344"/>
      <point x="437" y="366"/>
      <point x="437" y="376" type="curve" smooth="yes"/>
      <point x="437" y="388"/>
      <point x="442" y="398"/>
      <point x="454" y="407" type="curve" smooth="yes"/>
      <point x="629" y="545" type="line" smooth="yes"/>
      <point x="673" y="580"/>
      <point x="712" y="606"/>
      <point x="766" y="613" type="curve"/>
      <point x="772" y="618"/>
      <point x="774" y="640"/>
      <point x="772" y="647" type="curve"/>
      <point x="727" y="646"/>
      <point x="719" y="645"/>
      <point x="681" y="645" type="curve" smooth="yes"/>
      <point x="667" y="645" type="line" smooth="yes"/>
      <point x="634" y="645"/>
      <point x="602" y="646"/>
      <point x="563" y="647" type="curve"/>
      <point x="558" y="643"/>
      <point x="553" y="623"/>
      <point x="556" y="613" type="curve"/>
      <point x="591" y="609"/>
      <point x="601" y="605"/>
      <point x="601" y="591" type="curve" smooth="yes"/>
      <point x="601" y="577"/>
      <point x="588" y="559"/>
      <point x="544" y="525" type="curve" smooth="yes"/>
      <point x="351" y="376" type="line" smooth="yes"/>
      <point x="326" y="357"/>
      <point x="305" y="352"/>
      <point x="283" y="350" type="curve"/>
    </contour>
    <contour>
      <point x="228" y="0" type="line"/>
      <point x="331" y="536" type="line"/>
      <point x="277" y="645" type="line"/>
      <point x="217" y="645"/>
      <point x="170" y="646"/>
      <point x="135" y="647" type="curve"/>
      <point x="130" y="642"/>
      <point x="127" y="624"/>
      <point x="129" y="613" type="curve"/>
      <point x="182" y="609"/>
      <point x="199" y="598"/>
      <point x="199" y="566" type="curve" smooth="yes"/>
      <point x="199" y="555"/>
      <point x="197" y="540"/>
      <point x="194" y="522" type="curve" smooth="yes"/>
      <point x="117" y="122" type="line" smooth="yes"/>
      <point x="104" y="55"/>
      <point x="86" y="40"/>
      <point x="16" y="32" type="curve"/>
      <point x="10" y="26"/>
      <point x="4" y="5"/>
      <point x="9" y="-2" type="curve"/>
      <point x="46" y="-1"/>
      <point x="115" y="0"/>
      <point x="145" y="0" type="curve" smooth="yes"/>
    </contour>
  </outline>
</glyph>
<glyph name="P" format="2">
  <advance width="572"/>
  <unicode hex="0050"/>
  <anchor x="385" y="740" name="t.uni0302"/>
  <anchor x="145" y="-60" name="b.minus-60"/>
  <outline>
    <contour>
      <point x="443" y="658" type="curve" smooth="yes"/>
      <point x="386" y="658"/>
      <point x="329" y="645" name=".hr01"/>
      <point x="272" y="645" type="curve" smooth="yes"/>
      <point x="264" y="645" type="line"/>
      <point x="136" y="0" type="line"/>
      <point x="174" y="0"/>
      <point x="269" y="-1"/>
      <point x="307" y="-2" type="curve"/>
      <point x="318" y="4"/>
      <point x="321" y="26"/>
      <point x="313" y="32" type="curve"/>
      <point x="279" y="34"/>
      <point x="235" y="40"/>
      <point x="243" y="81" type="curve" smooth="yes"/>
      <point x="329" y="524" type="line" smooth="yes"/>
      <point x="342" y="592"/>
      <point x="357" y="617" name=".hr02"/>
      <point x="404" y="617" type="curve" smooth="yes"/>
      <point x="451" y="617"/>
      <point x="501" y="596"/>
      <point x="501" y="517" type="curve" smooth="yes"/>
      <point x="501" y="427"/>
      <point x="468" y="319"/>
      <point x="360" y="319" type="curve" smooth="yes"/>
      <point x="343" y="319"/>
      <point x="330" y="320"/>
      <point x="313" y="322" type="curve"/>
      <point x="309" y="303"/>
      <point x="312" y="289"/>
      <point x="324" y="280" type="curve"/>
      <point x="337" y="278"/>
      <point x="348" y="277"/>
      <point x="357" y="277" type="curve" smooth="yes"/>
      <point x="509" y="277"/>
      <point x="647" y="348"/>
      <point x="647" y="518" type="curve" smooth="yes"/>
      <point x="647" y="636"/>
      <point x="537" y="658"/>
    </contour>
    <contour>
      <point x="228" y="0" type="line"/>
      <point x="331" y="536" type="line"/>
      <point x="277" y="645" type="line"/>
      <point x="217" y="645" name=".hr03"/>
      <point x="170" y="646"/>
      <point x="135" y="647" type="curve"/>
      <point x="130" y="642"/>
      <point x="127" y="624"/>
      <point x="129" y="613" type="curve"/>
      <point x="182" y="609"/>
      <point x="199" y="598"/>
      <point x="199" y="566" type="curve" smooth="yes"/>
      <point x="199" y="555"/>
      <point x="197" y="540"/>
      <point x="194" y="522" type="curve" smooth="yes"/>
      <point x="117" y="122" type="line" smooth="yes"/>
      <point x="104" y="55"/>
      <point x="86" y="40"/>
      <point x="16" y="32" type="curve"/>
      <point x="10" y="26"/>
      <point x="4" y="5"/>
      <point x="9" y="-2" type="curve"/>
      <point x="46" y="-1"/>
      <point x="115" y="0"/>
      <point x="145" y="0" type="curve" smooth="yes"/>
    </contour>
  </outline>
</glyph>
<glyph name="Q" format="2">
  <advance width="699"/>
  <unicode hex="0051"/>
  <anchor x="488" y="740" name="t.uni0302"/>
  <outline>
    <component base="O"/>
    <contour>
      <point x="127" y="-129" type="curve" smooth="yes"/>
      <point x="104" y="-153" type="line"/>
      <point x="135" y="-183" type="line"/>
      <point x="178" y="-138" type="line" smooth="yes"/>
      <point x="191" y="-124"/>
      <point x="210" y="-124"/>
      <point x="217" y="-124" type="curve" smooth="yes"/>
      <point x="306" y="-124"/>
      <point x="346" y="-229"/>
      <point x="471" y="-229" type="curve" smooth="yes"/>
      <point x="536" y="-229"/>
      <point x="587" y="-184"/>
      <point x="627" y="-137" type="curve"/>
      <point x="615" y="-115" type="line"/>
      <point x="592" y="-139"/>
      <point x="557" y="-152"/>
      <point x="524" y="-152" type="curve" smooth="yes"/>
      <point x="440" y="-152"/>
      <point x="390" y="-60"/>
      <point x="284" y="-60" type="curve"/>
      <point x="283" y="-60"/>
      <point x="282" y="-60"/>
      <point x="281" y="-60" type="curve"/>
      <point x="279" y="-60" type="line"/>
      <point x="324" y="-32"/>
      <point x="365" y="-14"/>
      <point x="393" y="-4" type="curve"/>
      <point x="393" y="1" type="line"/>
      <point x="312" y="1" type="line"/>
      <point x="242" y="-31"/>
      <point x="173" y="-82"/>
    </contour>
  </outline>
</glyph>
<glyph name="T" format="2">
  <advance width="625"/>
  <unicode hex="0054"/>
  <outline>
    <contour>
      <point x="161" y="-2" type="curve"/>
      <point x="208" y="-1"/>
      <point x="259" y="0"/>
      <point x="320" y="0" type="curve" smooth="yes"/>
      <point x="383" y="0"/>
      <point x="433" y="-1"/>
      <point x="481" y="-2" type="curve"/>
      <point x="488" y="4"/>
      <point x="493" y="26"/>
      <point x="488" y="32" type="curve"/>
      <point x="412" y="35"/>
      <point x="397" y="40"/>
      <point x="413" y="123" type="curve" smooth="yes"/>
      <point x="487" y="503" type="line" smooth="yes"/>
      <point x="495" y="542"/>
      <point x="510" y="605"/>
      <point x="550" y="605" type="curve" smooth="yes"/>
      <point x="572" y="605" type="line" smooth="yes"/>
      <point x="622" y="605"/>
      <point x="669" y="580"/>
      <point x="680" y="502" type="curve"/>
      <point x="691" y="502"/>
      <point x="710" y="503"/>
      <point x="719" y="507" type="curve"/>
      <point x="721" y="553"/>
      <point x="726" y="605"/>
      <point x="734" y="650" type="curve"/>
      <point x="732" y="653" type="line"/>
      <point x="699" y="650"/>
      <point x="591" y="645"/>
      <point x="515" y="645" type="curve" smooth="yes"/>
      <point x="380" y="645" type="line" smooth="yes"/>
      <point x="306" y="645"/>
      <point x="194" y="650"/>
      <point x="158" y="653" type="curve"/>
      <point x="153" y="650" type="line"/>
      <point x="140" y="605"/>
      <point x="121" y="552"/>
      <point x="101" y="504" type="curve"/>
      <point x="110" y="500"/>
      <point x="125" y="499"/>
      <point x="137" y="499" type="curve"/>
      <point x="176" y="578"/>
      <point x="221" y="605"/>
      <point x="280" y="605" type="curve" smooth="yes"/>
      <point x="327" y="605" type="line" smooth="yes"/>
      <point x="365" y="605"/>
      <point x="358" y="531"/>
      <point x="353" y="506" type="curve" smooth="yes"/>
      <point x="278" y="123" type="line" smooth="yes"/>
      <point x="262" y="40"/>
      <point x="244" y="35"/>
      <point x="167" y="32" type="curve"/>
      <point x="160" y="26"/>
      <point x="156" y="4"/>
    </contour>
  </outline>
</glyph>
<glyph name="grave" format="2">
  <advance width="319"/>
  <unicode hex="0060"/>
  <outline>
    <contour>
      <point x="254" y="669" type="line"/>
      <point x="251" y="670"/>
      <point x="243" y="671"/>
      <point x="238" y="671" type="curve" smooth="yes"/>
      <point x="207" y="671"/>
      <point x="184" y="653"/>
      <point x="178" y="642" type="curve"/>
      <point x="178" y="624" type="line"/>
      <point x="313" y="516" type="line" smooth="yes"/>
      <point x="328" y="504"/>
      <point x="343" y="500"/>
      <point x="353" y="500" type="curve" smooth="yes"/>
      <point x="361" y="500"/>
      <point x="367" y="507"/>
      <point x="367" y="514" type="curve" smooth="yes"/>
      <point x="367" y="520"/>
      <point x="363" y="529"/>
      <point x="356" y="538" type="curve" smooth="yes"/>
    </contour>
  </outline>
</glyph>
<glyph name="b" format="2">
  <advance width="521"/>
  <unicode hex="0062"/>
  <outline>
    <contour>
      <point x="256" y="266" type="curve"/>
      <point x="312" y="332"/>
      <point x="344" y="352"/>
      <point x="389" y="352" type="curve" smooth="yes"/>
      <point x="419" y="352"/>
      <point x="422" y="319"/>
      <point x="422" y="299" type="curve" smooth="yes"/>
      <point x="422" y="217"/>
      <point x="369" y="32"/>
      <point x="265" y="32" type="curve" smooth="yes"/>
      <point x="238" y="32"/>
      <point x="227" y="44"/>
      <point x="227" y="74" type="curve" smooth="yes"/>
      <point x="227" y="87"/>
      <point x="229" y="105"/>
      <point x="234" y="127" type="curve" smooth="yes"/>
      <point x="263.045" y="259.444"/>
      <point x="318.833" y="513.839"/>
      <point x="334" y="583" type="curve" smooth="yes"/>
      <point x="343" y="622"/>
      <point x="353" y="657"/>
      <point x="362" y="680" type="curve"/>
      <point x="362" y="691"/>
      <point x="357" y="698"/>
      <point x="343" y="698" type="curve"/>
      <point x="303" y="688"/>
      <point x="204" y="674"/>
      <point x="153" y="672" type="curve"/>
      <point x="149" y="661"/>
      <point x="148" y="651"/>
      <point x="148" y="638" type="curve"/>
      <point x="201" y="636"/>
      <point x="217" y="628"/>
      <point x="217" y="603" type="curve" smooth="yes"/>
      <point x="217" y="593"/>
      <point x="215" y="580"/>
      <point x="211" y="563" type="curve" smooth="yes"/>
      <point x="193.05" y="484.689"/>
      <point x="123.423" y="180.926"/>
      <point x="109" y="118" type="curve"/>
      <point x="107" y="108"/>
      <point x="105" y="95"/>
      <point x="105" y="82" type="curve" smooth="yes"/>
      <point x="105" y="34"/>
      <point x="135" y="-10"/>
      <point x="211" y="-10" type="curve" smooth="yes"/>
      <point x="389" y="-10"/>
      <point x="551" y="147"/>
      <point x="551" y="320" type="curve" smooth="yes"/>
      <point x="551" y="369"/>
      <point x="538" y="439"/>
      <point x="457" y="439" type="curve" smooth="yes"/>
      <point x="383" y="439"/>
      <point x="323" y="382"/>
      <point x="282" y="335" type="curve"/>
      <point x="277.096" y="335"/>
      <point x="261.847" y="335"/>
      <point x="256" y="335" type="curve"/>
      <point x="256" y="325.591"/>
      <point x="256" y="279.267"/>
    </contour>
  </outline>
</glyph>
<glyph name="d" format="2">
  <advance width="561"/>
  <unicode hex="0064"/>
  <outline>
    <contour>
      <point x="446" y="563" type="curve" smooth="yes"/>
      <point x="405" y="381" type="line"/>
      <point x="404.783" y="381"/>
      <point x="404.114" y="381"/>
      <point x="404" y="381" type="curve"/>
      <point x="392" y="411"/>
      <point x="364" y="439"/>
      <point x="326" y="439" type="curve" smooth="yes"/>
      <point x="171" y="439"/>
      <point x="58" y="265"/>
      <point x="58" y="125" type="curve" smooth="yes"/>
      <point x="58" y="51"/>
      <point x="90" y="-10"/>
      <point x="171" y="-10" type="curve" smooth="yes"/>
      <point x="236" y="-10"/>
      <point x="283" y="30" name=".hr01"/>
      <point x="343" y="118" type="curve"/>
      <point x="343.141" y="117.93"/>
      <point x="344.437" y="117.281"/>
      <point x="345" y="117" type="curve"/>
      <point x="344.956" y="116.781"/>
      <point x="344.343" y="113.713"/>
      <point x="344" y="112" type="curve" smooth="yes"/>
      <point x="337" y="78"/>
      <point x="335" y="58"/>
      <point x="335" y="46" type="curve" smooth="yes"/>
      <point x="335" y="13"/>
      <point x="350" y="-10" name=".hr02"/>
      <point x="396" y="-10" type="curve" smooth="yes"/>
      <point x="456" y="-10"/>
      <point x="517" y="30" name=".hr03"/>
      <point x="567" y="85" type="curve" name=".hr04"/>
      <point x="564" y="94"/>
      <point x="552" y="113"/>
      <point x="538" y="113" type="curve"/>
      <point x="512" y="83"/>
      <point x="478" y="66"/>
      <point x="468" y="66" type="curve" smooth="yes"/>
      <point x="460" y="66"/>
      <point x="457" y="74"/>
      <point x="457" y="82" type="curve" smooth="yes"/>
      <point x="457" y="92"/>
      <point x="461" y="113"/>
      <point x="464" y="127" type="curve" smooth="yes"/>
      <point x="570" y="583" type="line" smooth="yes"/>
      <point x="578" y="616"/>
      <point x="589" y="667"/>
      <point x="593" y="678" type="curve"/>
      <point x="593" y="689"/>
      <point x="590" y="698"/>
      <point x="571" y="698" type="curve"/>
      <point x="537" y="684"/>
      <point x="434" y="672"/>
      <point x="389" y="672" type="curve"/>
      <point x="383" y="660"/>
      <point x="381" y="647"/>
      <point x="384" y="638" type="curve" name=".hr05"/>
      <point x="431" y="638"/>
      <point x="452" y="634"/>
      <point x="452" y="602" type="curve" smooth="yes"/>
      <point x="452" y="592"/>
      <point x="450" y="579"/>
    </contour>
    <contour>
      <point x="225" y="56" type="curve" smooth="yes"/>
      <point x="192" y="56"/>
      <point x="180" y="94"/>
      <point x="180" y="143" type="curve" smooth="yes"/>
      <point x="180" y="255"/>
      <point x="243" y="392"/>
      <point x="324" y="392" type="curve" smooth="yes"/>
      <point x="371" y="392"/>
      <point x="389" y="345"/>
      <point x="389" y="310" type="curve"/>
      <point x="373" y="240"/>
      <point x="297" y="56"/>
    </contour>
  </outline>
</glyph>
<glyph name="i" format="2">
  <advance width="342"/>
  <unicode hex="0069"/>
  <outline>
    <contour>
      <point x="199" y="596" type="curve" smooth="yes"/>
      <point x="199" y="563"/>
      <point x="223" y="530"/>
      <point x="263" y="530" type="curve" smooth="yes"/>
      <point x="308" y="530"/>
      <point x="334" y="566"/>
      <point x="334" y="592" type="curve" smooth="yes"/>
      <point x="334" y="622"/>
      <point x="311" y="658"/>
      <point x="269" y="658" type="curve" smooth="yes"/>
      <point x="222" y="658"/>
      <point x="199" y="626"/>
    </contour>
    <contour>
      <point x="156" y="249" type="line"/>
      <point x="127" y="114" type="line" smooth="yes"/>
      <point x="119" y="75"/>
      <point x="117" y="62"/>
      <point x="117" y="48" type="curve" smooth="yes"/>
      <point x="117" y="16"/>
      <point x="128" y="-11"/>
      <point x="169" y="-11" type="curve" smooth="yes"/>
      <point x="239" y="-11"/>
      <point x="308" y="22"/>
      <point x="354" y="81" type="curve"/>
      <point x="351" y="90"/>
      <point x="339" y="109"/>
      <point x="325" y="109" type="curve"/>
      <point x="299" y="79"/>
      <point x="265" y="62"/>
      <point x="255" y="62" type="curve" smooth="yes"/>
      <point x="248" y="62"/>
      <point x="244" y="69"/>
      <point x="244" y="78" type="curve" smooth="yes"/>
      <point x="244" y="87"/>
      <point x="248" y="110"/>
      <point x="251" y="123" type="curve" smooth="yes"/>
      <point x="278" y="249" type="line"/>
    </contour>
    <contour>
      <point x="156" y="249" type="line"/>
      <point x="278" y="249" type="line"/>
      <point x="293" y="319" type="line" smooth="yes"/>
      <point x="302" y="359"/>
      <point x="314" y="401"/>
      <point x="314" y="418" type="curve" smooth="yes"/>
      <point x="314" y="430"/>
      <point x="308" y="436"/>
      <point x="297" y="436" type="curve"/>
      <point x="266" y="431"/>
      <point x="169" y="423"/>
      <point x="121" y="423" type="curve"/>
      <point x="114" y="415"/>
      <point x="113" y="393"/>
      <point x="119" y="384" type="curve"/>
      <point x="159" y="381" type="line" smooth="yes"/>
      <point x="171" y="380"/>
      <point x="177" y="371"/>
      <point x="177" y="359" type="curve" smooth="yes"/>
      <point x="177" y="352"/>
      <point x="175" y="339"/>
      <point x="171" y="320" type="curve" smooth="yes"/>
    </contour>
  </outline>
</glyph>
<glyph name="l" format="2">
  <advance width="324"/>
  <unicode hex="006C"/>
  <anchor x="283" y="740" name="t.uni0302"/>
  <anchor x="150" y="-60" name="b.minus-60"/>
  <outline>
    <contour>
      <point x="196" y="511" type="line"/>
      <point x="113" y="118" type="line" smooth="yes"/>
      <point x="108" y="95"/>
      <point x="103" y="68"/>
      <point x="103" y="47" type="curve" smooth="yes"/>
      <point x="103" y="14"/>
      <point x="117" y="-10"/>
      <point x="154" y="-10" type="curve" smooth="yes"/>
      <point x="224" y="-10"/>
      <point x="290" y="30"/>
      <point x="340" y="85" type="curve"/>
      <point x="337" y="94"/>
      <point x="325" y="113"/>
      <point x="311" y="113" type="curve"/>
      <point x="285" y="83"/>
      <point x="251" y="66"/>
      <point x="241" y="66" type="curve" smooth="yes"/>
      <point x="233" y="66"/>
      <point x="230" y="74"/>
      <point x="230" y="84" type="curve" smooth="yes"/>
      <point x="230" y="97"/>
      <point x="233" y="113"/>
      <point x="236" y="127" type="curve" smooth="yes"/>
      <point x="318" y="511" type="line"/>
    </contour>
    <contour>
      <point x="196" y="511" type="line"/>
      <point x="318" y="511" type="line"/>
      <point x="333" y="581" type="line" smooth="yes"/>
      <point x="342" y="621"/>
      <point x="354" y="663"/>
      <point x="354" y="680" type="curve" smooth="yes"/>
      <point x="354" y="692"/>
      <point x="348" y="698"/>
      <point x="337" y="698" type="curve"/>
      <point x="306" y="693"/>
      <point x="209" y="685"/>
      <point x="161" y="685" type="curve"/>
      <point x="154" y="677"/>
      <point x="153" y="655"/>
      <point x="159" y="646" type="curve"/>
      <point x="199" y="643" type="line" smooth="yes"/>
      <point x="211" y="642"/>
      <point x="217" y="633"/>
      <point x="217" y="621" type="curve" smooth="yes"/>
      <point x="217" y="614"/>
      <point x="215" y="601"/>
      <point x="211" y="582" type="curve" smooth="yes"/>
    </contour>
  </outline>
  <guideline angle="257.3" x="212" y="583"/>
  <guideline angle="77.125" x="270" y="512"/>
</glyph>
<glyph name="n" format="2">
	<unicode hex="006E"/>
	<advance width="614"/>
	<outline>
		<contour>
			<point x="140" y="243" type="curve" smooth="yes"/>
			<point x="102" y="72" type="line"/>
			<point x="97" y="52"/>
			<point x="89" y="27"/>
			<point x="89" y="17" type="curve" smooth="yes"/>
			<point x="89" y="1"/>
			<point x="99" y="-10"/>
			<point x="155" y="-10" type="curve" smooth="yes"/>
			<point x="209" y="-10"/>
			<point x="214" y="24"/>
			<point x="221" y="59" type="curve"/>
			<point x="222" y="63"/>
			<point x="223" y="68"/>
			<point x="224" y="72" type="curve" smooth="yes"/>
			<point x="262" y="228" type="line"/>
			<point x="325" y="310"/>
			<point x="376" y="369"/>
			<point x="412" y="369" type="curve" smooth="yes"/>
			<point x="437" y="369"/>
			<point x="447" y="360"/>
			<point x="447" y="333" type="curve" smooth="yes"/>
			<point x="447" y="319"/>
			<point x="446" y="309"/>
			<point x="438" y="275" type="curve" smooth="yes"/>
			<point x="401" y="115" type="line" smooth="yes"/>
			<point x="393" y="83"/>
			<point x="388" y="41"/>
			<point x="394" y="23" type="curve"/>
			<point x="402" y="3"/>
			<point x="413" y="-10"/>
			<point x="443" y="-10" type="curve" smooth="yes"/>
			<point x="513" y="-10"/>
			<point x="582" y="23"/>
			<point x="628" y="82" type="curve"/>
			<point x="625" y="91"/>
			<point x="613" y="110"/>
			<point x="599" y="110" type="curve"/>
			<point x="573" y="80"/>
			<point x="539" y="63"/>
			<point x="529" y="63" type="curve" smooth="yes"/>
			<point x="522" y="63"/>
			<point x="519" y="69"/>
			<point x="519" y="77" type="curve"/>
			<point x="517" y="90"/>
			<point x="521" y="108"/>
			<point x="525" y="124" type="curve" smooth="yes"/>
			<point x="563" y="283" type="line" smooth="yes"/>
			<point x="571" y="318"/>
			<point x="576" y="341"/>
			<point x="576" y="359" type="curve" smooth="yes"/>
			<point x="576" y="412"/>
			<point x="536" y="439"/>
			<point x="487" y="439" type="curve" smooth="yes"/>
			<point x="423" y="439"/>
			<point x="370" y="417"/>
			<point x="278" y="309" type="curve"/>
			<point x="276" y="311" type="line"/>
			<point x="277" y="316"/>
			<point x="278" y="322"/>
			<point x="279" y="327" type="curve" smooth="yes"/>
			<point x="286" y="363"/>
			<point x="289" y="397"/>
			<point x="289" y="412" type="curve" smooth="yes"/>
			<point x="289" y="426"/>
			<point name=".hr01" x="278" y="436"/>
			<point x="265" y="436" type="curve" smooth="yes"/>
			<point x="233" y="436"/>
			<point x="146" y="429"/>
			<point x="99" y="423" type="curve"/>
			<point x="92" y="415"/>
			<point x="91" y="394"/>
			<point x="97" y="385" type="curve"/>
			<point x="137" y="382" type="line" smooth="yes"/>
			<point x="151" y="381"/>
			<point x="155" y="364"/>
			<point x="155" y="352" type="curve" smooth="yes"/>
			<point x="155" y="341"/>
			<point x="155" y="309"/>
		</contour>
	</outline>
</glyph>
<glyph name="o" format="2">
  <advance width="479"/>
  <unicode hex="006F"/>
  <anchor x="334" y="500" name="t.uni0302"/>
  <anchor x="303" y="10" name="b.ogonek"/>
  <anchor x="224" y="-60" name="b.minus-60"/>
  <outline>
    <contour>
      <point x="283" y="387" type="line"/>
      <point x="310" y="387"/>
      <point x="368" y="359"/>
      <point x="368" y="239" type="curve" smooth="yes"/>
      <point x="368" y="127"/>
      <point x="329" y="42"/>
      <point x="278" y="42" type="curve"/>
      <point x="228" y="-10" type="line"/>
      <point x="368" y="-10"/>
      <point x="499" y="126"/>
      <point x="499" y="267" type="curve" smooth="yes"/>
      <point x="499" y="331"/>
      <point x="460" y="439"/>
      <point x="333" y="439" type="curve"/>
    </contour>
    <contour>
      <point x="278" y="42" type="line"/>
      <point x="251" y="42"/>
      <point x="193" y="70"/>
      <point x="193" y="190" type="curve" smooth="yes"/>
      <point x="193" y="302"/>
      <point x="232" y="387"/>
      <point x="283" y="387" type="curve"/>
      <point x="333" y="439" type="line"/>
      <point x="193" y="439"/>
      <point x="62" y="303"/>
      <point x="62" y="162" type="curve" smooth="yes"/>
      <point x="62" y="98"/>
      <point x="101" y="-10"/>
      <point x="228" y="-10" type="curve"/>
    </contour>
  </outline>
</glyph>
<glyph name="p" format="2">
  <advance width="549"/>
  <unicode hex="0070"/>
  <anchor x="397" y="500" name="t.uni0302"/>
  <anchor x="319" y="-60" name="b.minus-60"/>
  <outline>
    <contour>
      <point x="297" y="321" type="line" smooth="yes"/>
      <point x="306" y="363"/>
      <point x="311" y="382"/>
      <point x="322" y="417" type="curve"/>
      <point x="322" y="430"/>
      <point x="312" y="436"/>
      <point x="299" y="436" type="curve"/>
      <point x="255" y="423"/>
      <point x="165" y="413"/>
      <point x="118" y="410" type="curve"/>
      <point x="113" y="403"/>
      <point x="110" y="386"/>
      <point x="113" y="376" type="curve"/>
      <point x="159" y="373"/>
      <point x="181" y="362"/>
      <point x="181" y="342" type="curve" smooth="yes"/>
      <point x="181" y="332"/>
      <point x="179" y="318"/>
      <point x="175" y="301" type="curve" smooth="yes"/>
      <point x="75" y="-151" type="line" smooth="yes"/>
      <point x="69" y="-179"/>
      <point x="54" y="-191"/>
      <point x="22" y="-196" type="curve" smooth="yes"/>
      <point x="3" y="-199" type="line"/>
      <point x="-2" y="-200"/>
      <point x="-7" y="-201"/>
      <point x="-7" y="-207" type="curve" smooth="yes"/>
      <point x="-7" y="-236" type="line"/>
      <point x="-5" y="-238" type="line"/>
      <point x="-5" y="-238"/>
      <point x="66" y="-235"/>
      <point x="113" y="-234" type="curve"/>
      <point x="125" y="-233"/>
      <point x="135" y="-233"/>
      <point x="142" y="-233" type="curve" smooth="yes"/>
      <point x="181" y="-233"/>
      <point x="249" y="-235"/>
      <point x="249" y="-235" type="curve"/>
      <point x="251" y="-233" type="line"/>
      <point x="251" y="-203" type="line" smooth="yes"/>
      <point x="251" y="-198"/>
      <point x="249" y="-196"/>
      <point x="245" y="-195" type="curve"/>
      <point x="226" y="-192" type="line" smooth="yes"/>
      <point x="213" y="-190"/>
      <point x="192" y="-187"/>
      <point x="192" y="-163" type="curve" smooth="yes"/>
      <point x="192" y="-160"/>
      <point x="192" y="-156"/>
      <point x="193" y="-151" type="curve" smooth="yes"/>
    </contour>
    <contour>
      <point x="264" y="322" type="line"/>
      <point x="308" y="361"/>
      <point x="362" y="388"/>
      <point x="397" y="388" type="curve" smooth="yes"/>
      <point x="439" y="388"/>
      <point x="447" y="322"/>
      <point x="447" y="273" type="curve" smooth="yes"/>
      <point x="447" y="208"/>
      <point x="402" y="32"/>
      <point x="315" y="32" type="curve" smooth="yes"/>
      <point x="285" y="32"/>
      <point x="253" y="51"/>
      <point x="231" y="91" type="curve"/>
      <point x="219" y="36" type="line"/>
      <point x="248" y="5"/>
      <point x="266" y="-10"/>
      <point x="303" y="-10" type="curve" smooth="yes"/>
      <point x="450" y="-10"/>
      <point x="575" y="149"/>
      <point x="575" y="289" type="curve" smooth="yes"/>
      <point x="575" y="383"/>
      <point x="537" y="439"/>
      <point x="447" y="439" type="curve" smooth="yes"/>
      <point x="395" y="439"/>
      <point x="326" y="410"/>
      <point x="274" y="365" type="curve"/>
    </contour>
  </outline>
  <guideline angle="77.1444" x="246" y="352"/>
</glyph>
<glyph name="q" format="2">
  <advance width="531"/>
  <unicode hex="0071"/>
  <anchor x="344" y="500" name="t.uni0302"/>
  <anchor x="169" y="-60" name="b.minus-60"/>
  <outline>
    <contour>
      <point x="64" y="147" type="curve" smooth="yes"/>
      <point x="64" y="72"/>
      <point x="107" y="-10"/>
      <point x="201" y="-10" type="curve" smooth="yes"/>
      <point x="250" y="-10"/>
      <point x="299" y="14"/>
      <point x="361" y="100" type="curve"/>
      <point x="364" y="99" type="line"/>
      <point x="298" y="-161" type="line" smooth="yes"/>
      <point x="291" y="-187"/>
      <point x="266" y="-199"/>
      <point x="218" y="-206" type="curve"/>
      <point x="213" y="-216"/>
      <point x="213" y="-228"/>
      <point x="218" y="-238" type="curve"/>
      <point x="225" y="-238"/>
      <point x="287" y="-233"/>
      <point x="323" y="-233" type="curve" smooth="yes"/>
      <point x="362" y="-233"/>
      <point x="464" y="-235"/>
      <point x="475" y="-235" type="curve"/>
      <point x="479" y="-225"/>
      <point x="479" y="-213"/>
      <point x="475" y="-206" type="curve"/>
      <point x="437" y="-206"/>
      <point x="416" y="-194"/>
      <point x="416" y="-173" type="curve" smooth="yes"/>
      <point x="416" y="-170"/>
      <point x="416" y="-166"/>
      <point x="417" y="-161" type="curve"/>
      <point x="544" y="384" type="line" smooth="yes"/>
      <point x="547" y="398"/>
      <point x="550" y="410"/>
      <point x="550" y="420" type="curve" smooth="yes"/>
      <point x="550" y="434"/>
      <point x="544" y="442"/>
      <point x="527" y="442" type="curve" smooth="yes"/>
      <point x="520" y="442"/>
      <point x="495" y="436"/>
      <point x="477" y="420" type="curve" smooth="yes"/>
      <point x="439" y="386" type="line"/>
      <point x="415" y="419"/>
      <point x="379" y="439"/>
      <point x="343" y="439" type="curve" smooth="yes"/>
      <point x="189" y="439"/>
      <point x="64" y="298"/>
    </contour>
    <contour>
      <point x="193" y="128" type="curve" smooth="yes"/>
      <point x="193" y="277"/>
      <point x="242" y="393"/>
      <point x="344" y="393" type="curve" smooth="yes"/>
      <point x="380" y="393"/>
      <point x="405" y="361"/>
      <point x="405" y="320" type="curve" smooth="yes"/>
      <point x="405" y="304"/>
      <point x="389" y="236"/>
      <point x="370" y="180" type="curve" smooth="yes"/>
      <point x="347" y="115"/>
      <point x="275" y="44"/>
      <point x="238" y="44" type="curve" smooth="yes"/>
      <point x="214" y="44"/>
      <point x="193" y="72"/>
    </contour>
  </outline>
</glyph>
<glyph name="z" format="2">
  <advance width="457"/>
  <unicode hex="007A"/>
  <outline>
    <contour>
      <point x="38" y="8" type="curve"/>
      <point x="43" y="-2"/>
      <point x="61" y="-9"/>
      <point x="80" y="-12" type="curve"/>
      <point x="104" y="18"/>
      <point x="118" y="30"/>
      <point x="128" y="30" type="curve" smooth="yes"/>
      <point x="138" y="30"/>
      <point x="165" y="27"/>
      <point x="200" y="11" type="curve" smooth="yes"/>
      <point x="226" y="-1"/>
      <point x="266" y="-10" name=".hr01"/>
      <point x="300" y="-10" type="curve" smooth="yes"/>
      <point x="355" y="-10"/>
      <point x="425" y="21"/>
      <point x="476" y="128" type="curve"/>
      <point x="473" y="138"/>
      <point x="462" y="152"/>
      <point x="445" y="152" type="curve"/>
      <point x="404" y="89"/>
      <point x="376" y="89"/>
      <point x="359" y="89" type="curve" smooth="yes"/>
      <point x="347" y="89"/>
      <point x="255" y="120" name=".hr02"/>
      <point x="225" y="120" type="curve"/>
      <point x="495" y="422" type="line"/>
      <point x="486" y="434"/>
      <point x="472" y="446"/>
      <point x="458" y="450" type="curve"/>
      <point x="447" y="435"/>
      <point x="425" y="413"/>
      <point x="406" y="413" type="curve" smooth="yes"/>
      <point x="350" y="413"/>
      <point x="293" y="439" name=".hr03"/>
      <point x="233" y="439" type="curve" smooth="yes"/>
      <point x="187" y="439"/>
      <point x="114" y="354"/>
      <point x="94" y="296" type="curve"/>
      <point x="100" y="288"/>
      <point x="111" y="285"/>
      <point x="125" y="285" type="curve"/>
      <point x="137" y="312"/>
      <point x="190" y="341"/>
      <point x="219" y="341" type="curve" smooth="yes"/>
      <point x="268" y="341"/>
      <point x="274" y="327" name=".hr04"/>
      <point x="304" y="327" type="curve" smooth="yes"/>
      <point x="319" y="327"/>
      <point x="327" y="329"/>
      <point x="342" y="329" type="curve"/>
      <point x="117" y="96" type="line" smooth="yes"/>
      <point x="93" y="71"/>
      <point x="42" y="17"/>
    </contour>
  </outline>
</glyph>
<glyph name="bar" format="2">
  <advance width="242"/>
  <unicode hex="007C"/>
  <outline>
    <contour>
      <point x="195.309" y="-240" type="curve"/>
      <point x="195.309" y="720" type="line"/>
      <point x="177.774" y="726"/>
      <point x="158.394" y="726"/>
      <point x="138.309" y="720" type="curve"/>
      <point x="138.309" y="-240" type="line"/>
      <point x="155.843" y="-246"/>
      <point x="175.223" y="-246"/>
    </contour>
  </outline>
  <guideline angle="258" x="87" y="652"/>
  <guideline angle="78" x="173" y="720"/>
  <guideline angle="0" x="0" y="-240"/>
  <guideline angle="0" x="0" y="720"/>
  <guideline angle="90" x="129" y="0"/>
  <guideline angle="90" x="173" y="0"/>
</glyph>
<glyph name="ordfeminine" format="2">
  <advance width="365"/>
  <unicode hex="00AA"/>
  <outline>
    <contour>
      <point x="397" y="639.929" type="curve" smooth="yes"/>
      <point x="384.539" y="639.929"/>
      <point x="372.48" y="636.821"/>
      <point x="360" y="636.821" type="curve" smooth="yes"/>
      <point x="346.472" y="636.821"/>
      <point x="333.846" y="642"/>
      <point x="320" y="642" type="curve" smooth="yes"/>
      <point x="220.557" y="642"/>
      <point x="124" y="547.158"/>
      <point x="124" y="446.852" type="curve" smooth="yes"/>
      <point x="124" y="402.594"/>
      <point x="139.381" y="359"/>
      <point x="192" y="359" type="curve" smooth="yes"/>
      <point x="219" y="359"/>
      <point x="258" y="389"/>
      <point x="296" y="444.862" type="curve"/>
      <point x="298" y="443.867" type="line"/>
      <point x="293.265" y="424.083"/>
      <point x="291" y="404.227"/>
      <point x="291" y="384" type="curve" smooth="yes"/>
      <point x="291" y="367.882"/>
      <point x="309.342" y="358.594"/>
      <point x="323.291" y="358.465" type="curve" smooth="yes"/>
      <point x="367.585" y="358.055"/>
      <point x="408.165" y="382.94"/>
      <point x="435" y="417" type="curve"/>
      <point x="433" y="422.974"/>
      <point x="426" y="433.918"/>
      <point x="417" y="433.918" type="curve"/>
      <point x="401" y="415"/>
      <point x="379" y="405"/>
      <point x="373" y="405" type="curve" smooth="yes"/>
      <point x="368" y="405"/>
      <point x="365.738" y="409.005"/>
      <point x="366" y="416" type="curve" smooth="yes"/>
      <point x="366.15" y="419.99"/>
      <point x="369" y="433.918"/>
      <point x="371" y="442.872" type="curve" smooth="yes"/>
      <point x="397" y="566.24" type="line" smooth="yes"/>
      <point x="402" y="591.112"/>
      <point x="410" y="614.036"/>
      <point x="410" y="625.429" type="curve" smooth="yes"/>
      <point x="410" y="634.75"/>
      <point x="405" y="639.929"/>
    </contour>
    <contour>
      <point x="307" y="506.546" type="curve"/>
      <point x="276" y="449.837"/>
      <point x="251" y="418"/>
      <point x="231" y="418" type="curve" smooth="yes"/>
      <point x="211" y="418"/>
      <point x="203" y="432.923"/>
      <point x="203" y="451.827" type="curve" smooth="yes"/>
      <point x="203" y="505.114"/>
      <point x="241.308" y="613"/>
      <point x="299" y="613" type="curve" smooth="yes"/>
      <point x="307.53" y="613"/>
      <point x="323.811" y="608.463"/>
      <point x="327" y="602.056" type="curve"/>
      <point x="328.387" y="584.879"/>
      <point x="318.76" y="538"/>
    </contour>
  </outline>
</glyph>
<glyph name="uni00B3" format="2">
  <advance width="320"/>
  <unicode hex="00B3"/>
  <outline>
    <contour>
      <point x="102" y="403" type="curve" smooth="yes"/>
      <point x="102" y="368"/>
      <point x="155" y="359"/>
      <point x="199" y="359" type="curve" smooth="yes"/>
      <point x="277" y="359"/>
      <point x="389" y="410"/>
      <point x="389" y="502" type="curve" smooth="yes"/>
      <point x="389" y="532"/>
      <point x="369" y="556"/>
      <point x="334" y="568" type="curve" name=".hr01"/>
      <point x="372" y="583"/>
      <point x="396" y="615"/>
      <point x="396" y="652" type="curve" smooth="yes"/>
      <point x="396" y="687"/>
      <point x="360" y="709"/>
      <point x="305" y="709" type="curve" smooth="yes"/>
      <point x="229" y="709"/>
      <point x="158" y="667"/>
      <point x="158" y="622" type="curve" smooth="yes"/>
      <point x="158" y="613"/>
      <point x="162" y="600"/>
      <point x="184" y="600" type="curve" smooth="yes"/>
      <point x="215" y="600"/>
      <point x="225" y="618"/>
      <point x="229" y="638" type="curve" smooth="yes"/>
      <point x="234" y="663"/>
      <point x="255" y="679"/>
      <point x="283" y="679" type="curve" smooth="yes"/>
      <point x="300" y="679"/>
      <point x="314" y="668"/>
      <point x="314" y="647" type="curve" smooth="yes"/>
      <point x="314" y="595"/>
      <point x="253" y="562"/>
      <point x="209" y="556" type="curve" name=".hr02"/>
      <point x="203" y="526" type="line"/>
      <point x="216" y="529"/>
      <point x="227" y="530"/>
      <point x="236" y="530" type="curve" smooth="yes"/>
      <point x="270" y="530"/>
      <point x="296" y="521"/>
      <point x="296" y="489" type="curve" smooth="yes"/>
      <point x="296" y="442"/>
      <point x="250" y="388"/>
      <point x="212" y="388" type="curve" smooth="yes"/>
      <point x="166" y="388"/>
      <point x="184" y="445"/>
      <point x="144" y="445" type="curve" smooth="yes"/>
      <point x="121" y="445"/>
      <point x="102" y="424"/>
    </contour>
  </outline>
</glyph>
<glyph name="uni00B9" format="2">
  <advance width="274"/>
  <unicode hex="00B9"/>
  <outline>
    <contour>
      <point x="245.043" y="739" type="curve" smooth="yes"/>
      <point x="256.043" y="739"/>
      <point x="256.836" y="729.841"/>
      <point x="250.043" y="698" type="curve" smooth="yes"/>
      <point x="218.043" y="548" type="line" smooth="yes"/>
      <point x="207.608" y="499.087"/>
      <point x="181.636" y="494.84"/>
      <point x="139.043" y="492" type="curve"/>
      <point x="132.787" y="485.303"/>
      <point x="129.947" y="472.986"/>
      <point x="133.043" y="463" type="curve"/>
      <point x="161.043" y="463.967"/>
      <point x="208.043" y="463.967"/>
      <point x="241.043" y="463.967" type="curve" smooth="yes"/>
      <point x="277.043" y="463.967"/>
      <point x="306.043" y="463.967"/>
      <point x="334.043" y="463" type="curve"/>
      <point x="337.883" y="469.187"/>
      <point x="342.574" y="484.662"/>
      <point x="340.043" y="492" type="curve"/>
      <point x="317.3" y="492"/>
      <point x="297.74" y="496.084"/>
      <point x="297.74" y="523.896" type="curve" smooth="yes"/>
      <point x="297.74" y="532.008"/>
      <point x="298.339" y="540.079"/>
      <point x="300.043" y="548" type="curve" smooth="yes"/>
      <point x="337.276" y="721.101" type="line" smooth="yes"/>
      <point x="343.899" y="751.893"/>
      <point x="352.015" y="782.933"/>
      <point x="363.043" y="813" type="curve"/>
      <point x="361.1" y="814.579"/>
      <point x="356.045" y="816"/>
      <point x="348.043" y="816" type="curve" smooth="yes"/>
      <point x="344.043" y="816"/>
      <point x="332.009" y="815.265"/>
      <point x="327.043" y="813" type="curve"/>
      <point x="279.318" y="787.482"/>
      <point x="233.776" y="770.591"/>
      <point x="186.043" y="757" type="curve"/>
      <point x="183.043" y="745"/>
      <point x="182.043" y="730"/>
      <point x="188.043" y="724" type="curve"/>
      <point x="214.043" y="733"/>
      <point x="233.043" y="739"/>
    </contour>
  </outline>
</glyph>
<glyph name="AE" format="2">
  <advance width="950"/>
  <unicode hex="00C6"/>
  <outline>
    <contour>
      <point x="128" y="102" type="line" smooth="yes"/>
      <point x="94" y="57"/>
      <point x="70" y="41"/>
      <point x="40" y="35" type="curve"/>
      <point x="36" y="34"/>
      <point x="32" y="34"/>
      <point x="27" y="33" type="curve"/>
      <point x="23" y="33"/>
      <point x="18" y="32"/>
      <point x="13" y="32" type="curve"/>
      <point x="11" y="30"/>
      <point x="9" y="26"/>
      <point x="7" y="22" type="curve"/>
      <point x="4" y="13"/>
      <point x="3" y="2"/>
      <point x="6" y="-2" type="curve"/>
      <point x="6" y="-2" type="line"/>
      <point x="43" y="-1"/>
      <point x="61" y="0" name=".hr01"/>
      <point x="100" y="0" type="curve" smooth="yes"/>
      <point x="141" y="0"/>
      <point x="196" y="-1"/>
      <point x="233" y="-2" type="curve"/>
      <point x="235" y="0"/>
      <point x="237" y="4"/>
      <point x="239" y="8" type="curve" name=".hr02"/>
      <point x="241" y="13"/>
      <point x="242" y="17"/>
      <point x="242" y="22" type="curve" smooth="yes"/>
      <point x="242" y="26"/>
      <point x="242" y="30"/>
      <point x="240" y="32" type="curve"/>
      <point x="234" y="33"/>
      <point x="227" y="33"/>
      <point x="221" y="34" type="curve" smooth="yes"/>
      <point x="214" y="35"/>
      <point x="208" y="36"/>
      <point x="202" y="37" type="curve"/>
      <point x="177" y="42" name=".hr03"/>
      <point x="161" y="53"/>
      <point x="181" y="79" type="curve" smooth="yes"/>
      <point x="322" y="266" type="line"/>
      <point x="500" y="266" type="line"/>
      <point x="469" y="122" type="line" smooth="yes"/>
      <point x="465" y="105"/>
      <point x="462" y="92"/>
      <point x="458" y="81" type="curve" smooth="yes"/>
      <point x="448" y="54"/>
      <point x="435" y="42"/>
      <point x="413" y="37" type="curve" smooth="yes"/>
      <point x="405" y="35"/>
      <point x="395" y="34" name=".hr04"/>
      <point x="382" y="33" type="curve"/>
      <point x="376" y="33"/>
      <point x="370" y="32"/>
      <point x="363" y="32" type="curve"/>
      <point x="361" y="30"/>
      <point x="359" y="26"/>
      <point x="357" y="22" type="curve"/>
      <point x="354" y="13"/>
      <point x="353" y="2"/>
      <point x="356" y="-2" type="curve"/>
      <point x="356" y="-2" type="line"/>
      <point x="405" y="-1"/>
      <point x="510" y="0" name=".hr05"/>
      <point x="510" y="0" type="curve"/>
      <point x="516" y="0"/>
      <point x="521" y="0"/>
      <point x="527" y="0" type="curve" smooth="yes"/>
      <point x="746" y="0" type="line" smooth="yes"/>
      <point x="794" y="0"/>
      <point x="884" y="-2"/>
      <point x="884" y="-2" type="curve"/>
      <point x="908" y="48"/>
      <point x="927" y="114"/>
      <point x="946" y="165" type="curve"/>
      <point x="937" y="171"/>
      <point x="916" y="173"/>
      <point x="902" y="170" type="curve"/>
      <point x="870" y="103"/>
      <point x="818" y="50"/>
      <point x="750" y="43" type="curve"/>
      <point x="745" y="42"/>
      <point x="739" y="42"/>
      <point x="734" y="42" type="curve" smooth="yes"/>
      <point x="633" y="42" type="line"/>
      <point x="633" y="42" type="line"/>
      <point x="611" y="42"/>
      <point x="596" y="63"/>
      <point x="602" y="90" type="curve" smooth="yes"/>
      <point x="650" y="317" type="line"/>
      <point x="731" y="317" type="line" smooth="yes"/>
      <point x="740" y="317"/>
      <point x="747" y="317"/>
      <point x="754" y="316" type="curve"/>
      <point x="790" y="313"/>
      <point x="805" y="303"/>
      <point x="809" y="284" type="curve"/>
      <point x="810" y="280"/>
      <point x="811" y="275"/>
      <point x="810" y="271" type="curve"/>
      <point x="810" y="266"/>
      <point x="810" y="261"/>
      <point x="809" y="255" type="curve"/>
      <point x="811" y="253"/>
      <point x="815" y="252"/>
      <point x="821" y="251" type="curve"/>
      <point x="832" y="250"/>
      <point x="847" y="251"/>
      <point x="852" y="255" type="curve"/>
      <point x="853" y="261"/>
      <point x="854" y="266"/>
      <point x="855" y="271" type="curve" smooth="yes"/>
      <point x="860" y="297"/>
      <point x="863" y="315"/>
      <point x="869" y="343" type="curve" smooth="yes"/>
      <point x="876" y="377"/>
      <point x="882" y="399"/>
      <point x="889" y="429" type="curve"/>
      <point x="889" y="429"/>
      <point x="889" y="429"/>
      <point x="889" y="429" type="curve"/>
      <point x="886" y="433"/>
      <point x="872" y="434"/>
      <point x="860" y="433" type="curve"/>
      <point x="854" y="432"/>
      <point x="849" y="431"/>
      <point x="846" y="429" type="curve"/>
      <point x="843" y="415"/>
      <point x="838" y="405"/>
      <point x="833" y="396" type="curve"/>
      <point x="820" y="375"/>
      <point x="800" y="369"/>
      <point x="765" y="367" type="curve"/>
      <point x="758" y="367"/>
      <point x="750" y="367"/>
      <point x="742" y="367" type="curve" smooth="yes"/>
      <point x="661" y="367" type="line"/>
      <point x="701" y="554" type="line" smooth="yes"/>
      <point x="706" y="578"/>
      <point x="728" y="603"/>
      <point x="752" y="603" type="curve" smooth="yes"/>
      <point x="837" y="603" type="line" smooth="yes"/>
      <point x="845" y="603"/>
      <point x="851" y="603"/>
      <point x="858" y="602" type="curve" smooth="yes"/>
      <point x="915" y="595"/>
      <point x="926" y="558"/>
      <point x="932" y="496" type="curve"/>
      <point x="944" y="494"/>
      <point x="966" y="496"/>
      <point x="977" y="501" type="curve"/>
      <point x="979" y="524"/>
      <point x="984" y="563"/>
      <point x="989" y="595" type="curve"/>
      <point x="992" y="621"/>
      <point x="995" y="642"/>
      <point x="995" y="646" type="curve"/>
      <point x="996" y="648"/>
      <point x="995" y="649"/>
      <point x="992" y="649" type="curve"/>
      <point x="974" y="646"/>
      <point x="966" y="645"/>
      <point x="942" y="645" type="curve" smooth="yes"/>
      <point x="661" y="645" type="line"/>
      <point x="644" y="645" type="line"/>
      <point x="438" y="647" type="line"/>
      <point x="435" y="645" type="line"/>
      <point x="430" y="620" type="line"/>
      <point x="429" y="616"/>
      <point x="430" y="613" name=".hr06"/>
      <point x="436" y="613" type="curve" smooth="yes"/>
      <point x="444" y="613"/>
      <point x="451" y="613"/>
      <point x="457" y="612" type="curve" smooth="yes"/>
      <point x="482" y="608"/>
      <point x="495" y="598"/>
      <point x="487" y="578" type="curve"/>
      <point x="486" y="573"/>
      <point x="483" y="568"/>
      <point x="478" y="562" type="curve"/>
    </contour>
    <contour>
      <point x="358" y="316" type="line"/>
      <point x="530" y="546" type="line" smooth="yes"/>
      <point x="542" y="562"/>
      <point x="551" y="568"/>
      <point x="555" y="567" type="curve"/>
      <point x="560" y="566"/>
      <point x="562" y="558"/>
      <point x="559" y="545" type="curve"/>
      <point x="559" y="545"/>
      <point x="559" y="545"/>
      <point x="559" y="545" type="curve"/>
      <point x="510" y="316" type="line"/>
    </contour>
  </outline>
</glyph>
<glyph name="Aogonek" format="2">
  <advance width="734"/>
  <unicode hex="0104"/>
  <outline>
    <component base="A"/>
    <contour>
      <point x="690" y="-179" type="curve"/>
      <point x="675" y="-156" type="line"/>
      <point x="660" y="-171"/>
      <point x="636" y="-174"/>
      <point x="619" y="-174" type="curve" smooth="yes"/>
      <point x="596" y="-174"/>
      <point x="580" y="-157"/>
      <point x="580" y="-132" type="curve" smooth="yes"/>
      <point x="580" y="-61"/>
      <point x="634" y="-2"/>
      <point x="700" y="-2" type="curve"/>
      <point x="700" y="6" type="line"/>
      <point x="606" y="6" type="line"/>
      <point x="558" y="-18"/>
      <point x="492" y="-78"/>
      <point x="492" y="-142" type="curve" smooth="yes"/>
      <point x="492" y="-198"/>
      <point x="528" y="-235"/>
      <point x="584" y="-235" type="curve" smooth="yes"/>
      <point x="621" y="-235"/>
      <point x="666" y="-211"/>
    </contour>
  </outline>
</glyph>
<glyph name="Hbar" format="2">
  <advance width="707"/>
  <unicode hex="0126"/>
  <outline>
    <contour>
      <point x="330" y="526" type="line"/>
      <point x="334" y="544"/>
      <point x="338" y="558"/>
      <point x="343" y="569" type="curve"/>
      <point x="352" y="591"/>
      <point x="365" y="602"/>
      <point x="382" y="607" type="curve"/>
      <point x="394" y="611"/>
      <point x="409" y="612"/>
      <point x="426" y="613" type="curve"/>
      <point x="437" y="619"/>
      <point x="441" y="641"/>
      <point x="433" y="647" type="curve"/>
      <point x="394" y="646"/>
      <point x="325" y="645"/>
      <point x="287" y="645" type="curve" smooth="yes"/>
      <point x="273" y="645" type="line" smooth="yes"/>
      <point x="233" y="645"/>
      <point x="173" y="646"/>
      <point x="139" y="647" type="curve"/>
      <point x="128" y="641"/>
      <point x="124" y="619"/>
      <point x="132" y="613" type="curve"/>
      <point x="145" y="612"/>
      <point x="156" y="611"/>
      <point x="165" y="609" type="curve" smooth="yes"/>
      <point x="184" y="605"/>
      <point x="196" y="596"/>
      <point x="199" y="573" type="curve"/>
      <point x="200" y="561"/>
      <point x="200" y="546"/>
      <point x="196" y="526" type="curve"/>
      <point x="136" y="526" type="line"/>
      <point x="129" y="492" type="line"/>
      <point x="189" y="492" type="line"/>
      <point x="117" y="122" type="line"/>
      <point x="113" y="104"/>
      <point x="109" y="89"/>
      <point x="104" y="78" type="curve"/>
      <point x="92" y="49"/>
      <point x="75" y="39"/>
      <point x="52" y="35" type="curve" smooth="yes"/>
      <point x="42" y="33"/>
      <point x="32" y="33"/>
      <point x="20" y="32" type="curve"/>
      <point x="9" y="26"/>
      <point x="5" y="4"/>
      <point x="13" y="-2" type="curve"/>
      <point x="43" y="-1"/>
      <point x="93" y="0"/>
      <point x="131" y="0" type="curve" smooth="yes"/>
      <point x="142" y="0"/>
      <point x="153" y="0"/>
      <point x="161" y="0" type="curve" smooth="yes"/>
      <point x="199" y="0"/>
      <point x="269" y="-1"/>
      <point x="307" y="-2" type="curve"/>
      <point x="318" y="4"/>
      <point x="321" y="26"/>
      <point x="313" y="32" type="curve"/>
      <point x="300" y="33"/>
      <point x="289" y="34"/>
      <point x="279" y="36" type="curve" smooth="yes"/>
      <point x="260" y="40"/>
      <point x="249" y="49"/>
      <point x="247" y="73" type="curve" smooth="yes"/>
      <point x="246" y="85"/>
      <point x="247" y="101"/>
      <point x="251" y="122" type="curve" smooth="yes"/>
      <point x="289" y="319" type="line"/>
      <point x="539" y="319" type="line"/>
      <point x="501" y="122" type="line"/>
      <point x="499" y="113"/>
      <point x="497" y="105"/>
      <point x="495" y="97" type="curve" smooth="yes"/>
      <point x="485" y="60"/>
      <point x="470" y="45"/>
      <point x="449" y="38" type="curve" smooth="yes"/>
      <point x="437" y="34"/>
      <point x="422" y="33"/>
      <point x="404" y="32" type="curve"/>
      <point x="393" y="26"/>
      <point x="389" y="4"/>
      <point x="397" y="-2" type="curve"/>
      <point x="436" y="-1"/>
      <point x="507" y="0"/>
      <point x="545" y="0" type="curve" smooth="yes"/>
      <point x="583" y="0"/>
      <point x="653" y="-1"/>
      <point x="691" y="-2" type="curve"/>
      <point x="702" y="4"/>
      <point x="705" y="26"/>
      <point x="697" y="32" type="curve"/>
      <point x="684" y="33"/>
      <point x="673" y="34"/>
      <point x="663" y="36" type="curve" smooth="yes"/>
      <point x="644" y="40"/>
      <point x="633" y="49"/>
      <point x="631" y="73" type="curve" smooth="yes"/>
      <point x="630" y="85"/>
      <point x="631" y="101"/>
      <point x="635" y="122" type="curve" smooth="yes"/>
      <point x="707" y="492" type="line"/>
      <point x="759" y="492" type="line"/>
      <point x="766" y="526" type="line"/>
      <point x="714" y="526" type="line"/>
      <point x="718" y="544"/>
      <point x="722" y="558"/>
      <point x="727" y="569" type="curve" smooth="yes"/>
      <point x="739" y="597"/>
      <point x="755" y="606"/>
      <point x="779" y="610" type="curve"/>
      <point x="788" y="612"/>
      <point x="798" y="612"/>
      <point x="810" y="613" type="curve"/>
      <point x="821" y="619"/>
      <point x="825" y="641"/>
      <point x="817" y="647" type="curve"/>
      <point x="782" y="646"/>
      <point x="724" y="645"/>
      <point x="685" y="645" type="curve" smooth="yes"/>
      <point x="671" y="645" type="line" smooth="yes"/>
      <point x="633" y="645"/>
      <point x="561" y="646"/>
      <point x="523" y="647" type="curve"/>
      <point x="512" y="641"/>
      <point x="508" y="619"/>
      <point x="516" y="613" type="curve"/>
      <point x="529" y="612"/>
      <point x="540" y="611"/>
      <point x="549" y="609" type="curve" smooth="yes"/>
      <point x="568" y="605"/>
      <point x="580" y="596"/>
      <point x="583" y="573" type="curve"/>
      <point x="584" y="561"/>
      <point x="584" y="546"/>
      <point x="580" y="526" type="curve"/>
    </contour>
    <contour>
      <point x="573" y="492" type="line"/>
      <point x="549" y="367" type="line"/>
      <point x="299" y="367" type="line"/>
      <point x="323" y="492" type="line"/>
    </contour>
  </outline>
</glyph>
<glyph name="napostrophe" format="2">
  <advance width="614"/>
  <unicode hex="0149"/>
  <outline>
    <component base="n"/>
    <contour>
      <point x="205" y="698" type="curve" smooth="yes"/>
      <point x="175" y="698"/>
      <point x="157" y="680"/>
      <point x="154" y="664" type="curve"/>
      <point x="150" y="648"/>
      <point x="151" y="626"/>
      <point x="192" y="626" type="curve" smooth="yes"/>
      <point x="200" y="626"/>
      <point x="204" y="618"/>
      <point x="202" y="605" type="curve"/>
      <point x="197" y="582"/>
      <point x="169" y="545"/>
      <point x="125" y="536" type="curve"/>
      <point x="126" y="519" type="line"/>
      <point x="198" y="527"/>
      <point x="243" y="589"/>
      <point x="250" y="625" type="curve" smooth="yes"/>
      <point x="257" y="661"/>
      <point x="243" y="698"/>
    </contour>
  </outline>
</glyph>
<glyph name="eng" format="2">
  <advance width="568"/>
  <unicode hex="014B"/>
  <outline>
    <contour>
      <point x="155" y="310" type="line"/>
      <point x="102" y="72" type="line"/>
      <point x="224" y="72" type="line"/>
      <point x="262" y="228" type="line"/>
      <point x="325" y="310"/>
      <point x="376" y="369"/>
      <point x="412" y="369" type="curve" smooth="yes"/>
      <point x="437" y="369"/>
      <point x="447" y="360"/>
      <point x="447" y="333" type="curve" smooth="yes"/>
      <point x="447" y="319"/>
      <point x="446" y="309"/>
      <point x="438" y="275" type="curve" smooth="yes"/>
      <point x="402" y="122" type="line"/>
      <point x="524" y="122" type="line"/>
      <point x="563" y="283" type="line" smooth="yes"/>
      <point x="572" y="318"/>
      <point x="576" y="341"/>
      <point x="576" y="359" type="curve" smooth="yes"/>
      <point x="576" y="412"/>
      <point x="536" y="439"/>
      <point x="487" y="439" type="curve" smooth="yes"/>
      <point x="423" y="439"/>
      <point x="370" y="418"/>
      <point x="278" y="310" type="curve"/>
    </contour>
    <contour>
      <point x="155" y="310" type="line"/>
      <point x="276" y="310" type="line"/>
      <point x="278" y="319" type="line" smooth="yes"/>
      <point x="287" y="359"/>
      <point x="299" y="401"/>
      <point x="299" y="418" type="curve" smooth="yes"/>
      <point x="299" y="430"/>
      <point x="293" y="436"/>
      <point x="282" y="436" type="curve"/>
      <point x="251" y="431"/>
      <point x="154" y="423"/>
      <point x="106" y="423" type="curve"/>
      <point x="99" y="415"/>
      <point x="98" y="393"/>
      <point x="104" y="384" type="curve"/>
      <point x="144" y="381" type="line" smooth="yes"/>
      <point x="156" y="380"/>
      <point x="163" y="371"/>
      <point x="163" y="359" type="curve" smooth="yes"/>
      <point x="163" y="352"/>
      <point x="162" y="342"/>
      <point x="160" y="332" type="curve" smooth="yes"/>
    </contour>
    <contour>
      <point x="91" y="13" type="curve" smooth="yes"/>
      <point x="91" y="-4"/>
      <point x="110" y="-10"/>
      <point x="153" y="-10" type="curve" smooth="yes"/>
      <point x="200" y="-10"/>
      <point x="209" y="11"/>
      <point x="218" y="48" type="curve" smooth="yes"/>
      <point x="224" y="72" type="line"/>
      <point x="102" y="72" type="line"/>
      <point x="96" y="45" type="line" smooth="yes"/>
      <point x="93" y="30"/>
      <point x="91" y="18"/>
    </contour>
    <contour>
      <point x="392" y="77" type="line" smooth="yes"/>
      <point x="360" y="-65"/>
      <point x="352" y="-172"/>
      <point x="304" y="-172" type="curve" smooth="yes"/>
      <point x="267" y="-172"/>
      <point x="280" y="-99"/>
      <point x="214" y="-99" type="curve" smooth="yes"/>
      <point x="196" y="-99"/>
      <point x="175" y="-114"/>
      <point x="175" y="-144" type="curve" smooth="yes"/>
      <point x="175" y="-191"/>
      <point x="226" y="-207"/>
      <point x="285" y="-207" type="curve" smooth="yes"/>
      <point x="416" y="-207"/>
      <point x="465" y="-124"/>
      <point x="495" y="0" type="curve" smooth="yes"/>
      <point x="524" y="122" type="line"/>
      <point x="402" y="122" type="line"/>
    </contour>
  </outline>
</glyph>
<glyph name="uni019A" format="2">
  <advance width="306"/>
  <unicode hex="019A"/>
  <outline>
    <contour>
      <point x="117" y="371" type="line" smooth="yes"/>
      <point x="108" y="371"/>
      <point x="95" y="356"/>
      <point x="93" y="346" type="curve"/>
      <point x="91" y="340"/>
      <point x="93" y="332"/>
      <point x="101" y="332" type="curve" smooth="yes"/>
      <point x="330" y="332" type="line" smooth="yes"/>
      <point x="342" y="332"/>
      <point x="354" y="347"/>
      <point x="356" y="358" type="curve" smooth="yes"/>
      <point x="357" y="363"/>
      <point x="356" y="371"/>
      <point x="347" y="371" type="curve" smooth="yes"/>
    </contour>
    <contour>
      <point x="196" y="511" type="line"/>
      <point x="113" y="118" type="line" smooth="yes"/>
      <point x="108" y="95"/>
      <point x="103" y="68"/>
      <point x="103" y="47" type="curve" smooth="yes"/>
      <point x="103" y="14"/>
      <point x="117" y="-10"/>
      <point x="154" y="-10" type="curve" smooth="yes"/>
      <point x="224" y="-10"/>
      <point x="290" y="30"/>
      <point x="340" y="85" type="curve"/>
      <point x="337" y="94"/>
      <point x="325" y="113"/>
      <point x="311" y="113" type="curve"/>
      <point x="285" y="83"/>
      <point x="251" y="66"/>
      <point x="241" y="66" type="curve" smooth="yes"/>
      <point x="233" y="66"/>
      <point x="230" y="74"/>
      <point x="230" y="84" type="curve" smooth="yes"/>
      <point x="230" y="97"/>
      <point x="233" y="113"/>
      <point x="236" y="127" type="curve" smooth="yes"/>
      <point x="318" y="511" type="line"/>
    </contour>
    <contour>
      <point x="196" y="511" type="line"/>
      <point x="318" y="511" type="line"/>
      <point x="333" y="581" type="line" smooth="yes"/>
      <point x="342" y="621"/>
      <point x="354" y="663"/>
      <point x="354" y="680" type="curve" smooth="yes"/>
      <point x="354" y="692"/>
      <point x="348" y="698"/>
      <point x="337" y="698" type="curve"/>
      <point x="306" y="693"/>
      <point x="209" y="685"/>
      <point x="161" y="685" type="curve"/>
      <point x="154" y="677"/>
      <point x="153" y="655"/>
      <point x="159" y="646" type="curve"/>
      <point x="199" y="643" type="line" smooth="yes"/>
      <point x="211" y="642"/>
      <point x="217" y="633"/>
      <point x="217" y="621" type="curve" smooth="yes"/>
      <point x="217" y="614"/>
      <point x="215" y="601"/>
      <point x="211" y="582" type="curve" smooth="yes"/>
    </contour>
  </outline>
</glyph>
<glyph name="uni019F" format="2">
  <advance width="699"/>
  <unicode hex="019F"/>
  <outline>
    <component base="O"/>
    <contour>
      <point x="168" y="309" type="line"/>
      <point x="640" y="309" type="line"/>
      <point x="646" y="353" type="line"/>
      <point x="176" y="353" type="line"/>
    </contour>
  </outline>
  <guideline angle="263.18" x="444" y="624"/>
</glyph>
<glyph name="uni01DE" format="2">
  <advance width="710"/>
  <unicode hex="01DE"/>
  <outline>
    <component base="A"/>
    <contour>
      <point x="617" y="806" type="line" smooth="yes"/>
      <point x="630" y="806"/>
      <point x="644" y="824"/>
      <point x="647" y="836" type="curve"/>
      <point x="648" y="842"/>
      <point x="645" y="850"/>
      <point x="635" y="850" type="curve" smooth="yes"/>
      <point x="390" y="850" type="line" smooth="yes"/>
      <point x="379" y="850"/>
      <point x="365" y="833"/>
      <point x="363" y="821" type="curve"/>
      <point x="361" y="814"/>
      <point x="364" y="806"/>
      <point x="373" y="806" type="curve" smooth="yes"/>
    </contour>
    <contour>
      <point x="313" y="706" type="curve" smooth="yes"/>
      <point x="313" y="680"/>
      <point x="335" y="658"/>
      <point x="361" y="658" type="curve" smooth="yes"/>
      <point x="387" y="658"/>
      <point x="409" y="680"/>
      <point x="409" y="706" type="curve" smooth="yes"/>
      <point x="409" y="732"/>
      <point x="387" y="754" name=".hr01"/>
      <point x="361" y="754" type="curve" smooth="yes"/>
      <point x="335" y="754"/>
      <point x="313" y="732"/>
    </contour>
    <contour>
      <point x="550" y="706" type="curve" smooth="yes"/>
      <point x="550" y="680"/>
      <point x="572" y="658"/>
      <point x="598" y="658" type="curve" smooth="yes"/>
      <point x="624" y="658"/>
      <point x="646" y="680"/>
      <point x="646" y="706" type="curve" smooth="yes"/>
      <point x="646" y="732"/>
      <point x="624" y="754"/>
      <point x="598" y="754" type="curve" smooth="yes"/>
      <point x="572" y="754"/>
      <point x="550" y="732"/>
    </contour>
  </outline>
</glyph>
<glyph name="uni0266" format="2">
  <advance width="614"/>
  <unicode hex="0266"/>
  <outline>
    <contour>
      <point x="151" y="310" type="line"/>
      <point x="269" y="310" type="line"/>
      <point x="309" y="480" type="line" smooth="yes"/>
      <point x="317" y="514"/>
      <point x="355" y="659"/>
      <point x="399" y="659" type="curve" smooth="yes"/>
      <point x="404" y="659"/>
      <point x="409" y="654"/>
      <point x="413" y="644" type="curve" smooth="yes"/>
      <point x="416" y="637"/>
      <point x="418" y="628"/>
      <point x="420" y="618" type="curve" smooth="yes"/>
      <point x="426" y="585"/>
      <point x="447" y="580"/>
      <point x="476" y="580" type="curve" smooth="yes"/>
      <point x="505" y="580"/>
      <point x="542" y="594"/>
      <point x="542" y="628" type="curve" smooth="yes"/>
      <point x="542" y="679"/>
      <point x="466" y="698"/>
      <point x="412" y="698" type="curve" smooth="yes"/>
      <point x="255" y="698"/>
      <point x="206" y="546"/>
      <point x="177" y="421" type="curve" smooth="yes"/>
    </contour>
    <contour>
      <point x="155" y="310" type="line"/>
      <point x="102" y="72" type="line"/>
      <point x="224" y="72" type="line"/>
      <point x="262" y="228" type="line"/>
      <point x="325" y="310"/>
      <point x="376" y="369"/>
      <point x="412" y="369" type="curve" smooth="yes"/>
      <point x="437" y="369"/>
      <point x="447" y="360"/>
      <point x="447" y="333" type="curve" smooth="yes"/>
      <point x="447" y="319"/>
      <point x="446" y="309"/>
      <point x="438" y="275" type="curve" smooth="yes"/>
      <point x="401" y="115" type="line" smooth="yes"/>
      <point x="396" y="93"/>
      <point x="392" y="65"/>
      <point x="392" y="44" type="curve" smooth="yes"/>
      <point x="392" y="11"/>
      <point x="407" y="-10"/>
      <point x="443" y="-10" type="curve" smooth="yes"/>
      <point x="513" y="-10"/>
      <point x="582" y="23"/>
      <point x="628" y="82" type="curve"/>
      <point x="625" y="91"/>
      <point x="613" y="110"/>
      <point x="599" y="110" type="curve"/>
      <point x="573" y="80"/>
      <point x="539" y="63"/>
      <point x="529" y="63" type="curve" smooth="yes"/>
      <point x="522" y="63"/>
      <point x="516" y="69"/>
      <point x="516" y="77" type="curve" smooth="yes"/>
      <point x="516" y="88"/>
      <point x="521" y="108"/>
      <point x="525" y="124" type="curve" smooth="yes"/>
      <point x="563" y="283" type="line" smooth="yes"/>
      <point x="571" y="318"/>
      <point x="576" y="341"/>
      <point x="576" y="359" type="curve" smooth="yes"/>
      <point x="576" y="412"/>
      <point x="536" y="439"/>
      <point x="487" y="439" type="curve" smooth="yes"/>
      <point x="423" y="439"/>
      <point x="370" y="418"/>
      <point x="278" y="310" type="curve"/>
    </contour>
    <contour>
      <point x="91" y="13" type="curve" smooth="yes"/>
      <point x="91" y="-4"/>
      <point x="110" y="-10"/>
      <point x="153" y="-10" type="curve" smooth="yes"/>
      <point x="200" y="-10"/>
      <point x="209" y="11"/>
      <point x="218" y="48" type="curve" smooth="yes"/>
      <point x="224" y="72" type="line"/>
      <point x="102" y="72" type="line"/>
      <point x="96" y="45" type="line" smooth="yes"/>
      <point x="93" y="30"/>
      <point x="91" y="18"/>
    </contour>
  </outline>
</glyph>
<glyph name="uni0271" format="2">
  <advance width="759"/>
  <unicode hex="0271"/>
  <outline>
    <contour>
      <point x="155" y="310" type="line"/>
      <point x="276" y="310" type="line"/>
      <point x="278" y="319" type="line" smooth="yes"/>
      <point x="287" y="359"/>
      <point x="299" y="401"/>
      <point x="299" y="418" type="curve" smooth="yes"/>
      <point x="299" y="430"/>
      <point x="293" y="436"/>
      <point x="282" y="436" type="curve"/>
      <point x="251" y="431"/>
      <point x="154" y="423"/>
      <point x="106" y="423" type="curve"/>
      <point x="99" y="415"/>
      <point x="98" y="393"/>
      <point x="104" y="384" type="curve"/>
      <point x="144" y="381" type="line" smooth="yes"/>
      <point x="156" y="380"/>
      <point x="163" y="371"/>
      <point x="163" y="359" type="curve" smooth="yes"/>
      <point x="163" y="352"/>
      <point x="162" y="342"/>
      <point x="160" y="332" type="curve" smooth="yes"/>
    </contour>
    <contour>
      <point x="90" y="13" type="curve" smooth="yes"/>
      <point x="90" y="-4"/>
      <point x="110" y="-10"/>
      <point x="153" y="-10" type="curve" smooth="yes"/>
      <point x="200" y="-10"/>
      <point x="206" y="-3"/>
      <point x="224" y="72" type="curve" smooth="yes"/>
      <point x="262" y="228" type="line"/>
      <point x="325" y="310"/>
      <point x="371" y="369"/>
      <point x="407" y="369" type="curve" smooth="yes"/>
      <point x="418" y="369"/>
      <point x="427" y="364"/>
      <point x="427" y="334" type="curve" smooth="yes"/>
      <point x="427" y="324"/>
      <point x="426" y="309"/>
      <point x="418" y="275" type="curve" smooth="yes"/>
      <point x="371" y="72" type="line" smooth="yes"/>
      <point x="362" y="34"/>
      <point x="361" y="22"/>
      <point x="361" y="17" type="curve" smooth="yes"/>
      <point x="361" y="1"/>
      <point x="370" y="-10"/>
      <point x="425" y="-10" type="curve" smooth="yes"/>
      <point x="468" y="-10"/>
      <point x="478" y="-3"/>
      <point x="495" y="72" type="curve" smooth="yes"/>
      <point x="537" y="258" type="line"/>
      <point x="590" y="324"/>
      <point x="633" y="369"/>
      <point x="672" y="369" type="curve" smooth="yes"/>
      <point x="685" y="369"/>
      <point x="699" y="364"/>
      <point x="699" y="328" type="curve" smooth="yes"/>
      <point x="699" y="319"/>
      <point x="698" y="309"/>
      <point x="690" y="275" type="curve" smooth="yes"/>
      <point x="653" y="115" type="line"/>
      <point x="777" y="124" type="line"/>
      <point x="815" y="283" type="line" smooth="yes"/>
      <point x="827" y="334"/>
      <point x="828" y="341"/>
      <point x="828" y="350" type="curve" smooth="yes"/>
      <point x="828" y="406"/>
      <point x="796" y="439"/>
      <point x="735" y="439" type="curve" smooth="yes"/>
      <point x="692" y="439"/>
      <point x="628" y="422"/>
      <point x="555" y="341" type="curve"/>
      <point x="556" y="347"/>
      <point x="556" y="352"/>
      <point x="556" y="353" type="curve"/>
      <point x="556" y="412"/>
      <point x="516" y="439"/>
      <point x="462" y="439" type="curve" smooth="yes"/>
      <point x="415" y="439"/>
      <point x="369" y="418"/>
      <point x="277" y="310" type="curve"/>
      <point x="155" y="310" type="line"/>
      <point x="102" y="72" type="line" smooth="yes"/>
      <point x="94" y="38"/>
      <point x="90" y="21"/>
    </contour>
    <contour>
      <point x="425" y="-144" type="curve" smooth="yes"/>
      <point x="425" y="-191"/>
      <point x="476" y="-207"/>
      <point x="535" y="-207" type="curve" smooth="yes"/>
      <point x="653" y="-207"/>
      <point x="719" y="-116"/>
      <point x="770" y="95" type="curve" smooth="yes"/>
      <point x="777" y="124" type="line"/>
      <point x="653" y="115" type="line"/>
      <point x="644" y="76" type="line" smooth="yes"/>
      <point x="634" y="28"/>
      <point x="605" y="-172"/>
      <point x="554" y="-172" type="curve" smooth="yes"/>
      <point x="517" y="-172"/>
      <point x="530" y="-99"/>
      <point x="464" y="-99" type="curve" smooth="yes"/>
      <point x="446" y="-99"/>
      <point x="425" y="-114"/>
    </contour>
  </outline>
</glyph>
<glyph name="uni0273" format="2">
  <advance width="540"/>
  <unicode hex="0273"/>
  <outline>
    <contour>
      <point x="382" y="32" type="line" smooth="yes"/>
      <point x="348" y="-118"/>
      <point x="402" y="-207"/>
      <point x="528" y="-207" type="curve" smooth="yes"/>
      <point x="570" y="-207"/>
      <point x="609" y="-184"/>
      <point x="609" y="-152" type="curve" smooth="yes"/>
      <point x="609" y="-131"/>
      <point x="598" y="-99"/>
      <point x="560" y="-99" type="curve" smooth="yes"/>
      <point x="526" y="-99"/>
      <point x="497" y="-172"/>
      <point x="483" y="-172" type="curve" smooth="yes"/>
      <point x="474" y="-172"/>
      <point x="470" y="-160"/>
      <point x="470" y="-117" type="curve" smooth="yes"/>
      <point x="470" y="-96"/>
      <point x="497" y="11"/>
      <point x="505" y="42" type="curve" smooth="yes"/>
      <point x="513" y="72" type="line"/>
      <point x="391" y="72" type="line"/>
    </contour>
    <contour>
      <point x="155" y="310" type="line"/>
      <point x="102" y="72" type="line"/>
      <point x="224" y="72" type="line"/>
      <point x="262" y="228" type="line"/>
      <point x="325" y="310"/>
      <point x="376" y="369"/>
      <point x="412" y="369" type="curve" smooth="yes"/>
      <point x="437" y="369"/>
      <point x="447" y="360"/>
      <point x="447" y="333" type="curve" smooth="yes"/>
      <point x="447" y="319"/>
      <point x="446" y="309"/>
      <point x="438" y="275" type="curve" smooth="yes"/>
      <point x="391" y="72" type="line"/>
      <point x="513" y="72" type="line"/>
      <point x="563" y="283" type="line" smooth="yes"/>
      <point x="571" y="318"/>
      <point x="576" y="341"/>
      <point x="576" y="359" type="curve" smooth="yes"/>
      <point x="576" y="412"/>
      <point x="536" y="439"/>
      <point x="487" y="439" type="curve" smooth="yes"/>
      <point x="423" y="439"/>
      <point x="370" y="418"/>
      <point x="278" y="310" type="curve"/>
    </contour>
    <contour>
      <point x="155" y="310" type="line"/>
      <point x="276" y="310" type="line"/>
      <point x="278" y="319" type="line" smooth="yes"/>
      <point x="287" y="359"/>
      <point x="299" y="401"/>
      <point x="299" y="418" type="curve" smooth="yes"/>
      <point x="299" y="430"/>
      <point x="293" y="436" name=".hr01"/>
      <point x="282" y="436" type="curve"/>
      <point x="251" y="431"/>
      <point x="154" y="423"/>
      <point x="106" y="423" type="curve"/>
      <point x="99" y="415"/>
      <point x="98" y="393"/>
      <point x="104" y="384" type="curve"/>
      <point x="144" y="381" type="line" smooth="yes"/>
      <point x="156" y="380"/>
      <point x="163" y="371"/>
      <point x="163" y="359" type="curve" smooth="yes"/>
      <point x="163" y="352"/>
      <point x="162" y="342"/>
      <point x="160" y="332" type="curve" smooth="yes"/>
    </contour>
    <contour>
      <point x="91" y="13" type="curve" smooth="yes"/>
      <point x="91" y="-4"/>
      <point x="110" y="-10"/>
      <point x="153" y="-10" type="curve" smooth="yes"/>
      <point x="200" y="-10"/>
      <point x="209" y="11"/>
      <point x="218" y="48" type="curve" smooth="yes"/>
      <point x="224" y="72" type="line"/>
      <point x="102" y="72" type="line"/>
      <point x="96" y="45" type="line" smooth="yes"/>
      <point x="93" y="30"/>
      <point x="91" y="18"/>
    </contour>
  </outline>
  <guideline angle="0" x="0" y="72"/>
  <guideline angle="76.5588" x="433" y="124"/>
  <guideline angle="256.64" x="392" y="275"/>
</glyph>
<glyph name="dotaccent" format="2">
  <advance width="193"/>
  <unicode hex="02D9"/>
  <outline>
    <contour>
      <point x="164" y="599" type="curve" smooth="yes"/>
      <point x="164" y="569"/>
      <point x="189" y="544"/>
      <point x="219" y="544" type="curve" smooth="yes"/>
      <point x="250" y="544"/>
      <point x="274" y="569"/>
      <point x="274" y="599" type="curve" smooth="yes"/>
      <point x="274" y="630"/>
      <point x="250" y="654"/>
      <point x="219" y="654" type="curve" smooth="yes"/>
      <point x="189" y="654"/>
      <point x="164" y="630"/>
    </contour>
  </outline>
</glyph>
<glyph name="tildecomb" format="2">
  <unicode hex="0303"/>
  <anchor x="-137" y="500" name="_t.uni0302"/>
  <outline>
    <contour>
      <point x="-71" y="570" type="curve" smooth="yes"/>
      <point x="-82" y="570"/>
      <point x="-108" y="570"/>
      <point x="-124" y="584" type="curve" smooth="yes"/>
      <point x="-142" y="600"/>
      <point x="-163" y="609"/>
      <point x="-194" y="609" type="curve" smooth="yes"/>
      <point x="-229" y="609"/>
      <point x="-267" y="567"/>
      <point x="-291" y="516" type="curve"/>
      <point x="-293" y="502"/>
      <point x="-279" y="498"/>
      <point x="-267" y="498" type="curve"/>
      <point x="-251" y="536"/>
      <point x="-234" y="538"/>
      <point x="-212" y="538" type="curve" smooth="yes"/>
      <point x="-194" y="538"/>
      <point x="-175" y="535"/>
      <point x="-157" y="521" type="curve" smooth="yes"/>
      <point x="-139" y="507"/>
      <point x="-118" y="500"/>
      <point x="-95" y="500" type="curve" smooth="yes"/>
      <point x="-58" y="500"/>
      <point x="-16" y="535"/>
      <point x="9" y="593" type="curve"/>
      <point x="11" y="605"/>
      <point x="-2" y="613"/>
      <point x="-16" y="613" type="curve"/>
      <point x="-35" y="577"/>
      <point x="-57" y="570"/>
    </contour>
  </outline>
</glyph>
<glyph name="uni0304" format="2">
  <unicode hex="0304"/>
  <anchor x="-204" y="500" name="_t.uni0302"/>
  <anchor x="-199" y="500" name="_top"/>
  <outline>
    <contour>
      <point x="-71" y="500" type="line" smooth="yes"/>
      <point x="-57" y="500"/>
      <point x="-43" y="520"/>
      <point x="-41" y="533" type="curve"/>
      <point x="-40" y="541"/>
      <point x="-42" y="550"/>
      <point x="-52" y="550" type="curve" smooth="yes"/>
      <point x="-328" y="550" type="line" smooth="yes"/>
      <point x="-341" y="550"/>
      <point x="-356" y="530"/>
      <point x="-358" y="518" type="curve"/>
      <point x="-359" y="509"/>
      <point x="-356" y="500"/>
      <point x="-345" y="500" type="curve" smooth="yes"/>
    </contour>
  </outline>
</glyph>
<glyph name="uni0305" format="2">
  <unicode hex="0305"/>
  <outline>
    <contour>
      <point x="-30" y="500" type="line" smooth="yes"/>
      <point x="-17" y="500"/>
      <point x="-3" y="519"/>
      <point x="-1" y="531" type="curve" smooth="yes"/>
      <point x="0" y="538"/>
      <point x="-3" y="546"/>
      <point x="-14" y="546" type="curve" smooth="yes"/>
      <point x="-326" y="546" type="line" smooth="yes"/>
      <point x="-338" y="546"/>
      <point x="-351" y="528"/>
      <point x="-353" y="516" type="curve"/>
      <point x="-354" y="508"/>
      <point x="-352" y="500"/>
      <point x="-342" y="500" type="curve" smooth="yes"/>
    </contour>
  </outline>
</glyph>
<glyph name="uni0307" format="2">
  <unicode hex="0307"/>
  <anchor x="-37" y="500" name="_t.uni0302"/>
  <anchor x="46" y="540" name="_t.acutedot"/>
  <outline>
    <contour>
      <point x="-86" y="550" type="curve" smooth="yes"/>
      <point x="-86" y="521"/>
      <point x="-65" y="500"/>
      <point x="-33" y="500" type="curve" smooth="yes"/>
      <point x="9" y="500"/>
      <point x="46" y="537"/>
      <point x="46" y="578" type="curve" smooth="yes"/>
      <point x="46" y="608"/>
      <point x="26" y="628"/>
      <point x="-5" y="628" type="curve" smooth="yes"/>
      <point x="-46" y="628"/>
      <point x="-86" y="591"/>
    </contour>
  </outline>
  <guideline angle="90" x="-55" y="0"/>
  <guideline angle="0" x="0" y="604"/>
</glyph>
<glyph name="uni0308" format="2">
  <unicode hex="0308"/>
  <anchor x="-81" y="520" name="_t.uni0302"/>
  <anchor x="-81" y="640" name="top"/>
  <outline>
    <contour>
      <point x="-215" y="576" type="curve" smooth="yes"/>
      <point x="-215" y="546"/>
      <point x="-190" y="521"/>
      <point x="-160" y="521" type="curve" smooth="yes"/>
      <point x="-129" y="521"/>
      <point x="-105" y="546"/>
      <point x="-105" y="576" type="curve" smooth="yes"/>
      <point x="-105" y="607"/>
      <point x="-129" y="631"/>
      <point x="-160" y="631" type="curve" smooth="yes"/>
      <point x="-190" y="631"/>
      <point x="-215" y="607"/>
    </contour>
    <contour>
      <point x="-37" y="576" type="curve" smooth="yes"/>
      <point x="-37" y="546"/>
      <point x="-12" y="521"/>
      <point x="18" y="521" type="curve" smooth="yes"/>
      <point x="49" y="521"/>
      <point x="73" y="546"/>
      <point x="73" y="576" type="curve" smooth="yes"/>
      <point x="73" y="607"/>
      <point x="49" y="631"/>
      <point x="18" y="631" type="curve" smooth="yes"/>
      <point x="-12" y="631"/>
      <point x="-37" y="607"/>
    </contour>
  </outline>
  <guideline angle="90" x="-81" y="0"/>
</glyph>
<glyph name="uni0312" format="2">
  <unicode hex="0312"/>
  <anchor x="13" y="605" name="_t.uni0302"/>
  <outline>
    <contour>
      <point x="0.615" y="468" type="curve" smooth="yes"/>
      <point x="28.827" y="468"/>
      <point x="58.44" y="489.706"/>
      <point x="59.528" y="512.922" type="curve" smooth="yes"/>
      <point x="59.719" y="517" type="line"/>
      <point x="59.719" y="532.647"/>
      <point x="51.012" y="550"/>
      <point x="17" y="550" type="curve" smooth="yes"/>
      <point x="11" y="550"/>
      <point x="6" y="550"/>
      <point x="-3.016" y="548.873" type="curve"/>
      <point x="-6.931" y="548.571" type="line"/>
      <point x="-9.395" y="548.644"/>
      <point x="-10.793" y="549.615"/>
      <point x="-10.792" y="553.044" type="curve" smooth="yes"/>
      <point x="-10.783" y="597.071"/>
      <point x="45.634" y="622.807"/>
      <point x="81" y="630" type="curve"/>
      <point x="82" y="633.5"/>
      <point x="82.75" y="637.5"/>
      <point x="82.75" y="641.125" type="curve" smooth="yes"/>
      <point x="82.75" y="644.75"/>
      <point x="82" y="648"/>
      <point x="80" y="650" type="curve"/>
      <point x="17.25" y="642.294"/>
      <point x="-49.457" y="592.135"/>
      <point x="-49.206" y="525.787" type="curve" smooth="yes"/>
      <point x="-49.083" y="493.368"/>
      <point x="-33.015" y="468"/>
    </contour>
  </outline>
</glyph>
<glyph name="uni0313" format="2">
  <unicode hex="0313"/>
  <anchor x="-22.498" y="510" name="_t.uni0302"/>
  <anchor x="107" y="696" name="_t.gr"/>
  <outline>
    <contour>
      <point x="59.352" y="696" type="curve" smooth="yes"/>
      <point x="22.785" y="696"/>
      <point x="-2.217" y="674.454"/>
      <point x="-2.217" y="643" type="curve" smooth="yes"/>
      <point x="-2.217" y="627.353"/>
      <point x="6.49" y="610"/>
      <point x="40.502" y="610" type="curve" smooth="yes"/>
      <point x="46.502" y="610"/>
      <point x="51.502" y="610"/>
      <point x="54.502" y="611" type="curve"/>
      <point x="67.502" y="612"/>
      <point x="69.274" y="612.044"/>
      <point x="66.502" y="597" type="curve" smooth="yes"/>
      <point x="62.273" y="574.041"/>
      <point x="35.502" y="542"/>
      <point x="-23.498" y="530" type="curve"/>
      <point x="-25.498" y="523"/>
      <point x="-26.498" y="514"/>
      <point x="-22.498" y="510" type="curve"/>
      <point x="40.102" y="518.026"/>
      <point x="107.165" y="567.708"/>
      <point x="107.165" y="635.984" type="curve" smooth="yes"/>
      <point x="107.165" y="665.766"/>
      <point x="92.192" y="696"/>
    </contour>
  </outline>
</glyph>
<glyph name="uni0314" format="2">
  <unicode hex="0314"/>
  <anchor x="8" y="510" name="_t.uni0302"/>
  <anchor x="107" y="696" name="_t.gr"/>
  <outline>
    <contour>
      <point x="66.385" y="696" type="curve" smooth="yes"/>
      <point x="18.779" y="696"/>
      <point x="-15.689" y="642.923"/>
      <point x="-15.689" y="596.73" type="curve" smooth="yes"/>
      <point x="-15.689" y="546.72"/>
      <point x="22.214" y="516.582"/>
      <point x="70.92" y="510" type="curve"/>
      <point x="74.92" y="514"/>
      <point x="77.92" y="523"/>
      <point x="79.92" y="530" type="curve"/>
      <point x="31.959" y="540.464"/>
      <point x="15.935" y="566.137"/>
      <point x="15.939" y="590.556" type="curve" smooth="yes"/>
      <point x="15.94" y="596.967"/>
      <point x="16.395" y="612.146"/>
      <point x="24.855" y="611.444" type="curve" smooth="yes"/>
      <point x="29.346" y="611.072" type="line" smooth="yes"/>
      <point x="78.493" y="606.994"/>
      <point x="108.141" y="625.253"/>
      <point x="108.129" y="659.591" type="curve" smooth="yes"/>
      <point x="108.123" y="675.052"/>
      <point x="95.45" y="696"/>
    </contour>
  </outline>
</glyph>
<glyph name="uni0316" format="2">
  <unicode hex="0316"/>
  <anchor x="-292" y="-60" name="_b.minus-60"/>
  <outline>
    <contour>
      <point x="-363" y="-101" type="curve"/>
      <point x="-365" y="-111" type="line"/>
      <point x="-243" y="-189" type="line" smooth="yes"/>
      <point x="-229" y="-198"/>
      <point x="-222" y="-201"/>
      <point x="-216" y="-201" type="curve" smooth="yes"/>
      <point x="-209" y="-201"/>
      <point x="-200" y="-193"/>
      <point x="-199" y="-187" type="curve"/>
      <point x="-197" y="-180"/>
      <point x="-199" y="-174"/>
      <point x="-205" y="-165" type="curve"/>
      <point x="-282" y="-62" type="line"/>
      <point x="-283" y="-61"/>
      <point x="-288" y="-60"/>
      <point x="-292" y="-60" type="curve" smooth="yes"/>
      <point x="-321" y="-60"/>
      <point x="-348" y="-83"/>
    </contour>
  </outline>
</glyph>
<glyph name="uni031C" format="2">
  <unicode hex="031C"/>
  <anchor x="-208" y="-60" name="_b.minus-60"/>
  <outline>
    <contour>
      <point x="-307" y="-157" type="curve" smooth="yes"/>
      <point x="-301" y="-128"/>
      <point x="-280" y="-101"/>
      <point x="-236" y="-101" type="curve" smooth="yes"/>
      <point x="-234" y="-101"/>
      <point x="-231" y="-102"/>
      <point x="-228" y="-102" type="curve"/>
      <point x="-218" y="-61" type="line"/>
      <point x="-221" y="-60"/>
      <point x="-225" y="-60"/>
      <point x="-229" y="-60" type="curve" smooth="yes"/>
      <point x="-284" y="-60"/>
      <point x="-336" y="-102"/>
      <point x="-347" y="-157" type="curve" smooth="yes"/>
      <point x="-358" y="-210"/>
      <point x="-326" y="-252"/>
      <point x="-273" y="-252" type="curve" smooth="yes"/>
      <point x="-268" y="-252"/>
      <point x="-263" y="-252"/>
      <point x="-257" y="-251" type="curve"/>
      <point x="-248" y="-212" type="line"/>
      <point x="-250" y="-212"/>
      <point x="-254" y="-213"/>
      <point x="-257" y="-213" type="curve" smooth="yes"/>
      <point x="-302" y="-213"/>
      <point x="-314" y="-188"/>
    </contour>
  </outline>
</glyph>
<glyph name="uni0325" format="2">
  <unicode hex="0325"/>
  <anchor x="-221" y="-60" name="_b.minus-60"/>
  <outline>
    <contour>
      <point x="-306" y="-143" type="curve" smooth="yes"/>
      <point x="-306" y="-190"/>
      <point x="-267" y="-227"/>
      <point x="-221" y="-227" type="curve" smooth="yes"/>
      <point x="-173" y="-227"/>
      <point x="-135" y="-188"/>
      <point x="-135" y="-143" type="curve" smooth="yes"/>
      <point x="-135" y="-97"/>
      <point x="-175" y="-60"/>
      <point x="-221" y="-60" type="curve" smooth="yes"/>
      <point x="-268" y="-60"/>
      <point x="-306" y="-98"/>
    </contour>
    <contour>
      <point x="-275" y="-143" type="curve" smooth="yes"/>
      <point x="-275" y="-114"/>
      <point x="-252" y="-87"/>
      <point x="-221" y="-87" type="curve" smooth="yes"/>
      <point x="-192" y="-87"/>
      <point x="-167" y="-112"/>
      <point x="-167" y="-143" type="curve" smooth="yes"/>
      <point x="-167" y="-172"/>
      <point x="-190" y="-200"/>
      <point x="-221" y="-200" type="curve" smooth="yes"/>
      <point x="-252" y="-200"/>
      <point x="-275" y="-172"/>
    </contour>
  </outline>
</glyph>
<glyph name="uni0326" format="2">
  <unicode hex="0326"/>
  <anchor x="-241" y="-60" name="_b.minus-60"/>
  <outline>
    <contour>
      <point x="-241" y="-60" type="curve" smooth="yes"/>
      <point x="-276" y="-60"/>
      <point x="-298" y="-80"/>
      <point x="-298" y="-110" type="curve" smooth="yes"/>
      <point x="-298" y="-156"/>
      <point x="-245" y="-135"/>
      <point x="-245" y="-162" type="curve" smooth="yes"/>
      <point x="-245" y="-192"/>
      <point x="-294" y="-213"/>
      <point x="-317" y="-219" type="curve"/>
      <point x="-327" y="-238"/>
      <point x="-316" y="-246"/>
      <point x="-309" y="-250" type="curve"/>
      <point x="-246" y="-250"/>
      <point x="-179" y="-183"/>
      <point x="-179" y="-120" type="curve" smooth="yes"/>
      <point x="-179" y="-72"/>
      <point x="-213" y="-60"/>
    </contour>
  </outline>
</glyph>
<glyph name="uni032E" format="2">
  <unicode hex="032E"/>
  <anchor x="-275" y="-60" name="_b.minus-60"/>
  <outline>
    <contour>
      <point x="-377" y="-60" type="curve"/>
      <point x="-406" y="-72" type="line"/>
      <point x="-410" y="-157"/>
      <point x="-369" y="-207"/>
      <point x="-299" y="-207" type="curve" smooth="yes"/>
      <point x="-240" y="-207"/>
      <point x="-166" y="-158"/>
      <point x="-136" y="-72" type="curve"/>
      <point x="-161" y="-60" type="line"/>
      <point x="-183" y="-118"/>
      <point x="-235" y="-150"/>
      <point x="-287" y="-150" type="curve" smooth="yes"/>
      <point x="-341" y="-150"/>
      <point x="-377" y="-113"/>
    </contour>
  </outline>
</glyph>
<glyph name="uni032F" format="2">
  <unicode hex="032F"/>
  <anchor x="-267" y="-60" name="_b.minus-60"/>
  <outline>
    <contour>
      <point x="-189" y="-207" type="curve"/>
      <point x="-160" y="-195" type="line"/>
      <point x="-160" y="-110"/>
      <point x="-197" y="-60"/>
      <point x="-267" y="-60" type="curve" smooth="yes"/>
      <point x="-326" y="-60"/>
      <point x="-400" y="-109"/>
      <point x="-429" y="-195" type="curve"/>
      <point x="-405" y="-207" type="line"/>
      <point x="-383" y="-149"/>
      <point x="-331" y="-117"/>
      <point x="-279" y="-117" type="curve" smooth="yes"/>
      <point x="-225" y="-117"/>
      <point x="-189" y="-154"/>
    </contour>
  </outline>
</glyph>
<glyph name="uni0342" format="2">
  <unicode hex="0342"/>
  <anchor x="-227" y="510" name="_t.uni0302"/>
  <outline>
    <contour>
      <point x="-152.034" y="580" type="curve" smooth="yes"/>
      <point x="-163.034" y="580"/>
      <point x="-189.092" y="579.934"/>
      <point x="-205.034" y="594" type="curve" smooth="yes"/>
      <point x="-223.093" y="609.934"/>
      <point x="-244.034" y="619"/>
      <point x="-275.034" y="619" type="curve" smooth="yes"/>
      <point x="-310.034" y="619"/>
      <point x="-348.034" y="577"/>
      <point x="-372.034" y="526" type="curve"/>
      <point x="-374.034" y="512"/>
      <point x="-360.034" y="508"/>
      <point x="-348.034" y="508" type="curve"/>
      <point x="-332.034" y="546"/>
      <point x="-315.034" y="548"/>
      <point x="-293.034" y="548" type="curve" smooth="yes"/>
      <point x="-275.034" y="548"/>
      <point x="-255.561" y="544.632"/>
      <point x="-238.034" y="531" type="curve" smooth="yes"/>
      <point x="-219.539" y="516.615"/>
      <point x="-199.034" y="510"/>
      <point x="-176.034" y="510" type="curve" smooth="yes"/>
      <point x="-139.034" y="510"/>
      <point x="-97.034" y="545"/>
      <point x="-72.034" y="603" type="curve"/>
      <point x="-70.034" y="615"/>
      <point x="-83.034" y="623"/>
      <point x="-97.034" y="623" type="curve"/>
      <point x="-116.034" y="587"/>
      <point x="-138.034" y="580"/>
    </contour>
  </outline>
</glyph>
<glyph name="tonos" format="2">
  <advance width="219"/>
  <unicode hex="0384"/>
  <outline>
    <contour>
      <point x="252" y="708" type="curve" smooth="yes"/>
      <point x="236" y="708"/>
      <point x="218" y="701"/>
      <point x="211" y="680" type="curve" smooth="yes"/>
      <point x="199.292" y="644.389"/>
      <point x="169.987" y="555.253"/>
      <point x="163" y="534" type="curve"/>
      <point x="162" y="530"/>
      <point x="161" y="526"/>
      <point x="161" y="522" type="curve" smooth="yes"/>
      <point x="161" y="508"/>
      <point x="173" y="500"/>
      <point x="185" y="500" type="curve" smooth="yes"/>
      <point x="192" y="500"/>
      <point x="198" y="504"/>
      <point x="201" y="508" type="curve"/>
      <point x="216.252" y="526.983"/>
      <point x="278.654" y="604.655"/>
      <point x="295" y="625" type="curve"/>
      <point x="303" y="634"/>
      <point x="310" y="649"/>
      <point x="310" y="658" type="curve" smooth="yes"/>
      <point x="310" y="694"/>
      <point x="277" y="708"/>
    </contour>
  </outline>
</glyph>
<glyph name="Alphatonos" format="2">
  <advance width="722"/>
  <unicode hex="0386"/>
  <outline>
    <component base="A" xOffset="12"/>
    <contour>
      <point x="200" y="725" type="curve" smooth="yes"/>
      <point x="189" y="725"/>
      <point x="176" y="719"/>
      <point x="172" y="708" type="curve" smooth="yes"/>
      <point x="125" y="573" type="line" smooth="yes"/>
      <point x="124" y="570"/>
      <point x="123" y="568"/>
      <point x="122" y="565" type="curve"/>
      <point x="122" y="564"/>
      <point x="121" y="562"/>
      <point x="121" y="560" type="curve" smooth="yes"/>
      <point x="121" y="558"/>
      <point x="121" y="557"/>
      <point x="121" y="556" type="curve"/>
      <point x="121" y="556" type="line"/>
      <point x="121" y="549"/>
      <point x="139" y="542"/>
      <point x="147" y="542" type="curve" smooth="yes"/>
      <point x="151" y="542"/>
      <point x="155" y="546"/>
      <point x="158" y="550" type="curve"/>
      <point x="256" y="662" type="line"/>
      <point x="260" y="667"/>
      <point x="261" y="672"/>
      <point x="261" y="677" type="curve" smooth="yes"/>
      <point x="261" y="681"/>
      <point x="260" y="685"/>
      <point x="257" y="688" type="curve"/>
      <point x="251" y="698"/>
      <point x="239" y="709"/>
      <point x="227" y="716" type="curve"/>
      <point x="217" y="721"/>
      <point x="207" y="725"/>
    </contour>
  </outline>
</glyph>
<glyph name="uni03A9" format="2">
  <advance width="717"/>
  <unicode hex="03A9"/>
  <anchor x="188" y="724" name="t.gr"/>
  <anchor x="356" y="-60" name="b.minus-60"/>
  <outline>
    <contour>
      <point x="180.42" y="81" type="line" smooth="yes"/>
      <point x="124.001" y="81"/>
      <point x="112.871" y="130.41"/>
      <point x="107" y="176" type="curve"/>
      <point x="90.303" y="176.075"/>
      <point x="76.147" y="172.777"/>
      <point x="61" y="166" type="curve"/>
      <point x="66.914" y="111.221"/>
      <point x="69.679" y="54.422"/>
      <point x="70" y="0" type="curve"/>
      <point x="293.905" y="0" type="line" smooth="yes"/>
      <point x="303.904" y="0"/>
      <point x="311.379" y="5.88"/>
      <point x="312.85" y="16" type="curve" smooth="yes"/>
      <point x="333.79" y="160" type="line"/>
      <point x="287.825" y="197.333"/>
      <point x="261" y="233.919"/>
      <point x="261" y="295" type="curve" smooth="yes"/>
      <point x="261" y="429.791"/>
      <point x="315.565" y="616"/>
      <point x="478.372" y="616" type="curve" smooth="yes"/>
      <point x="569.27" y="616"/>
      <point x="607" y="566.61"/>
      <point x="607" y="479" type="curve" smooth="yes"/>
      <point x="607" y="344.468"/>
      <point x="576.167" y="229.128"/>
      <point x="451.45" y="160" type="curve"/>
      <point x="410.613" y="10.221" type="line"/>
      <point x="410.613" y="2.282"/>
      <point x="417.914" y="0"/>
      <point x="424.527" y="0" type="curve" smooth="yes"/>
      <point x="643" y="0" type="line"/>
      <point x="663.929" y="53.814"/>
      <point x="687.8" y="108.5"/>
      <point x="716" y="166" type="curve"/>
      <point x="702.81" y="173.588"/>
      <point x="690.227" y="176.099"/>
      <point x="675" y="176" type="curve"/>
      <point x="652.818" y="131.552"/>
      <point x="619.666" y="81"/>
      <point x="564.124" y="81" type="curve" smooth="yes"/>
      <point x="473.386" y="81" type="line"/>
      <point x="488.343" y="134" type="line"/>
      <point x="622.86" y="177.343"/>
      <point x="746" y="283.408"/>
      <point x="746" y="435" type="curve" smooth="yes"/>
      <point x="746" y="584.947"/>
      <point x="624.035" y="658"/>
      <point x="486.349" y="658" type="curve" smooth="yes"/>
      <point x="311.355" y="658"/>
      <point x="122" y="527.821"/>
      <point x="122" y="339" type="curve" smooth="yes"/>
      <point x="122" y="239.503"/>
      <point x="194.745" y="168.47"/>
      <point x="282.937" y="134" type="curve"/>
      <point x="274.96" y="81" type="line"/>
    </contour>
  </outline>
</glyph>
<glyph name="alpha" format="2">
  <advance width="590"/>
  <unicode hex="03B1"/>
  <anchor x="350" y="520" name="t.uni0302"/>
  <outline>
    <contour>
      <point x="345" y="444" type="curve" smooth="yes"/>
      <point x="186.456" y="444"/>
      <point x="69.7544" y="282.569"/>
      <point x="69.7544" y="134.325" type="curve" smooth="yes"/>
      <point x="69.7544" y="38.1303"/>
      <point x="130.13" y="-3.49777"/>
      <point x="220" y="-9" type="curve"/>
      <point x="227" y="-10"/>
      <point x="234" y="-10"/>
      <point x="241" y="-10" type="curve" smooth="yes"/>
      <point x="299" y="-10"/>
      <point x="345" y="0"/>
      <point x="417" y="75" type="curve"/>
      <point x="421.199" y="41.4048"/>
      <point x="427.834" y="-7.60326"/>
      <point x="471.641" y="-7.60326" type="curve" smooth="yes"/>
      <point x="516.959" y="-7.60326"/>
      <point x="557.369" y="36.2464"/>
      <point x="582" y="70" type="curve"/>
      <point x="578" y="82"/>
      <point x="571" y="88"/>
      <point x="563" y="90" type="curve"/>
      <point x="542" y="68"/>
      <point x="517" y="64"/>
      <point x="501" y="64" type="curve" smooth="yes"/>
      <point x="477.796" y="64"/>
      <point x="466" y="111.063"/>
      <point x="466" y="131" type="curve"/>
      <point x="673" y="443" type="line" name=".hr01"/>
      <point x="653" y="441"/>
      <point x="630.033" y="438"/>
      <point x="615" y="438" type="curve" smooth="yes"/>
      <point x="602" y="438" type="line" smooth="yes"/>
      <point x="591" y="438"/>
      <point x="580" y="439"/>
      <point x="552" y="444" type="curve" name=".hr02"/>
      <point x="465" y="312" type="line"/>
      <point x="463" y="334" type="line" smooth="yes"/>
      <point x="456.631" y="404.06"/>
      <point x="430" y="444"/>
    </contour>
    <contour>
      <point x="405" y="217" type="line"/>
      <point x="383" y="180" type="line"/>
      <point x="365.231" y="144.462"/>
      <point x="302.143" y="32"/>
      <point x="257" y="32" type="curve" smooth="yes"/>
      <point x="215" y="32"/>
      <point x="198" y="75"/>
      <point x="198" y="127" type="curve" smooth="yes"/>
      <point x="198" y="201.161"/>
      <point x="240.646" y="403.25"/>
      <point x="331.333" y="403.004" type="curve" smooth="yes"/>
      <point x="396.448" y="402.827"/>
      <point x="405" y="295.27"/>
      <point x="405" y="251" type="curve" smooth="yes"/>
    </contour>
  </outline>
</glyph>
<glyph name="gamma" format="2">
  <advance width="568"/>
  <unicode hex="03B3"/>
  <outline>
    <contour>
      <point x="154" y="-194" type="curve" smooth="yes"/>
      <point x="154" y="-218"/>
      <point x="166" y="-238"/>
      <point x="206" y="-238" type="curve" smooth="yes"/>
      <point x="308" y="-238"/>
      <point x="359" y="-85"/>
      <point x="366" y="5" type="curve" smooth="yes"/>
      <point x="368" y="31" type="line"/>
      <point x="435" y="98"/>
      <point x="585" y="277"/>
      <point x="585" y="383" type="curve" smooth="yes"/>
      <point x="585" y="418"/>
      <point x="562" y="444"/>
      <point x="527" y="444" type="curve" smooth="yes"/>
      <point x="492" y="444"/>
      <point x="463" y="426"/>
      <point x="463" y="388" type="curve" smooth="yes"/>
      <point x="463" y="338"/>
      <point x="497" y="344"/>
      <point x="497" y="306" type="curve" smooth="yes"/>
      <point x="497" y="256"/>
      <point x="400" y="123"/>
      <point x="371" y="86" type="curve"/>
      <point x="381" y="286"/>
      <point x="324" y="444"/>
      <point x="242" y="444" type="curve" smooth="yes"/>
      <point x="171" y="444"/>
      <point x="113" y="381"/>
      <point x="87" y="330" type="curve"/>
      <point x="94" y="320"/>
      <point x="103" y="315"/>
      <point x="115" y="315" type="curve"/>
      <point x="139" y="354"/>
      <point x="182" y="355"/>
      <point x="190" y="355" type="curve" smooth="yes"/>
      <point x="205" y="355"/>
      <point x="216" y="335"/>
      <point x="221" y="321" type="curve" smooth="yes"/>
      <point x="251" y="238"/>
      <point x="270" y="156"/>
      <point x="270" y="12" type="curve"/>
      <point x="248" y="-8" type="line" smooth="yes"/>
      <point x="192" y="-58"/>
      <point x="154" y="-137"/>
    </contour>
    <contour>
      <point x="222" y="-171" type="curve" smooth="yes"/>
      <point x="222" y="-127"/>
      <point x="243" y="-82"/>
      <point x="272" y="-29" type="curve"/>
      <point x="272" y="-38" type="line" smooth="yes"/>
      <point x="272" y="-99"/>
      <point x="265" y="-196"/>
      <point x="234" y="-196" type="curve" smooth="yes"/>
      <point x="226" y="-196"/>
      <point x="222" y="-187"/>
    </contour>
  </outline>
</glyph>
<glyph name="omega" format="2">
  <advance width="687"/>
  <unicode hex="03C9"/>
  <anchor x="457" y="500" name="t.uni0302"/>
  <anchor x="324" y="-60" name="b.minus-60"/>
  <outline>
    <contour>
      <point x="697.499" y="248.214" type="curve" smooth="yes"/>
      <point x="697.499" y="339.501"/>
      <point x="625.451" y="414.294"/>
      <point x="548" y="453" type="curve"/>
      <point x="536.175" y="445.634"/>
      <point x="526.266" y="436.145"/>
      <point x="521" y="423" type="curve"/>
      <point x="555.78" y="380.488"/>
      <point x="574.238" y="329.011"/>
      <point x="574.238" y="274.129" type="curve" smooth="yes"/>
      <point x="574.238" y="212.665"/>
      <point x="537.271" y="32"/>
      <point x="458" y="32" type="curve" smooth="yes"/>
      <point x="412.9" y="32"/>
      <point x="406.102" y="101.62"/>
      <point x="404" y="134" type="curve"/>
      <point x="420.574" y="164.868"/>
      <point x="453.25" y="235.614"/>
      <point x="453.25" y="271.5" type="curve" smooth="yes"/>
      <point x="453.25" y="297.782"/>
      <point x="435.518" y="308"/>
      <point x="411" y="308" type="curve" smooth="yes"/>
      <point x="337.459" y="308"/>
      <point x="335.068" y="184.185"/>
      <point x="341" y="133" type="curve"/>
      <point x="324.348" y="97.581"/>
      <point x="291.586" y="32"/>
      <point x="245" y="32" type="curve" smooth="yes"/>
      <point x="203.195" y="32"/>
      <point x="196.762" y="87.178"/>
      <point x="196.762" y="118.173" type="curve" smooth="yes"/>
      <point x="196.762" y="216.671"/>
      <point x="256.737" y="375.142"/>
      <point x="349" y="423" type="curve"/>
      <point x="349" y="436.145"/>
      <point x="345.233" y="449.636"/>
      <point x="337" y="456" type="curve"/>
      <point x="211.055" y="394.411"/>
      <point x="70.09" y="271.327"/>
      <point x="70.09" y="119.451" type="curve" smooth="yes"/>
      <point x="70.09" y="27.785"/>
      <point x="125.543" y="-10"/>
      <point x="212" y="-10" type="curve" smooth="yes"/>
      <point x="267.307" y="-10"/>
      <point x="314.31" y="10.352"/>
      <point x="350" y="53" type="curve"/>
      <point x="367.903" y="7.686"/>
      <point x="405.235" y="-10"/>
      <point x="452" y="-10" type="curve" smooth="yes"/>
      <point x="588.28" y="-10"/>
      <point x="697.499" y="114.497"/>
    </contour>
  </outline>
</glyph>
<glyph name="uni03D0" format="2">
  <advance width="559"/>
  <unicode hex="03D0"/>
  <outline>
    <contour>
      <point x="99" y="200" type="curve" smooth="yes"/>
      <point x="99" y="78"/>
      <point x="160" y="-13"/>
      <point x="289" y="-13" type="curve" smooth="yes"/>
      <point x="426" y="-13"/>
      <point x="563" y="94"/>
      <point x="563" y="232" type="curve" smooth="yes"/>
      <point x="563" y="347"/>
      <point x="489" y="399"/>
      <point x="376" y="399" type="curve" smooth="yes"/>
      <point x="318" y="399"/>
      <point x="260" y="380"/>
      <point x="211" y="347" type="curve"/>
      <point x="219" y="377"/>
      <point x="224" y="399"/>
      <point x="233" y="418" type="curve"/>
      <point x="344" y="421"/>
      <point x="614" y="464"/>
      <point x="614" y="618" type="curve" smooth="yes"/>
      <point x="614" y="678"/>
      <point x="569" y="698"/>
      <point x="512" y="698" type="curve" smooth="yes"/>
      <point x="244" y="698"/>
      <point x="99" y="445"/>
    </contour>
    <contour>
      <point x="221" y="160" type="curve" smooth="yes"/>
      <point x="221" y="230"/>
      <point x="272" y="355"/>
      <point x="357" y="355" type="curve" smooth="yes"/>
      <point x="414" y="355"/>
      <point x="441" y="311"/>
      <point x="441" y="257" type="curve" smooth="yes"/>
      <point x="441" y="198"/>
      <point x="396" y="28"/>
      <point x="311" y="28" type="curve" smooth="yes"/>
      <point x="243" y="28"/>
      <point x="221" y="101"/>
    </contour>
    <contour>
      <point x="251" y="462" type="curve"/>
      <point x="276" y="517"/>
      <point x="343" y="622"/>
      <point x="466" y="622" type="curve" smooth="yes"/>
      <point x="491" y="622"/>
      <point x="507" y="608"/>
      <point x="507" y="587" type="curve" smooth="yes"/>
      <point x="507" y="508"/>
      <point x="324" y="465"/>
    </contour>
  </outline>
</glyph>
<glyph name="uni0413" format="2">
  <advance width="518"/>
  <unicode hex="0413"/>
  <anchor x="401" y="740" name="t.uni0302"/>
  <outline>
    <contour>
      <point x="117" y="120" type="line"/>
      <point x="251" y="120" type="line"/>
      <point x="335" y="554" type="line" smooth="yes"/>
      <point x="341" y="587"/>
      <point x="358" y="603"/>
      <point x="384" y="603" type="curve" smooth="yes"/>
      <point x="466" y="603" type="line" smooth="yes"/>
      <point x="538" y="603"/>
      <point x="550" y="565"/>
      <point x="558" y="496" type="curve"/>
      <point x="570" y="494"/>
      <point x="590" y="496"/>
      <point x="600" y="501" type="curve"/>
      <point x="603" y="542"/>
      <point x="614" y="633"/>
      <point x="617" y="645" type="curve"/>
      <point x="617" y="647"/>
      <point x="616" y="649"/>
      <point x="613" y="649" type="curve"/>
      <point x="596" y="646"/>
      <point x="589" y="645"/>
      <point x="566" y="645" type="curve" smooth="yes"/>
      <point x="283" y="645" type="line" smooth="yes"/>
      <point x="273" y="645"/>
      <point x="183" y="646"/>
      <point x="135" y="647" type="curve"/>
      <point x="130" y="642"/>
      <point x="127" y="624"/>
      <point x="129" y="613" type="curve"/>
      <point x="182" y="609"/>
      <point x="199" y="598"/>
      <point x="199" y="566" type="curve" smooth="yes"/>
      <point x="199" y="555"/>
      <point x="197" y="540"/>
      <point x="194" y="522" type="curve" smooth="yes"/>
    </contour>
    <contour>
      <point x="13" y="-2" type="curve"/>
      <point x="48" y="-1"/>
      <point x="109" y="0"/>
      <point x="149" y="0" type="curve" smooth="yes"/>
      <point x="161" y="0" type="line" smooth="yes"/>
      <point x="199" y="0"/>
      <point x="278" y="-1"/>
      <point x="316" y="-2" type="curve"/>
      <point x="326" y="3"/>
      <point x="331" y="26"/>
      <point x="323" y="32" type="curve"/>
      <point x="272" y="32"/>
      <point x="247" y="49"/>
      <point x="247" y="90" type="curve" smooth="yes"/>
      <point x="247" y="99"/>
      <point x="249" y="108"/>
      <point x="251" y="120" type="curve"/>
      <point x="117" y="120" type="line"/>
      <point x="105" y="57"/>
      <point x="84" y="32"/>
      <point x="20" y="32" type="curve"/>
      <point x="12" y="28"/>
      <point x="9" y="16"/>
    </contour>
  </outline>
</glyph>
<glyph name="uni042A" format="2">
  <advance width="730"/>
  <unicode hex="042A"/>
  <outline>
    <contour>
      <point x="109" y="468" type="curve"/>
      <point x="133" y="530"/>
      <point x="178" y="605"/>
      <point x="253" y="605" type="curve" smooth="yes"/>
      <point x="302" y="605" type="line" smooth="yes"/>
      <point x="326" y="605"/>
      <point x="335" y="595"/>
      <point x="335" y="576" type="curve" smooth="yes"/>
      <point x="335" y="561"/>
      <point x="331" y="545"/>
      <point x="328" y="530" type="curve" smooth="yes"/>
      <point x="326" y="520" type="line"/>
      <point x="460" y="520" type="line"/>
      <point x="462" y="530" type="line" smooth="yes"/>
      <point x="474" y="591"/>
      <point x="496" y="613" name=".hr01"/>
      <point x="558" y="613" type="curve"/>
      <point x="569" y="619"/>
      <point x="573" y="641"/>
      <point x="565" y="647" type="curve"/>
      <point x="514" y="645" name=".hr02"/>
      <point x="468" y="644"/>
      <point x="419" y="644" type="curve" smooth="yes"/>
      <point x="393" y="644" type="line" smooth="yes"/>
      <point x="305" y="644"/>
      <point x="215" y="645"/>
      <point x="127" y="645" type="curve"/>
      <point x="113" y="583"/>
      <point x="98" y="529"/>
      <point x="78" y="473" type="curve"/>
      <point x="85" y="470"/>
      <point x="99" y="468"/>
    </contour>
    <contour>
      <point x="145" y="-2" type="curve"/>
      <point x="194" y="-2"/>
      <point x="245" y="1"/>
      <point x="294" y="1" type="curve" smooth="yes"/>
      <point x="342" y="1"/>
      <point x="389" y="-2"/>
      <point x="437" y="-2" type="curve" smooth="yes"/>
      <point x="590" y="-2"/>
      <point x="752" y="42"/>
      <point x="752" y="228" type="curve" smooth="yes"/>
      <point x="752" y="367"/>
      <point x="588" y="376"/>
      <point x="487" y="376" type="curve" smooth="yes"/>
      <point x="418" y="376" type="line"/>
      <point x="410" y="334" type="line"/>
      <point x="493" y="334" type="line" smooth="yes"/>
      <point x="575" y="334"/>
      <point x="611" y="292"/>
      <point x="611" y="228" type="curve" smooth="yes"/>
      <point x="611" y="118"/>
      <point x="550" y="40"/>
      <point x="431" y="40" type="curve" smooth="yes"/>
      <point x="411" y="40"/>
      <point x="374" y="43"/>
      <point x="374" y="67" type="curve" smooth="yes"/>
      <point x="374" y="72"/>
      <point x="376" y="85"/>
      <point x="380" y="105" type="curve" smooth="yes"/>
      <point x="460" y="520" type="line"/>
      <point x="326" y="520" type="line"/>
      <point x="249" y="122" type="line" smooth="yes"/>
      <point x="237" y="62"/>
      <point x="223" y="32"/>
      <point x="152" y="32" type="curve"/>
      <point x="141" y="26"/>
      <point x="137" y="3"/>
    </contour>
  </outline>
  <guideline angle="0" x="0" y="530"/>
  <guideline angle="258.911" x="375" y="564"/>
  <guideline angle="78.8994" x="418" y="373"/>
</glyph>
<glyph name="uni0432" format="2">
  <advance width="426"/>
  <unicode hex="0432"/>
  <outline>
    <contour>
      <point x="336" y="439" type="curve" smooth="yes"/>
      <point x="178" y="439"/>
      <point x="66" y="297"/>
      <point x="66" y="146" type="curve" smooth="yes"/>
      <point x="66" y="42"/>
      <point x="121" y="-10"/>
      <point x="234" y="-10" type="curve" smooth="yes"/>
      <point x="337" y="-10"/>
      <point x="415" y="67"/>
      <point x="415" y="158" type="curve" smooth="yes"/>
      <point x="415" y="191"/>
      <point x="401" y="251"/>
      <point x="341" y="254" type="curve"/>
      <point x="438" y="282"/>
      <point x="462" y="331"/>
      <point x="462" y="358" type="curve" smooth="yes"/>
      <point x="462" y="391"/>
      <point x="441" y="439"/>
    </contour>
    <contour>
      <point x="306" y="134" type="curve" smooth="yes"/>
      <point x="306" y="89"/>
      <point x="285" y="32"/>
      <point x="237" y="32" type="curve" smooth="yes"/>
      <point x="199" y="32"/>
      <point x="181" y="65"/>
      <point x="181" y="97" type="curve" smooth="yes"/>
      <point x="181" y="129"/>
      <point x="181" y="169"/>
      <point x="197" y="202" type="curve"/>
      <point x="222" y="216"/>
      <point x="243" y="224"/>
      <point x="262" y="224" type="curve" smooth="yes"/>
      <point x="289" y="224"/>
      <point x="306" y="175"/>
    </contour>
    <contour>
      <point x="347" y="367" type="curve" smooth="yes"/>
      <point x="347" y="308"/>
      <point x="308" y="277"/>
      <point x="206" y="241" type="curve"/>
      <point x="234" y="358"/>
      <point x="269" y="398"/>
      <point x="312" y="398" type="curve" smooth="yes"/>
      <point x="343" y="398"/>
      <point x="347" y="384"/>
    </contour>
  </outline>
</glyph>
<glyph name="uni0447" format="2">
  <advance width="614"/>
  <unicode hex="0447"/>
  <anchor x="395" y="500" name="t.uni0302"/>
  <outline>
    <contour>
      <point x="399" y="106" type="line" smooth="yes"/>
      <point x="394" y="85"/>
      <point x="391" y="64"/>
      <point x="391" y="50" type="curve" smooth="yes"/>
      <point x="391" y="13"/>
      <point x="413" y="-11"/>
      <point x="444" y="-11" type="curve" smooth="yes"/>
      <point x="528" y="-11"/>
      <point x="566" y="9"/>
      <point x="622" y="81" type="curve"/>
      <point x="619" y="90"/>
      <point x="607" y="109"/>
      <point x="593" y="109" type="curve"/>
      <point x="567" y="79"/>
      <point x="533" y="62"/>
      <point x="523" y="62" type="curve" smooth="yes"/>
      <point x="515" y="62"/>
      <point x="512" y="70"/>
      <point x="512" y="77" type="curve" smooth="yes"/>
      <point x="512" y="86"/>
      <point x="516" y="110"/>
      <point x="519" y="123" type="curve" smooth="yes"/>
      <point x="571" y="360" type="line" smooth="yes"/>
      <point x="580" y="401"/>
      <point x="581" y="410"/>
      <point x="581" y="416" type="curve" smooth="yes"/>
      <point x="581" y="430"/>
      <point x="576" y="442"/>
      <point x="528" y="442" type="curve" smooth="yes"/>
      <point x="477" y="442"/>
      <point x="462" y="428"/>
      <point x="449" y="360" type="curve" smooth="yes"/>
      <point x="432" y="270" type="line"/>
      <point x="393" y="228"/>
      <point x="337" y="187"/>
      <point x="301" y="187" type="curve" smooth="yes"/>
      <point x="275" y="187"/>
      <point x="265" y="209"/>
      <point x="265" y="233" type="curve" smooth="yes"/>
      <point x="265" y="244"/>
      <point x="267" y="257"/>
      <point x="270" y="269" type="curve" smooth="yes"/>
      <point x="282" y="317" type="line" smooth="yes"/>
      <point x="288" y="339"/>
      <point x="291" y="366"/>
      <point x="291" y="383" type="curve" smooth="yes"/>
      <point x="291" y="422"/>
      <point x="275" y="442"/>
      <point x="240" y="442" type="curve" smooth="yes"/>
      <point x="170" y="442"/>
      <point x="101" y="409"/>
      <point x="55" y="350" type="curve"/>
      <point x="58" y="341"/>
      <point x="70" y="322"/>
      <point x="84" y="322" type="curve"/>
      <point x="96" y="335"/>
      <point x="134" y="369"/>
      <point x="153" y="369" type="curve" smooth="yes"/>
      <point x="164" y="369"/>
      <point x="165" y="356"/>
      <point x="165" y="349" type="curve" smooth="yes"/>
      <point x="165" y="337"/>
      <point x="162" y="322"/>
      <point x="158" y="308" type="curve" smooth="yes"/>
      <point x="145" y="261" type="line" smooth="yes"/>
      <point x="138" y="237"/>
      <point x="137" y="212"/>
      <point x="137" y="187" type="curve" smooth="yes"/>
      <point x="137" y="135"/>
      <point x="178" y="105"/>
      <point x="235" y="105" type="curve" smooth="yes"/>
      <point x="278" y="105"/>
      <point x="330" y="122"/>
      <point x="421" y="201" type="curve"/>
      <point x="423" y="199" type="line"/>
    </contour>
  </outline>
</glyph>
<glyph name="uni0454" format="2">
  <advance width="408"/>
  <unicode hex="0454"/>
  <outline>
    <contour>
      <point x="334" y="444" type="curve" smooth="yes"/>
      <point x="178" y="444"/>
      <point x="50" y="303"/>
      <point x="50" y="130" type="curve" smooth="yes"/>
      <point x="50" y="42"/>
      <point x="116" y="-10"/>
      <point x="208" y="-10" type="curve" smooth="yes"/>
      <point x="302" y="-10"/>
      <point x="397" y="42"/>
      <point x="397" y="93" type="curve" smooth="yes" name=".hr01"/>
      <point x="397" y="111"/>
      <point x="385" y="130" name=".hr02"/>
      <point x="356" y="130" type="curve" smooth="yes"/>
      <point x="331" y="130"/>
      <point x="315" y="115"/>
      <point x="305" y="83" type="curve" smooth="yes"/>
      <point x="296" y="56"/>
      <point x="282" y="37"/>
      <point x="251" y="37" type="curve" smooth="yes"/>
      <point x="207" y="37"/>
      <point x="176" y="76"/>
      <point x="176" y="133" type="curve" smooth="yes"/>
      <point x="176" y="158"/>
      <point x="176" y="167"/>
      <point x="180" y="187" type="curve" name=".hr03"/>
      <point x="198" y="199"/>
      <point x="216" y="206"/>
      <point x="230" y="206" type="curve" smooth="yes"/>
      <point x="256" y="206"/>
      <point x="277" y="181"/>
      <point x="303" y="181" type="curve" smooth="yes"/>
      <point x="336" y="181"/>
      <point x="371" y="219"/>
      <point x="376" y="236" type="curve" smooth="yes"/>
      <point x="378" y="243"/>
      <point x="375" y="248"/>
      <point x="372" y="248" type="curve"/>
      <point x="366" y="249"/>
      <point x="352" y="239"/>
      <point x="338" y="239" type="curve" smooth="yes"/>
      <point x="314" y="239"/>
      <point x="291" y="267"/>
      <point x="258" y="267" type="curve" smooth="yes"/>
      <point x="237" y="267"/>
      <point x="210" y="256"/>
      <point x="192" y="238" type="curve"/>
      <point x="191.648" y="238.529"/>
      <point x="190.301" y="240.548"/>
      <point x="190" y="241" type="curve"/>
      <point x="216" y="333"/>
      <point x="251" y="396"/>
      <point x="306" y="396" type="curve" smooth="yes"/>
      <point x="342" y="396"/>
      <point x="396" y="370"/>
      <point x="400" y="309" type="curve"/>
      <point x="415" y="306"/>
      <point x="424" y="307"/>
      <point x="434" y="314" type="curve"/>
      <point x="448" y="350"/>
      <point x="453" y="394"/>
      <point x="454" y="426" type="curve"/>
      <point x="434" y="426"/>
      <point x="365" y="444"/>
    </contour>
  </outline>
</glyph>
<glyph name="uni0472" format="2">
  <advance width="699"/>
  <unicode hex="0472"/>
  <anchor x="482" y="740" name="t.uni0302"/>
  <outline>
    <contour>
      <point x="88" y="249" type="curve" smooth="yes"/>
      <point x="88" y="84"/>
      <point x="204" y="-10"/>
      <point x="356" y="-10" type="curve" smooth="yes"/>
      <point x="570" y="-10"/>
      <point x="737" y="175"/>
      <point x="737" y="404" type="curve" smooth="yes"/>
      <point x="737" y="560"/>
      <point x="629" y="658"/>
      <point x="479" y="658" type="curve" smooth="yes"/>
      <point x="260" y="658"/>
      <point x="88" y="449"/>
    </contour>
    <contour>
      <point x="233" y="220" type="curve" smooth="yes"/>
      <point x="233" y="346"/>
      <point x="297" y="616"/>
      <point x="458" y="616" type="curve" smooth="yes"/>
      <point x="537" y="616"/>
      <point x="592" y="550"/>
      <point x="592" y="423" type="curve" smooth="yes"/>
      <point x="592" y="216"/>
      <point x="494" y="32"/>
      <point x="367" y="32" type="curve" smooth="yes"/>
      <point x="289" y="32"/>
      <point x="233" y="102"/>
    </contour>
    <contour>
      <point x="160" y="242" type="line"/>
      <point x="197" y="292"/>
      <point x="273" y="323"/>
      <point x="320" y="323" type="curve" smooth="yes"/>
      <point x="387" y="323"/>
      <point x="431" y="258"/>
      <point x="497" y="258" type="curve" smooth="yes"/>
      <point x="525" y="258"/>
      <point x="602" y="270"/>
      <point x="663" y="362" type="curve"/>
      <point x="663" y="400" type="line"/>
      <point x="626" y="337"/>
      <point x="551" y="317"/>
      <point x="513" y="317" type="curve" smooth="yes"/>
      <point x="453" y="317"/>
      <point x="403" y="382"/>
      <point x="340" y="382" type="curve" smooth="yes"/>
      <point x="272" y="382"/>
      <point x="201" y="333"/>
      <point x="165" y="278" type="curve"/>
    </contour>
  </outline>
</glyph>
<glyph name="dramsignarmn" format="2">
  <advance width="672"/>
  <unicode hex="058F"/>
  <outline>
    <contour>
      <point x="277" y="225" type="curve" smooth="yes"/>
      <point x="611.9" y="225.05" type="line" smooth="yes"/>
      <point x="622.85" y="225.052"/>
      <point x="637" y="236.45"/>
      <point x="637" y="253.9" type="curve" smooth="yes"/>
      <point x="637" y="263.25"/>
      <point x="633.55" y="272.995"/>
      <point x="626.9" y="273" type="curve" smooth="yes"/>
      <point x="292" y="273.25" type="line" smooth="yes"/>
      <point x="283" y="273.257"/>
      <point x="267" y="262.7"/>
      <point x="267" y="242" type="curve" smooth="yes"/>
      <point x="267" y="233.7"/>
      <point x="270.25" y="224.999"/>
    </contour>
    <contour>
      <point x="611.9" y="339.275" type="line"/>
      <point x="622.85" y="339.275"/>
      <point x="637" y="350.45"/>
      <point x="637" y="367.9" type="curve" smooth="yes"/>
      <point x="637" y="377.25"/>
      <point x="633.55" y="386.954"/>
      <point x="626.9" y="386.95" type="curve" smooth="yes"/>
      <point x="292" y="386.75" type="line" smooth="yes"/>
      <point x="283" y="386.745"/>
      <point x="267" y="376.2"/>
      <point x="267" y="355.5" type="curve" smooth="yes"/>
      <point x="267" y="347.15"/>
      <point x="270.25" y="339.275"/>
      <point x="277" y="339.275" type="curve"/>
    </contour>
    <contour>
      <point x="558.255" y="479.528" type="line" smooth="yes"/>
      <point x="558.329" y="583.609"/>
      <point x="464.525" y="658"/>
      <point x="334" y="658" type="curve" smooth="yes"/>
      <point x="217.754" y="658"/>
      <point x="127" y="600.055"/>
      <point x="127" y="525.834" type="curve" smooth="yes"/>
      <point x="127" y="495.783"/>
      <point x="161" y="477.753"/>
      <point x="191" y="477.753" type="curve" smooth="yes"/>
      <point x="214" y="477.753"/>
      <point x="255" y="486.768"/>
      <point x="255" y="519.824" type="curve" smooth="yes"/>
      <point x="255" y="531.139"/>
      <point x="251" y="542.248"/>
      <point x="251" y="553.882" type="curve" smooth="yes"/>
      <point x="251" y="588.428"/>
      <point x="292.093" y="624"/>
      <point x="332" y="624" type="curve" smooth="yes"/>
      <point x="386.678" y="624"/>
      <point x="417.873" y="577.839"/>
      <point x="417.895" y="496.895" type="curve" smooth="yes"/>
      <point x="418" y="122.152" type="line"/>
      <point x="558" y="122.152" type="line"/>
    </contour>
    <contour>
      <point x="335" y="-2" type="curve"/>
      <point x="375" y="-1"/>
      <point x="449" y="0"/>
      <point x="489" y="0" type="curve" smooth="yes"/>
      <point x="529" y="0"/>
      <point x="601" y="-1"/>
      <point x="641" y="-2" type="curve"/>
      <point x="651" y="4"/>
      <point x="651" y="26"/>
      <point x="641" y="32" type="curve"/>
      <point x="586" y="35.0051"/>
      <point x="558" y="39.0119"/>
      <point x="558" y="122.152" type="curve"/>
      <point x="418" y="122.152" type="line"/>
      <point x="418" y="39.0119"/>
      <point x="390" y="35.0051"/>
      <point x="335" y="32" type="curve"/>
      <point x="325" y="26"/>
      <point x="325" y="4"/>
    </contour>
  </outline>
</glyph>
<glyph name="uni1E78" format="2">
  <advance width="702"/>
  <unicode hex="1E78"/>
  <outline>
    <component base="U"/>
    <component base="tildecomb" xOffset="646" yOffset="198"/>
    <contour>
      <point x="513" y="852" type="curve" smooth="yes"/>
      <point x="513" y="844"/>
      <point x="519" y="839"/>
      <point x="527" y="839" type="curve" smooth="yes"/>
      <point x="534" y="839"/>
      <point x="543" y="840"/>
      <point x="555" y="845" type="curve" smooth="yes"/>
      <point x="672" y="896" type="line"/>
      <point x="675" y="907" type="line"/>
      <point x="669" y="927"/>
      <point x="653" y="956"/>
      <point x="631" y="955" type="curve"/>
      <point x="523" y="871" type="line"/>
      <point x="517" y="867"/>
      <point x="513" y="859"/>
    </contour>
  </outline>
</glyph>
<glyph name="uni1E79" format="2">
  <advance width="646"/>
  <unicode hex="1E79"/>
  <outline>
    <component base="u"/>
    <component base="tildecomb" xOffset="527" yOffset="-30"/>
    <contour>
      <point x="496" y="759" type="curve"/>
      <point x="418" y="644" type="line"/>
      <point x="413" y="636"/>
      <point x="410" y="628"/>
      <point x="409" y="623" type="curve"/>
      <point x="409" y="617"/>
      <point x="414" y="610"/>
      <point x="420" y="610" type="curve" smooth="yes"/>
      <point x="428" y="610"/>
      <point x="439" y="614"/>
      <point x="451" y="625" type="curve" smooth="yes"/>
      <point x="555" y="720" type="line"/>
      <point x="550" y="740" type="line"/>
      <point x="545" y="749"/>
      <point x="532" y="761"/>
      <point x="509" y="761" type="curve" smooth="yes"/>
      <point x="505" y="761"/>
      <point x="499" y="760"/>
    </contour>
  </outline>
</glyph>
<glyph name="uni1E7B" format="2">
  <advance width="646"/>
  <unicode hex="1E7B"/>
  <outline>
    <component base="u"/>
    <contour>
      <point x="512" y="497" type="line" smooth="yes"/>
      <point x="525" y="497"/>
      <point x="539" y="515"/>
      <point x="542" y="527" type="curve"/>
      <point x="543" y="533"/>
      <point x="540" y="541"/>
      <point x="530" y="541" type="curve" smooth="yes"/>
      <point x="285" y="541" type="line" smooth="yes"/>
      <point x="274" y="541"/>
      <point x="260" y="524"/>
      <point x="258" y="512" type="curve"/>
      <point x="256" y="505"/>
      <point x="259" y="497"/>
      <point x="268" y="497" type="curve" smooth="yes"/>
    </contour>
    <contour>
      <point x="278" y="641" type="curve" smooth="yes"/>
      <point x="276" y="611"/>
      <point x="298" y="587"/>
      <point x="326" y="587" type="curve" smooth="yes"/>
      <point x="355" y="587"/>
      <point x="379" y="611"/>
      <point x="381" y="641" type="curve" smooth="yes"/>
      <point x="383" y="672"/>
      <point x="363" y="696"/>
      <point x="334" y="696" type="curve" smooth="yes"/>
      <point x="305" y="696"/>
      <point x="280" y="672"/>
    </contour>
    <contour>
      <point x="453" y="641" type="curve" smooth="yes"/>
      <point x="451" y="611"/>
      <point x="471" y="587"/>
      <point x="501" y="587" type="curve" smooth="yes"/>
      <point x="529" y="587"/>
      <point x="554" y="611"/>
      <point x="556" y="641" type="curve" smooth="yes"/>
      <point x="558" y="672"/>
      <point x="537" y="696"/>
      <point x="508" y="696" type="curve" smooth="yes"/>
      <point x="479" y="696"/>
      <point x="455" y="672"/>
    </contour>
  </outline>
</glyph>
<glyph name="Wgrave" format="2">
  <advance width="986"/>
  <unicode hex="1E80"/>
  <outline>
    <component base="W"/>
    <contour>
      <point x="364" y="957" type="curve"/>
      <point x="338" y="945"/>
      <point x="308" y="923"/>
      <point x="292" y="902" type="curve"/>
      <point x="293" y="890" type="line"/>
      <point x="429" y="832" type="line"/>
      <point x="442" y="826"/>
      <point x="454" y="825"/>
      <point x="463" y="825" type="curve" smooth="yes"/>
      <point x="465" y="825"/>
      <point x="468" y="825"/>
      <point x="470" y="826" type="curve"/>
      <point x="477" y="829"/>
      <point x="484" y="834"/>
      <point x="485" y="840" type="curve" smooth="yes"/>
      <point x="486" y="847"/>
      <point x="487" y="853"/>
      <point x="478" y="861" type="curve"/>
      <point x="477" y="862"/>
      <point x="476" y="863"/>
      <point x="474" y="864" type="curve"/>
      <point x="452" y="885"/>
      <point x="398" y="931"/>
    </contour>
  </outline>
</glyph>
<glyph name="wgrave" format="2">
  <advance width="729"/>
  <unicode hex="1E81"/>
  <outline>
    <component base="w"/>
    <contour>
      <point x="352" y="637" type="line"/>
      <point x="349" y="638"/>
      <point x="344" y="638"/>
      <point x="339" y="639" type="curve"/>
      <point x="336" y="639"/>
      <point x="334" y="639"/>
      <point x="332" y="639" type="curve" smooth="yes"/>
      <point x="296" y="639"/>
      <point x="264" y="616"/>
      <point x="254" y="607" type="curve"/>
      <point x="251" y="596" type="line"/>
      <point x="357" y="491" type="line" smooth="yes"/>
      <point x="372" y="476"/>
      <point x="381" y="471"/>
      <point x="389" y="471" type="curve" smooth="yes"/>
      <point x="396" y="471"/>
      <point x="403" y="475"/>
      <point x="406" y="481" type="curve" smooth="yes"/>
      <point x="407" y="483"/>
      <point x="408" y="485"/>
      <point x="408" y="487" type="curve"/>
      <point x="409" y="492"/>
      <point x="408" y="499"/>
      <point x="406" y="505" type="curve" smooth="yes"/>
      <point x="405" y="508"/>
      <point x="404" y="511"/>
      <point x="403" y="513" type="curve"/>
    </contour>
  </outline>
</glyph>
<glyph name="Wacute" format="2">
  <advance width="986"/>
  <unicode hex="1E82"/>
  <outline>
    <component base="W"/>
    <contour>
      <point x="709" y="959" type="curve"/>
      <point x="668" y="933"/>
      <point x="600" y="887"/>
      <point x="574" y="866" type="curve"/>
      <point x="572" y="865"/>
      <point x="570" y="864"/>
      <point x="569" y="863" type="curve"/>
      <point x="558" y="855"/>
      <point x="557" y="849"/>
      <point x="556" y="842" type="curve"/>
      <point x="555" y="837"/>
      <point x="560" y="832"/>
      <point x="565" y="829" type="curve"/>
      <point x="568" y="828"/>
      <point x="571" y="827"/>
      <point x="574" y="827" type="curve" smooth="yes"/>
      <point x="583" y="827"/>
      <point x="594" y="828"/>
      <point x="610" y="834" type="curve" smooth="yes"/>
      <point x="762" y="892" type="line"/>
      <point x="767" y="904" type="line"/>
      <point x="757" y="925"/>
      <point x="733" y="947"/>
    </contour>
  </outline>
</glyph>
<glyph name="wacute" format="2">
  <advance width="729"/>
  <unicode hex="1E83"/>
  <outline>
    <component base="w"/>
    <contour>
      <point x="549" y="637" type="curve"/>
      <point x="453" y="514" type="line"/>
      <point x="451" y="511"/>
      <point x="449" y="509"/>
      <point x="447" y="506" type="curve"/>
      <point x="440" y="497"/>
      <point x="437" y="488"/>
      <point x="436" y="482" type="curve" smooth="yes"/>
      <point x="435" y="476"/>
      <point x="442" y="468"/>
      <point x="450" y="468" type="curve" smooth="yes"/>
      <point x="460" y="468"/>
      <point x="475" y="472"/>
      <point x="490" y="484" type="curve" smooth="yes"/>
      <point x="625" y="592" type="line"/>
      <point x="619" y="615" type="line"/>
      <point x="612" y="625"/>
      <point x="595" y="639"/>
      <point x="565" y="639" type="curve" smooth="yes"/>
      <point x="560" y="639"/>
      <point x="552" y="638"/>
    </contour>
  </outline>
</glyph>
<glyph name="wdieresis" format="2">
  <advance width="729"/>
  <unicode hex="1E85"/>
  <outline>
    <component base="w"/>
    <contour>
      <point x="368" y="571" type="curve" smooth="yes"/>
      <point x="366" y="544"/>
      <point x="384" y="522"/>
      <point x="408" y="518" type="curve"/>
      <point x="410" y="517"/>
      <point x="413" y="517"/>
      <point x="416" y="517" type="curve" smooth="yes"/>
      <point x="445" y="517"/>
      <point x="469" y="541"/>
      <point x="471" y="571" type="curve"/>
      <point x="471" y="574"/>
      <point x="471" y="577"/>
      <point x="471" y="580" type="curve"/>
      <point x="469" y="604"/>
      <point x="454" y="622"/>
      <point x="432" y="625" type="curve"/>
      <point x="430" y="626"/>
      <point x="427" y="626"/>
      <point x="424" y="626" type="curve" smooth="yes"/>
      <point x="395" y="626"/>
      <point x="370" y="602"/>
    </contour>
    <contour>
      <point x="543" y="571" type="curve" smooth="yes"/>
      <point x="541" y="544"/>
      <point x="557" y="522"/>
      <point x="582" y="518" type="curve"/>
      <point x="585" y="517"/>
      <point x="588" y="517"/>
      <point x="591" y="517" type="curve" smooth="yes"/>
      <point x="619" y="517"/>
      <point x="644" y="541"/>
      <point x="646" y="571" type="curve"/>
      <point x="646" y="574"/>
      <point x="646" y="577"/>
      <point x="646" y="580" type="curve"/>
      <point x="644" y="604"/>
      <point x="628" y="622"/>
      <point x="606" y="625" type="curve"/>
      <point x="604" y="626"/>
      <point x="601" y="626"/>
      <point x="598" y="626" type="curve" smooth="yes"/>
      <point x="569" y="626"/>
      <point x="545" y="602"/>
    </contour>
  </outline>
</glyph>
<glyph name="uni1E9E" format="2">
  <advance width="734"/>
  <unicode hex="1E9E"/>
  <outline>
    <contour>
      <point x="14" y="-2" type="curve"/>
      <point x="47" y="-1"/>
      <point x="106" y="0"/>
      <point x="145" y="0" type="curve" smooth="yes"/>
      <point x="161" y="0" type="line" smooth="yes"/>
      <point x="199" y="0"/>
      <point x="238" y="-1"/>
      <point x="276" y="-2" type="curve"/>
      <point x="284" y="2"/>
      <point x="289" y="28"/>
      <point x="283" y="32" type="curve"/>
      <point x="250" y="40"/>
      <point x="243" y="47"/>
      <point x="246" y="87" type="curve" smooth="yes"/>
      <point x="247" y="97"/>
      <point x="249" y="109"/>
      <point x="252" y="123" type="curve" smooth="yes"/>
      <point x="294" y="320" type="line" smooth="yes"/>
      <point x="323" y="457"/>
      <point x="405" y="616"/>
      <point x="566" y="616" type="curve" smooth="yes"/>
      <point x="605" y="616"/>
      <point x="631" y="604"/>
      <point x="631" y="590" type="curve" smooth="yes"/>
      <point x="631" y="588" type="line"/>
      <point x="626" y="565"/>
      <point x="507" y="416"/>
      <point x="447" y="348" type="curve"/>
      <point x="447" y="318" type="line"/>
      <point x="453" y="319"/>
      <point x="473" y="320"/>
      <point x="480" y="320" type="curve" smooth="yes"/>
      <point x="582" y="320"/>
      <point x="602" y="270"/>
      <point x="602" y="227" type="curve" smooth="yes"/>
      <point x="602" y="161"/>
      <point x="565" y="35"/>
      <point x="488" y="35" type="curve" smooth="yes"/>
      <point x="424" y="35"/>
      <point x="406" y="76"/>
      <point x="405" y="156" type="curve"/>
      <point x="389" y="159"/>
      <point x="376" y="158"/>
      <point x="364" y="153" type="curve"/>
      <point x="366" y="86"/>
      <point x="363" y="55"/>
      <point x="353" y="6" type="curve"/>
      <point x="364" y="7"/>
      <point x="371" y="7"/>
      <point x="379" y="7" type="curve" smooth="yes"/>
      <point x="416" y="7"/>
      <point x="452" y="-10"/>
      <point x="490" y="-10" type="curve" smooth="yes"/>
      <point x="609" y="-10"/>
      <point x="733" y="92"/>
      <point x="733" y="214" type="curve" smooth="yes"/>
      <point x="733" y="293"/>
      <point x="671" y="351"/>
      <point x="587" y="356" type="curve"/>
      <point x="582" y="356"/>
      <point x="580" y="361"/>
      <point x="586" y="369" type="curve"/>
      <point x="776" y="605" type="line"/>
      <point x="781" y="629" type="line"/>
      <point x="730" y="648"/>
      <point x="651" y="658"/>
      <point x="593" y="658" type="curve" smooth="yes"/>
      <point x="343" y="658"/>
      <point x="199" y="496"/>
      <point x="156" y="295" type="curve" smooth="yes"/>
      <point x="119" y="123" type="line" smooth="yes"/>
      <point x="105" y="58"/>
      <point x="87" y="32"/>
      <point x="21" y="32" type="curve"/>
      <point x="14" y="28"/>
      <point x="9" y="2"/>
    </contour>
  </outline>
</glyph>
<glyph name="quoteleft" format="2">
  <advance width="268"/>
  <unicode hex="2018"/>
  <anchor x="260" y="500" name="_t.uni0302"/>
  <outline>
    <contour>
      <point x="252" y="500" type="curve" smooth="yes"/>
      <point x="290" y="500"/>
      <point x="320" y="525"/>
      <point x="320" y="559" type="curve" smooth="yes"/>
      <point x="320" y="593"/>
      <point x="309" y="606"/>
      <point x="289" y="616" type="curve"/>
      <point x="288.521" y="616.239"/>
      <point x="285.479" y="617.761"/>
      <point x="285" y="618" type="curve"/>
      <point x="269" y="626"/>
      <point x="266" y="638"/>
      <point x="266" y="649" type="curve" smooth="yes"/>
      <point x="266" y="685"/>
      <point x="351" y="755"/>
      <point x="384" y="763" type="curve"/>
      <point x="391" y="776"/>
      <point x="393" y="787"/>
      <point x="384" y="794" type="curve"/>
      <point x="284" y="778"/>
      <point x="182" y="679"/>
      <point x="182" y="574" type="curve" smooth="yes"/>
      <point x="182" y="528"/>
      <point x="209" y="500"/>
    </contour>
  </outline>
</glyph>
<glyph name="quotereversed" format="2">
  <advance width="268"/>
  <unicode hex="201B"/>
  <outline>
    <contour>
      <point x="195.029" y="636" type="curve" smooth="yes"/>
      <point x="195.029" y="565"/>
      <point x="237.029" y="510"/>
      <point x="283.029" y="491" type="curve"/>
      <point x="296.029" y="496"/>
      <point x="301.029" y="506"/>
      <point x="301.029" y="520" type="curve"/>
      <point x="272.029" y="536"/>
      <point x="254.029" y="590"/>
      <point x="254.029" y="624" type="curve" smooth="yes"/>
      <point x="254.029" y="656.425"/>
      <point x="276.405" y="666.453"/>
      <point x="301.636" y="673.384" type="curve" smooth="yes"/>
      <point x="332.598" y="681.891"/>
      <point x="361.029" y="702.764"/>
      <point x="361.029" y="745" type="curve" smooth="yes"/>
      <point x="361.029" y="777"/>
      <point x="338.029" y="795"/>
      <point x="306.029" y="795" type="curve" smooth="yes"/>
      <point x="234.029" y="795"/>
      <point x="195.029" y="704"/>
    </contour>
  </outline>
  <guideline angle="0" x="0" y="500"/>
  <guideline angle="0" x="0" y="728"/>
</glyph>
<glyph name="quotedblleft" format="2">
  <advance width="375"/>
  <unicode hex="201C"/>
  <outline>
    <contour>
      <point x="379.014" y="500" type="curve" smooth="yes"/>
      <point x="415.79" y="500"/>
      <point x="453.014" y="526.692"/>
      <point x="453.014" y="564" type="curve" smooth="yes"/>
      <point x="453.014" y="594.338"/>
      <point x="441.443" y="616.375"/>
      <point x="417.495" y="623.325" type="curve" smooth="yes"/>
      <point x="408.158" y="626.035"/>
      <point x="399.493" y="633.591"/>
      <point x="399.451" y="648.772" type="curve" smooth="yes"/>
      <point x="399.352" y="684.928"/>
      <point x="484.272" y="754.458"/>
      <point x="517.014" y="763" type="curve"/>
      <point x="525.014" y="776"/>
      <point x="526.014" y="787"/>
      <point x="517.014" y="794" type="curve"/>
      <point x="417.466" y="777.857"/>
      <point x="315.754" y="677.97"/>
      <point x="315.754" y="573.69" type="curve" smooth="yes"/>
      <point x="315.754" y="529.296"/>
      <point x="340.772" y="500"/>
    </contour>
    <contour>
      <point x="205.014" y="500" type="curve" smooth="yes"/>
      <point x="241.79" y="500"/>
      <point x="279.014" y="526.692"/>
      <point x="279.014" y="564" type="curve" smooth="yes"/>
      <point x="279.014" y="594.749"/>
      <point x="267.539" y="616.625"/>
      <point x="243.495" y="623.325" type="curve" smooth="yes"/>
      <point x="231.299" y="626.723"/>
      <point x="225.454" y="636.383"/>
      <point x="225.446" y="648.76" type="curve" smooth="yes"/>
      <point x="225.421" y="684.974"/>
      <point x="310.216" y="754.444"/>
      <point x="343.014" y="763" type="curve"/>
      <point x="351.014" y="776" name=".hr01"/>
      <point x="352.014" y="787"/>
      <point x="343.014" y="794" type="curve"/>
      <point x="243.466" y="777.857"/>
      <point x="141.754" y="677.97"/>
      <point x="141.754" y="573.69" type="curve" smooth="yes"/>
      <point x="141.754" y="529.296"/>
      <point x="166.772" y="500"/>
    </contour>
  </outline>
  <guideline angle="0" x="0" y="500"/>
  <guideline angle="0" x="0" y="728"/>
</glyph>
<glyph name="quotedblright" format="2">
  <advance width="375"/>
  <unicode hex="201D"/>
  <outline>
    <contour>
      <point x="265.604" y="794" type="curve" smooth="yes"/>
      <point x="225.068" y="794"/>
      <point x="191.604" y="765.675"/>
      <point x="191.604" y="730" type="curve" smooth="yes"/>
      <point x="191.604" y="695.867"/>
      <point x="205.208" y="675.059"/>
      <point x="230.737" y="668.868" type="curve" smooth="yes"/>
      <point x="239.961" y="666.631"/>
      <point x="245.166" y="654.852"/>
      <point x="245.166" y="645.015" type="curve" smooth="yes"/>
      <point x="245.166" y="609.065"/>
      <point x="160.384" y="539.369"/>
      <point x="127.604" y="531" type="curve"/>
      <point x="119.604" y="518"/>
      <point x="118.604" y="508"/>
      <point x="127.604" y="500" type="curve"/>
      <point x="226.199" y="515.988"/>
      <point x="329.855" y="616.419"/>
      <point x="329.855" y="719.989" type="curve" smooth="yes"/>
      <point x="329.855" y="769.049"/>
      <point x="306.195" y="794"/>
    </contour>
    <contour>
      <point x="439.604" y="794" type="curve" smooth="yes"/>
      <point x="398.862" y="794"/>
      <point x="365.604" y="765.854"/>
      <point x="365.604" y="730" type="curve" smooth="yes"/>
      <point x="365.604" y="693"/>
      <point x="379.985" y="675.131"/>
      <point x="394.604" y="671" type="curve" smooth="yes"/>
      <point x="403.843" y="668.389"/>
      <point x="419.174" y="656.315"/>
      <point x="419.174" y="645.244" type="curve" smooth="yes"/>
      <point x="419.174" y="609.219"/>
      <point x="334.377" y="539.367"/>
      <point x="301.604" y="531" type="curve"/>
      <point x="293.604" y="518"/>
      <point x="292.604" y="508"/>
      <point x="301.604" y="500" type="curve"/>
      <point x="400.199" y="515.988"/>
      <point x="503.855" y="616.419"/>
      <point x="503.855" y="719.989" type="curve" smooth="yes"/>
      <point x="503.855" y="769.049"/>
      <point x="480.195" y="794"/>
    </contour>
  </outline>
</glyph>
<glyph name="uni201F" format="2">
  <advance width="373"/>
  <unicode hex="201F"/>
  <outline>
    <contour>
      <point x="314" y="570" type="curve" smooth="yes"/>
      <point x="314" y="499"/>
      <point x="356" y="444"/>
      <point x="402" y="425" type="curve"/>
      <point x="415" y="430"/>
      <point x="420" y="440"/>
      <point x="420" y="454" type="curve"/>
      <point x="391" y="470"/>
      <point x="373" y="524"/>
      <point x="373" y="558" type="curve" smooth="yes"/>
      <point x="373" y="628"/>
      <point x="480" y="585"/>
      <point x="480" y="679" type="curve" smooth="yes"/>
      <point x="480" y="711"/>
      <point x="457" y="729"/>
      <point x="425" y="729" type="curve" smooth="yes"/>
      <point x="353" y="729"/>
      <point x="314" y="638"/>
    </contour>
    <contour>
      <point x="158" y="570" type="curve" smooth="yes"/>
      <point x="158" y="499"/>
      <point x="200" y="444"/>
      <point x="246" y="425" type="curve"/>
      <point x="259" y="430"/>
      <point x="264" y="440"/>
      <point x="264" y="454" type="curve"/>
      <point x="235" y="470"/>
      <point x="217" y="524"/>
      <point x="217" y="558" type="curve" smooth="yes"/>
      <point x="217" y="628"/>
      <point x="324" y="585"/>
      <point x="324" y="679" type="curve" smooth="yes"/>
      <point x="324" y="711"/>
      <point x="301" y="729"/>
      <point x="269" y="729" type="curve" smooth="yes"/>
      <point x="197" y="729"/>
      <point x="158" y="638"/>
    </contour>
  </outline>
</glyph>
<glyph name="uni2027" format="2">
  <advance width="226"/>
  <unicode hex="2027"/>
  <outline>
    <contour>
      <point x="99" y="279" type="curve" smooth="yes"/>
      <point x="99" y="243"/>
      <point x="135" y="212"/>
      <point x="170" y="212" type="curve" smooth="yes"/>
      <point x="210" y="212"/>
      <point x="247" y="247"/>
      <point x="247" y="286" type="curve" smooth="yes"/>
      <point x="247" y="322"/>
      <point x="212" y="353"/>
      <point x="177" y="353" type="curve" smooth="yes"/>
      <point x="137" y="353"/>
      <point x="99" y="318"/>
    </contour>
  </outline>
</glyph>
<glyph name="perthousand" format="2">
  <advance width="916"/>
  <unicode hex="2030"/>
  <outline>
    <contour>
      <point x="657" y="65" type="curve" smooth="yes"/>
      <point x="657" y="15"/>
      <point x="677" y="-20"/>
      <point x="725" y="-20" type="curve" smooth="yes"/>
      <point x="826" y="-20"/>
      <point x="900" y="105"/>
      <point x="900" y="196" type="curve" smooth="yes"/>
      <point x="900" y="235"/>
      <point x="873" y="249"/>
      <point x="839" y="249" type="curve" smooth="yes"/>
      <point x="738" y="249"/>
      <point x="657" y="165"/>
    </contour>
    <contour>
      <point x="739" y="48" type="curve" smooth="yes"/>
      <point x="739" y="91"/>
      <point x="779" y="215"/>
      <point x="833" y="215" type="curve" smooth="yes"/>
      <point x="851" y="215"/>
      <point x="858" y="193"/>
      <point x="858" y="174" type="curve" smooth="yes"/>
      <point x="858" y="136"/>
      <point x="804" y="20"/>
      <point x="759" y="20" type="curve" smooth="yes"/>
      <point x="747" y="20"/>
      <point x="739" y="30"/>
    </contour>
    <contour>
      <point x="104" y="-4" type="line"/>
      <point x="152" y="-16" type="line"/>
      <point x="658" y="548" type="line"/>
      <point x="618" y="569" type="line"/>
      <point x="570" y="525"/>
      <point x="506" y="519"/>
      <point x="467" y="519" type="curve" smooth="yes"/>
      <point x="438" y="519"/>
      <point x="394" y="531"/>
      <point x="372" y="546" type="curve"/>
      <point x="358" y="562"/>
      <point x="337" y="566"/>
      <point x="316" y="566" type="curve" smooth="yes"/>
      <point x="219" y="566"/>
      <point x="143" y="464"/>
      <point x="143" y="372" type="curve" smooth="yes"/>
      <point x="143" y="331"/>
      <point x="163" y="297"/>
      <point x="220" y="297" type="curve" smooth="yes"/>
      <point x="306" y="297"/>
      <point x="387" y="388"/>
      <point x="387" y="475" type="curve" smooth="yes"/>
      <point x="387" y="481"/>
      <point x="387" y="487"/>
      <point x="386" y="493" type="curve"/>
      <point x="402" y="483"/>
      <point x="428" y="474"/>
      <point x="448" y="474" type="curve" smooth="yes"/>
      <point x="476" y="474"/>
      <point x="514" y="481"/>
      <point x="554" y="497" type="curve"/>
    </contour>
    <contour>
      <point x="227" y="364" type="curve" smooth="yes"/>
      <point x="227" y="407"/>
      <point x="267" y="531"/>
      <point x="321" y="531" type="curve" smooth="yes"/>
      <point x="339" y="531"/>
      <point x="346" y="509"/>
      <point x="346" y="490" type="curve" smooth="yes"/>
      <point x="346" y="450"/>
      <point x="292" y="336"/>
      <point x="247" y="336" type="curve" smooth="yes"/>
      <point x="235" y="336"/>
      <point x="227" y="346"/>
    </contour>
    <contour>
      <point x="380" y="65" type="curve" smooth="yes"/>
      <point x="380" y="15"/>
      <point x="400" y="-20"/>
      <point x="448" y="-20" type="curve" smooth="yes"/>
      <point x="549" y="-20"/>
      <point x="623" y="105"/>
      <point x="623" y="196" type="curve" smooth="yes"/>
      <point x="623" y="235"/>
      <point x="596" y="249"/>
      <point x="562" y="249" type="curve" smooth="yes"/>
      <point x="461" y="249"/>
      <point x="380" y="165"/>
    </contour>
    <contour>
      <point x="462" y="48" type="curve" smooth="yes"/>
      <point x="462" y="91"/>
      <point x="502" y="215"/>
      <point x="556" y="215" type="curve" smooth="yes"/>
      <point x="574" y="215"/>
      <point x="581" y="193"/>
      <point x="581" y="174" type="curve" smooth="yes"/>
      <point x="581" y="136"/>
      <point x="527" y="20"/>
      <point x="482" y="20" type="curve" smooth="yes"/>
      <point x="470" y="20"/>
      <point x="462" y="30"/>
    </contour>
  </outline>
</glyph>
<glyph name="fraction" format="2">
  <advance width="44"/>
  <unicode hex="2044"/>
  <outline>
    <contour>
      <point x="303.157" y="657" type="line"/>
      <point x="-163.234" y="-10" type="line"/>
      <point x="-122.234" y="-10" type="line"/>
      <point x="345.157" y="657" type="line"/>
    </contour>
  </outline>
</glyph>
<glyph name="uni2070" format="2">
  <advance width="316"/>
  <unicode hex="2070"/>
  <outline>
    <contour>
      <point x="154.519" y="575.847" type="curve" smooth="yes"/>
      <point x="154.519" y="501.327"/>
      <point x="188.329" y="459.846"/>
      <point x="249.07" y="459.846" type="curve"/>
      <point x="340.292" y="459.846"/>
      <point x="424.982" y="580.338"/>
      <point x="424.893" y="710" type="curve" smooth="yes"/>
      <point x="424.845" y="781.622"/>
      <point x="390.549" y="821"/>
      <point x="328.218" y="821" type="curve" smooth="yes"/>
      <point x="238.546" y="821"/>
      <point x="154.519" y="702.407"/>
    </contour>
    <contour>
      <point x="232.199" y="534.247" type="curve" smooth="yes"/>
      <point x="232.188" y="566.745"/>
      <point x="239.231" y="605.477"/>
      <point x="241.85" y="616" type="curve" smooth="yes"/>
      <point x="246.828" y="636" type="line" smooth="yes"/>
      <point x="273.659" y="743.802"/>
      <point x="298.023" y="795"/>
      <point x="322.491" y="795" type="curve" smooth="yes"/>
      <point x="337.75" y="795"/>
      <point x="345.861" y="778.711"/>
      <point x="345.893" y="748" type="curve" smooth="yes"/>
      <point x="345.913" y="729.57"/>
      <point x="342.833" y="705.162"/>
      <point x="336.429" y="673" type="curve" smooth="yes"/>
      <point x="333.442" y="658" type="line" smooth="yes"/>
      <point x="308.092" y="530.683"/>
      <point x="287.005" y="486.041"/>
      <point x="252.139" y="485.846" type="curve" smooth="yes"/>
      <point x="236.832" y="485.761"/>
      <point x="232.209" y="507.966"/>
    </contour>
  </outline>
  <guideline angle="0" x="0" y="460"/>
  <guideline angle="0" x="0" y="789"/>
  <guideline angle="0" x="0" y="464"/>
  <guideline angle="0" x="0" y="785"/>
</glyph>
<glyph name="uni2071" format="2">
  <advance width="269"/>
  <unicode hex="2071"/>
  <outline>
    <contour>
      <point x="271" y="471.418" type="curve" smooth="yes"/>
      <point x="293.838" y="576.076" type="line" smooth="yes"/>
      <point x="296.758" y="589.454"/>
      <point x="306.25" y="612.357"/>
      <point x="306.25" y="623.255" type="curve" smooth="yes"/>
      <point x="306.25" y="631.571"/>
      <point x="298.554" y="635"/>
      <point x="291" y="635" type="curve"/>
      <point x="265" y="625"/>
      <point x="221.308" y="617.461"/>
      <point x="163" y="611" type="curve"/>
      <point x="158.462" y="604.045"/>
      <point x="156.027" y="591.139"/>
      <point x="157" y="582" type="curve"/>
      <point x="192.017" y="579.066"/>
      <point x="203.228" y="571.244"/>
      <point x="203.278" y="551.17" type="curve" smooth="yes"/>
      <point x="203.297" y="543.347"/>
      <point x="201.596" y="533.668"/>
      <point x="199" y="521.682" type="curve" smooth="yes"/>
      <point x="195.941" y="507.558"/>
      <point x="185.75" y="460.502"/>
      <point x="182.122" y="443.75" type="curve" smooth="yes"/>
      <point x="176.316" y="416.938"/>
      <point x="161.904" y="392"/>
      <point x="111" y="392" type="curve"/>
      <point x="106.003" y="386.394"/>
      <point x="103.234" y="369.874"/>
      <point x="105" y="363" type="curve"/>
      <point x="308" y="363" type="line"/>
      <point x="311.457" y="366.874"/>
      <point x="317.434" y="383.849"/>
      <point x="314" y="392" type="curve"/>
      <point x="277.717" y="392"/>
      <point x="266.056" y="408.065"/>
      <point x="266.191" y="435.046" type="curve" smooth="yes"/>
      <point x="266.244" y="445.602"/>
      <point x="268.103" y="457.829"/>
    </contour>
    <contour>
      <point x="221.869" y="702.657" type="curve" smooth="yes"/>
      <point x="221.909" y="682.241"/>
      <point x="234.56" y="664"/>
      <point x="261.274" y="664" type="curve" smooth="yes"/>
      <point x="295.579" y="664"/>
      <point x="322.053" y="694.087"/>
      <point x="322.053" y="725.232" type="curve" smooth="yes"/>
      <point x="322.053" y="746.028"/>
      <point x="309" y="763"/>
      <point x="282.787" y="763" type="curve" smooth="yes"/>
      <point x="251.077" y="763"/>
      <point x="221.805" y="734.908"/>
    </contour>
  </outline>
  <guideline angle="257.276" x="196" y="526"/>
</glyph>
<glyph name="uni2075" format="2">
  <advance width="275"/>
  <unicode hex="2075"/>
  <outline>
    <contour>
      <point x="221.752" y="491" type="curve" smooth="yes"/>
      <point x="206.752" y="491"/>
      <point x="197.424" y="497.833"/>
      <point x="189.681" y="510" type="curve" smooth="yes"/>
      <point x="183.42" y="519.839"/>
      <point x="173.733" y="535"/>
      <point x="158.733" y="535" type="curve" smooth="yes"/>
      <point x="135.544" y="535"/>
      <point x="122.139" y="521.021"/>
      <point x="122.139" y="497.346" type="curve" smooth="yes"/>
      <point x="122.139" y="480.792"/>
      <point x="142.46" y="460"/>
      <point x="212.681" y="460" type="curve" smooth="yes"/>
      <point x="296.681" y="460"/>
      <point x="366.058" y="529.926"/>
      <point x="366.058" y="613.541" type="curve" smooth="yes"/>
      <point x="366.058" y="668.634"/>
      <point x="334.707" y="701.94"/>
      <point x="279.667" y="705.317" type="curve" smooth="yes"/>
      <point x="263.866" y="706.286"/>
      <point x="242.084" y="702.557"/>
      <point x="224.681" y="697" type="curve"/>
      <point x="242.956" y="754" type="line"/>
      <point x="260.673" y="750.02"/>
      <point x="279.682" y="748"/>
      <point x="297.932" y="748" type="curve" smooth="yes"/>
      <point x="310.905" y="748" type="line" smooth="yes"/>
      <point x="333.12" y="748"/>
      <point x="355.404" y="750.02"/>
      <point x="377.956" y="754" type="curve"/>
      <point x="403.569" y="815.139" type="line"/>
      <point x="399.387" y="819.811" type="line"/>
      <point x="371.695" y="815.564"/>
      <point x="348.104" y="813"/>
      <point x="320.744" y="813" type="curve" smooth="yes"/>
      <point x="306.878" y="813" type="line" smooth="yes"/>
      <point x="281.417" y="813"/>
      <point x="254.915" y="815.02"/>
      <point x="229.956" y="819" type="curve"/>
      <point x="176.681" y="660" type="line"/>
      <point x="180.681" y="656" type="line"/>
      <point x="193.626" y="662.134"/>
      <point x="204.139" y="664.442"/>
      <point x="217.395" y="664.442" type="curve" smooth="yes"/>
      <point x="254.676" y="664.442"/>
      <point x="273.468" y="637.752"/>
      <point x="273.468" y="585.273" type="curve" smooth="yes"/>
      <point x="273.468" y="535.557"/>
      <point x="249.025" y="491"/>
    </contour>
  </outline>
</glyph>
<glyph name="uni2078" format="2">
  <advance width="299"/>
  <unicode hex="2078"/>
  <outline>
    <contour>
      <point x="295" y="689" type="curve" smooth="yes"/>
      <point x="313.948" y="689"/>
      <point x="325" y="674.87"/>
      <point x="325" y="650.647" type="curve" smooth="yes"/>
      <point x="325" y="615.22"/>
      <point x="294.719" y="595.392"/>
      <point x="272.25" y="591.162" type="curve"/>
      <point x="286.701" y="569.624" type="line"/>
      <point x="346.719" y="598.51"/>
      <point x="386" y="610.372"/>
      <point x="386" y="656.222" type="curve" smooth="yes"/>
      <point x="386" y="693.231"/>
      <point x="348" y="718"/>
      <point x="303" y="718" type="curve" smooth="yes"/>
      <point x="238.691" y="718"/>
      <point x="165" y="679.732"/>
      <point x="165" y="607.542" type="curve" smooth="yes"/>
      <point x="165" y="588.667"/>
      <point x="175.5" y="570.784"/>
      <point x="197" y="555.882" type="curve" smooth="yes"/>
      <point x="260" y="511.176" type="line" smooth="yes"/>
      <point x="276.835" y="499.23"/>
      <point x="290" y="482.77" name=".hr01"/>
      <point x="290" y="461.503" type="curve" smooth="yes"/>
      <point x="290" y="413.817"/>
      <point x="254" y="386"/>
      <point x="221" y="386" type="curve" smooth="yes"/>
      <point x="194.32" y="386"/>
      <point x="179" y="412.991"/>
      <point x="179" y="436.667" type="curve" smooth="yes"/>
      <point x="179" y="481.726"/>
      <point x="230.43" y="522.954"/>
      <point x="244.356" y="531.382" type="curve"/>
      <point x="233.192" y="554.838" type="line"/>
      <point x="149.406" y="513.035"/>
      <point x="109" y="485.138"/>
      <point x="109" y="427.725" type="curve" smooth="yes"/>
      <point x="109" y="373.571"/>
      <point x="169.667" y="357"/>
      <point x="214" y="357" type="curve" smooth="yes"/>
      <point x="287.268" y="357"/>
      <point x="375" y="408.708"/>
      <point x="375" y="489.915" type="curve" smooth="yes"/>
      <point x="375" y="523.544"/>
      <point x="356.037" y="542.203"/>
      <point x="331" y="560.239" type="curve" smooth="yes"/>
      <point x="265" y="607.781" type="line" smooth="yes"/>
      <point x="246.383" y="621.192"/>
      <point x="240" y="632.543" name=".hr02"/>
      <point x="240" y="645.419" type="curve" smooth="yes"/>
      <point x="240" y="669.191"/>
      <point x="265" y="689"/>
    </contour>
  </outline>
</glyph>
<glyph name="uni2079" format="2">
  <advance width="312"/>
  <unicode hex="2079"/>
  <outline>
    <contour>
      <point x="137.681" y="460" type="line"/>
      <point x="238.681" y="468"/>
      <point x="425.681" y="599"/>
      <point x="425.681" y="716" type="curve" smooth="yes"/>
      <point x="425.681" y="782"/>
      <point x="376.681" y="820"/>
      <point x="313.681" y="820" type="curve" smooth="yes"/>
      <point x="242.681" y="820"/>
      <point x="173.681" y="757"/>
      <point x="173.681" y="685" type="curve" smooth="yes"/>
      <point x="173.681" y="654"/>
      <point x="186.681" y="605"/>
      <point x="266.681" y="605" type="curve" smooth="yes"/>
      <point x="280.681" y="605"/>
      <point x="296.681" y="609"/>
      <point x="310.681" y="614" type="curve"/>
      <point x="284.681" y="560"/>
      <point x="233.681" y="498"/>
      <point x="142.681" y="481" type="curve"/>
    </contour>
    <contour>
      <point x="283.681" y="634" type="curve" smooth="yes"/>
      <point x="258.681" y="634"/>
      <point x="252.681" y="656"/>
      <point x="252.681" y="678" type="curve" smooth="yes"/>
      <point x="252.681" y="711"/>
      <point x="267.681" y="788"/>
      <point x="306.681" y="788" type="curve" smooth="yes"/>
      <point x="325.681" y="788"/>
      <point x="339.681" y="774"/>
      <point x="339.681" y="736" type="curve" smooth="yes"/>
      <point x="339.681" y="704"/>
      <point x="335.681" y="678"/>
      <point x="325.681" y="649" type="curve"/>
      <point x="309.681" y="637"/>
      <point x="299.681" y="634"/>
    </contour>
  </outline>
</glyph>
<glyph name="uni2082" format="2">
  <advance width="312"/>
  <unicode hex="2082"/>
  <outline>
    <contour>
      <point x="-9.7005" y="-173" type="curve"/>
      <point x="212.299" y="-173" type="line"/>
      <point x="225.322" y="-138.982"/>
      <point x="244.436" y="-97.757"/>
      <point x="263.299" y="-60" type="curve"/>
      <point x="260.299" y="-56"/>
      <point x="249.299" y="-54"/>
      <point x="238.299" y="-54" type="curve"/>
      <point x="219.993" y="-88.324"/>
      <point x="194.317" y="-116"/>
      <point x="153.299" y="-116" type="curve" smooth="yes"/>
      <point x="86.2995" y="-116" type="line"/>
      <point x="91.9125" y="-97.757"/>
      <point x="114.122" y="-77.353"/>
      <point x="155.299" y="-45" type="curve" smooth="yes"/>
      <point x="169.299" y="-34" type="line" smooth="yes"/>
      <point x="261.12" y="38.145"/>
      <point x="277.416" y="59.671"/>
      <point x="277.416" y="110.678" type="curve" smooth="yes"/>
      <point x="277.416" y="152.667"/>
      <point x="248.374" y="172"/>
      <point x="185.299" y="172" type="curve" smooth="yes"/>
      <point x="134.392" y="172"/>
      <point x="42.2675" y="132.935"/>
      <point x="42.2675" y="71.397" type="curve" smooth="yes"/>
      <point x="42.2675" y="55.979"/>
      <point x="48.6845" y="46"/>
      <point x="67.2995" y="46" type="curve" smooth="yes"/>
      <point x="93.3705" y="46"/>
      <point x="110.416" y="62.47"/>
      <point x="116.299" y="86" type="curve"/>
      <point x="122.733" y="118.169"/>
      <point x="127.607" y="142"/>
      <point x="165.299" y="142" type="curve" smooth="yes"/>
      <point x="188.139" y="142"/>
      <point x="191.299" y="112.483"/>
      <point x="191.299" y="93" type="curve" smooth="yes"/>
      <point x="191.299" y="55.123"/>
      <point x="165.706" y="18.726"/>
      <point x="137.299" y="-4" type="curve" smooth="yes"/>
      <point x="107.299" y="-28" type="line" smooth="yes"/>
      <point x="29.3655" y="-90.347"/>
      <point x="3.6105" y="-110.881"/>
    </contour>
  </outline>
</glyph>
<glyph name="uni2084" format="2">
  <advance width="314"/>
  <unicode hex="2084"/>
  <outline>
    <contour>
      <point x="213" y="-88" type="curve" smooth="yes"/>
      <point x="218" y="-67" type="line"/>
      <point x="271" y="-67" type="line"/>
      <point x="283" y="-25" type="line"/>
      <point x="227" y="-25" type="line"/>
      <point x="268" y="171" type="line" smooth="yes"/>
      <point x="270" y="180"/>
      <point x="264" y="181"/>
      <point x="259" y="181" type="curve" smooth="yes"/>
      <point x="247" y="181"/>
      <point x="236" y="181"/>
      <point x="224" y="181" type="curve" smooth="yes"/>
      <point x="212" y="181" type="line"/>
      <point x="203" y="171"/>
      <point x="192" y="159"/>
      <point x="181" y="147" type="curve" smooth="yes"/>
      <point x="130" y="92"/>
      <point x="58" y="17"/>
      <point x="10" y="-37" type="curve"/>
      <point x="4" y="-43"/>
      <point x="-1" y="-49"/>
      <point x="-6" y="-55" type="curve"/>
      <point x="-3" y="-59"/>
      <point x="-1" y="-63"/>
      <point x="2" y="-67" type="curve"/>
      <point x="140" y="-67" type="line"/>
      <point x="135" y="-88" type="line" smooth="yes"/>
      <point x="124" y="-139"/>
      <point x="95" y="-142"/>
      <point x="57" y="-144" type="curve"/>
      <point x="50" y="-152"/>
      <point x="48" y="-168"/>
      <point x="50" y="-174" type="curve"/>
      <point x="79" y="-173"/>
      <point x="107" y="-173"/>
      <point x="141" y="-173" type="curve" smooth="yes"/>
      <point x="155" y="-173" type="line" smooth="yes"/>
      <point x="188" y="-173"/>
      <point x="218" y="-173"/>
      <point x="242" y="-174" type="curve"/>
      <point x="247" y="-167"/>
      <point x="250" y="-152"/>
      <point x="248" y="-144" type="curve"/>
      <point x="217" y="-142"/>
      <point x="202" y="-139"/>
    </contour>
    <contour>
      <point x="175" y="102" type="curve"/>
      <point x="149" y="-25" type="line"/>
      <point x="59" y="-25" type="line"/>
      <point x="98" y="17"/>
      <point x="136" y="60"/>
    </contour>
  </outline>
</glyph>
<glyph name="uni2085" format="2">
  <advance width="269"/>
  <unicode hex="2085"/>
  <outline>
    <contour>
      <point x="136" y="-67" type="curve"/>
      <point x="134" y="-78"/>
      <point x="131" y="-88"/>
      <point x="128" y="-98" type="curve"/>
      <point x="118" y="-126"/>
      <point x="103" y="-146"/>
      <point x="80" y="-146" type="curve" smooth="yes"/>
      <point x="65" y="-146"/>
      <point x="62" y="-139"/>
      <point x="54" y="-127" type="curve"/>
      <point x="48" y="-117"/>
      <point x="42" y="-102"/>
      <point x="27" y="-102" type="curve" smooth="yes"/>
      <point x="9" y="-102"/>
      <point x="-10" y="-120"/>
      <point x="-13" y="-135" type="curve"/>
      <point x="-17" y="-152"/>
      <point x="0" y="-177"/>
      <point x="77" y="-177" type="curve" smooth="yes"/>
      <point x="107" y="-177"/>
      <point x="138" y="-165"/>
      <point x="163" y="-145" type="curve" smooth="yes"/>
      <point x="192" y="-123"/>
      <point x="215" y="-91"/>
      <point x="222" y="-56" type="curve" smooth="yes"/>
      <point x="224" y="-47"/>
      <point x="225" y="-38"/>
      <point x="226" y="-29" type="curve"/>
      <point x="227" y="-6"/>
      <point x="222" y="16"/>
      <point x="206" y="32" type="curve" smooth="yes"/>
      <point x="194" y="44"/>
      <point x="172" y="54"/>
      <point x="130" y="58" type="curve" smooth="yes"/>
      <point x="118" y="59"/>
      <point x="105" y="60"/>
      <point x="89" y="60" type="curve"/>
      <point x="106" y="111" type="line"/>
      <point x="240" y="111" type="line"/>
      <point x="245" y="122" type="line"/>
      <point x="267" y="176" type="line"/>
      <point x="93" y="176" type="line"/>
      <point x="41" y="23" type="line"/>
      <point x="45" y="19" type="line"/>
      <point x="66" y="15"/>
      <point x="77" y="12"/>
      <point x="95" y="6" type="curve" smooth="yes"/>
      <point x="134" y="-7"/>
      <point x="142" y="-42"/>
    </contour>
  </outline>
  <guideline angle="0" x="0" y="-160"/>
  <guideline angle="0" x="0" y="-164"/>
</glyph>
<glyph name="germanpenny" format="2">
  <advance width="506"/>
  <unicode hex="20B0"/>
  <outline>
    <contour>
      <point x="367" y="0" type="curve" smooth="yes"/>
      <point x="389" y="0"/>
      <point x="411" y="10"/>
      <point x="430" y="20" type="curve" smooth="yes"/>
      <point x="474" y="42"/>
      <point x="492" y="77"/>
      <point x="492" y="126" type="curve" smooth="yes"/>
      <point x="492" y="204"/>
      <point x="422" y="253"/>
      <point x="376" y="306" type="curve"/>
      <point x="406" y="365"/>
      <point x="433" y="434"/>
      <point x="433" y="501" type="curve" smooth="yes"/>
      <point x="433" y="563"/>
      <point x="396" y="658"/>
      <point x="322" y="658" type="curve" smooth="yes"/>
      <point x="263" y="658"/>
      <point x="252" y="560"/>
      <point x="252" y="518" type="curve" smooth="yes"/>
      <point x="252" y="437"/>
      <point x="298" y="366"/>
      <point x="343" y="302" type="curve"/>
      <point x="327" y="270"/>
      <point x="304" y="235"/>
      <point x="271" y="218" type="curve"/>
      <point x="257" y="247"/>
      <point x="224" y="357"/>
      <point x="218" y="366" type="curve"/>
      <point x="215" y="370"/>
      <point x="211" y="371"/>
      <point x="207" y="371" type="curve" smooth="yes"/>
      <point x="170" y="371"/>
      <point x="152" y="132"/>
      <point x="99" y="132" type="curve" smooth="yes"/>
      <point x="89" y="132"/>
      <point x="71" y="147"/>
      <point x="62" y="153" type="curve"/>
      <point x="58" y="149" type="line"/>
      <point x="57" y="146"/>
      <point x="56" y="142"/>
      <point x="56" y="139" type="curve" smooth="yes"/>
      <point x="56" y="126"/>
      <point x="85" y="106"/>
      <point x="95" y="101" type="curve"/>
      <point x="127" y="101"/>
      <point x="148" y="136"/>
      <point x="158" y="162" type="curve" smooth="yes"/>
      <point x="209" y="295" type="line"/>
      <point x="245" y="186" type="line"/>
      <point x="263" y="172" type="line"/>
      <point x="312" y="196"/>
      <point x="338" y="230"/>
      <point x="360" y="277" type="curve"/>
      <point x="407" y="231"/>
      <point x="444" y="195"/>
      <point x="444" y="126" type="curve" smooth="yes"/>
      <point x="444" y="82"/>
      <point x="414" y="42"/>
      <point x="367" y="42" type="curve" smooth="yes"/>
      <point x="341" y="42"/>
      <point x="289" y="54"/>
      <point x="272" y="74" type="curve"/>
      <point x="267" y="79"/>
      <point x="262" y="86"/>
      <point x="254" y="86" type="curve"/>
      <point x="243" y="81"/>
      <point x="238" y="58"/>
      <point x="238" y="46" type="curve" smooth="yes"/>
      <point x="238" y="39"/>
      <point x="240" y="34"/>
      <point x="245" y="29" type="curve"/>
      <point x="278" y="18"/>
      <point x="332" y="0"/>
    </contour>
    <contour>
      <point x="358" y="334" type="curve"/>
      <point x="327" y="390"/>
      <point x="295" y="452"/>
      <point x="295" y="517" type="curve" smooth="yes"/>
      <point x="295" y="538"/>
      <point x="298" y="620"/>
      <point x="328" y="620" type="curve" smooth="yes"/>
      <point x="379" y="620"/>
      <point x="400" y="540"/>
      <point x="400" y="500" type="curve" smooth="yes"/>
      <point x="400" y="438"/>
      <point x="384" y="390"/>
    </contour>
  </outline>
</glyph>
<glyph name="austral" format="2">
  <advance width="710"/>
  <unicode hex="20B3"/>
  <outline>
    <component base="uni041B.loclBGR"/>
    <contour>
      <point x="81.999" y="189.099" type="line"/>
      <point x="711.999" y="189.099" type="line"/>
      <point x="718.999" y="223.099" type="line"/>
      <point x="88.999" y="223.099" type="line"/>
    </contour>
    <contour>
      <point x="109.631" y="319.099" type="line"/>
      <point x="739.631" y="319.099" type="line"/>
      <point x="746.631" y="353.099" type="line"/>
      <point x="116.631" y="353.099" type="line"/>
    </contour>
  </outline>
</glyph>
<glyph name="tenge" format="2">
  <advance width="685"/>
  <unicode hex="20B8"/>
  <outline>
    <contour>
      <point x="513" y="123" type="curve" smooth="yes"/>
      <point x="513" y="383" type="line" smooth="yes"/>
      <point x="513" y="447"/>
      <point x="523" y="484"/>
      <point x="559" y="484" type="curve" smooth="yes"/>
      <point x="581" y="484" type="line" smooth="yes"/>
      <point x="656" y="484"/>
      <point x="698" y="459"/>
      <point x="715" y="382" type="curve"/>
      <point x="726" y="382"/>
      <point x="745" y="383"/>
      <point x="754" y="387" type="curve"/>
      <point x="747" y="433"/>
      <point x="742" y="485"/>
      <point x="741" y="530" type="curve"/>
      <point x="741" y="531"/>
      <point x="739" y="533"/>
      <point x="738" y="533" type="curve"/>
      <point x="704" y="530"/>
      <point x="593" y="525"/>
      <point x="514" y="525" type="curve" smooth="yes"/>
      <point x="373" y="525" type="line" smooth="yes"/>
      <point x="296" y="525"/>
      <point x="178" y="530"/>
      <point x="140" y="533" type="curve"/>
      <point x="138" y="533"/>
      <point x="136" y="531"/>
      <point x="136" y="530" type="curve"/>
      <point x="132" y="485"/>
      <point x="122" y="432"/>
      <point x="111" y="384" type="curve"/>
      <point x="121" y="380"/>
      <point x="138" y="379"/>
      <point x="150" y="379" type="curve"/>
      <point x="170" y="459"/>
      <point x="211" y="484"/>
      <point x="277" y="484" type="curve" smooth="yes"/>
      <point x="326" y="484" type="line" smooth="yes"/>
      <point x="363" y="484"/>
      <point x="373" y="447"/>
      <point x="373" y="386" type="curve" smooth="yes"/>
      <point x="373" y="123" type="line" smooth="yes"/>
      <point x="373" y="40"/>
      <point x="356" y="35"/>
      <point x="276" y="32" type="curve"/>
      <point x="270" y="26"/>
      <point x="270" y="4"/>
      <point x="276" y="-2" type="curve"/>
      <point x="325" y="-1"/>
      <point x="377" y="0"/>
      <point x="441" y="0" type="curve" smooth="yes"/>
      <point x="507" y="0"/>
      <point x="560" y="-1"/>
      <point x="610" y="-2" type="curve"/>
      <point x="616" y="4"/>
      <point x="616" y="26"/>
      <point x="610" y="32" type="curve"/>
      <point x="530" y="35"/>
      <point x="513" y="40"/>
    </contour>
    <contour>
      <point x="311.852" y="597.116" type="line"/>
      <point x="536.052" y="597.116" type="line"/>
      <point x="536.052" y="645.116" type="line"/>
      <point x="311.852" y="645.116" type="line"/>
    </contour>
    <contour>
      <point x="536.052" y="597.103" type="line"/>
      <point x="719.877" y="597.177" type="line" smooth="yes"/>
      <point x="730.865" y="597.182"/>
      <point x="745" y="608.573"/>
      <point x="745" y="626.028" type="curve" smooth="yes"/>
      <point x="745" y="635.384"/>
      <point x="741.567" y="645.116"/>
      <point x="734.877" y="645.116" type="curve"/>
      <point x="536.052" y="645.103" type="line"/>
    </contour>
    <contour>
      <point x="135" y="597.638" type="curve" smooth="yes"/>
      <point x="311.722" y="597.638" type="line"/>
      <point x="311.854" y="644.874" type="line"/>
      <point x="150" y="644.874" type="line" smooth="yes"/>
      <point x="141.016" y="644.874"/>
      <point x="125" y="634.324"/>
      <point x="125" y="613.621" type="curve" smooth="yes"/>
      <point x="125" y="605.315"/>
      <point x="128.246" y="597.638"/>
    </contour>
  </outline>
</glyph>
<glyph name="turkishlira" format="2">
  <advance width="599"/>
  <unicode hex="20BA"/>
  <outline>
    <contour>
      <point x="289" y="0" type="line"/>
      <point x="299.655" y="0" type="line" smooth="yes"/>
      <point x="493.583" y="0"/>
      <point x="596.016" y="104.47"/>
      <point x="618.665" y="294.253" type="curve"/>
      <point x="617.335" y="295.747" type="line"/>
      <point x="542.536" y="295"/>
      <point x="502.779" y="273.592"/>
      <point x="503.427" y="233.795" type="curve"/>
      <point x="515.797" y="205.249"/>
      <point x="521.433" y="181.328"/>
      <point x="521.424" y="161.259" type="curve" smooth="yes"/>
      <point x="521.389" y="90.405"/>
      <point x="470.976" y="67.566"/>
      <point x="378" y="58.763" type="curve"/>
      <point x="366.107" y="59.019"/>
      <point x="358" y="67.126"/>
      <point x="358" y="79.19" type="curve" smooth="yes"/>
      <point x="358" y="523" type="line" smooth="yes"/>
      <point x="358" y="606"/>
      <point x="386" y="610"/>
      <point x="441" y="613" type="curve"/>
      <point x="451" y="619"/>
      <point x="451" y="641"/>
      <point x="441" y="647" type="curve"/>
      <point x="359" y="646"/>
      <point x="329" y="645"/>
      <point x="289" y="645" type="curve"/>
    </contour>
    <contour>
      <point x="221" y="70" type="line" smooth="yes"/>
      <point x="221" y="24.675"/>
      <point x="244.726" y="0"/>
      <point x="289" y="0" type="curve"/>
      <point x="289" y="645" type="line"/>
      <point x="279" y="645"/>
      <point x="184" y="646"/>
      <point x="134" y="647" type="curve"/>
      <point x="128" y="641"/>
      <point x="128" y="619"/>
      <point x="134" y="613" type="curve"/>
      <point x="204" y="610"/>
      <point x="221" y="605"/>
      <point x="221" y="522" type="curve" smooth="yes"/>
    </contour>
    <contour>
      <point x="347.165" y="399.79" type="line"/>
      <point x="451" y="460" type="line"/>
      <point x="451" y="473.757"/>
      <point x="442.285" y="495.4"/>
      <point x="425.814" y="503.221" type="curve"/>
      <point x="347.406" y="451.07" type="line"/>
    </contour>
    <contour>
      <point x="150" y="277" type="curve"/>
      <point x="234.9" y="331.498" type="line"/>
      <point x="235.226" y="382.031" type="line"/>
      <point x="124.343" y="320.762" type="line"/>
      <point x="124.343" y="300.146"/>
      <point x="136.298" y="284.387"/>
    </contour>
    <contour>
      <point x="347.165" y="299.79" type="line"/>
      <point x="451" y="360" type="line"/>
      <point x="451" y="373.757"/>
      <point x="442.285" y="395.4"/>
      <point x="425.814" y="403.221" type="curve"/>
      <point x="347.406" y="351.07" type="line"/>
    </contour>
    <contour>
      <point x="150" y="177" type="curve"/>
      <point x="234.9" y="231.498" type="line"/>
      <point x="235.226" y="282.031" type="line"/>
      <point x="124.343" y="220.762" type="line"/>
      <point x="124.343" y="200.146"/>
      <point x="136.298" y="184.387"/>
    </contour>
  </outline>
</glyph>
<glyph name="onethird" format="2">
  <advance width="673"/>
  <unicode hex="2153"/>
  <outline>
    <component base="uni00B3" xOffset="253.673" yOffset="-464"/>
    <contour>
      <point x="211.662" y="581" type="curve" smooth="yes"/>
      <point x="222.662" y="581"/>
      <point x="223.455" y="571.841"/>
      <point x="216.662" y="540" type="curve" smooth="yes"/>
      <point x="184.662" y="390" type="line" smooth="yes"/>
      <point x="174.227" y="341.087"/>
      <point x="148.255" y="336.84"/>
      <point x="105.662" y="334" type="curve"/>
      <point x="99.6619" y="326.409"/>
      <point x="97.2719" y="312.5"/>
      <point x="99.6619" y="304" type="curve"/>
      <point x="127.662" y="305"/>
      <point x="174.662" y="305"/>
      <point x="207.662" y="305" type="curve" smooth="yes"/>
      <point x="243.662" y="305"/>
      <point x="272.662" y="305"/>
      <point x="300.662" y="304" type="curve"/>
      <point x="304.502" y="310.4"/>
      <point x="309.192" y="326.409"/>
      <point x="306.662" y="334" type="curve"/>
      <point x="262.777" y="334"/>
      <point x="259.036" y="354.546"/>
      <point x="266.662" y="390" type="curve" smooth="yes"/>
      <point x="301.631" y="552.576" type="line" smooth="yes"/>
      <point x="308.717" y="585.518"/>
      <point x="317.618" y="618"/>
      <point x="328.812" y="651" type="curve"/>
      <point x="325.812" y="654"/>
      <point x="318.786" y="657"/>
      <point x="313.308" y="657" type="curve" smooth="yes"/>
      <point x="302.543" y="657"/>
      <point x="295.662" y="656"/>
      <point x="293.662" y="655" type="curve" smooth="yes"/>
      <point x="245.662" y="632"/>
      <point x="200.84" y="613"/>
      <point x="152.662" y="599" type="curve"/>
      <point x="149.662" y="587"/>
      <point x="148.662" y="572"/>
      <point x="154.662" y="566" type="curve"/>
      <point x="180.662" y="575"/>
      <point x="199.662" y="581"/>
    </contour>
    <contour>
      <point x="615.157" y="657" type="line"/>
      <point x="148.766" y="-10" type="line"/>
      <point x="189.766" y="-10" type="line"/>
      <point x="657.157" y="657" type="line"/>
    </contour>
  </outline>
</glyph>
<glyph name="uni217E" format="2">
  <advance width="497"/>
  <unicode hex="217E"/>
  <outline>
    <contour>
      <point x="64" y="149" type="curve" smooth="yes"/>
      <point x="64" y="51"/>
      <point x="110" y="-12"/>
      <point x="194" y="-12" type="curve" smooth="yes"/>
      <point x="252" y="-12"/>
      <point x="297" y="18"/>
      <point x="343" y="57" type="curve"/>
      <point x="327" y="-12" type="line"/>
      <point x="350" y="-12" type="line"/>
      <point x="375" y="6"/>
      <point x="430" y="17"/>
      <point x="490" y="27" type="curve"/>
      <point x="491" y="55" type="line"/>
      <point x="475" y="52"/>
      <point x="453" y="52"/>
      <point x="441" y="52" type="curve" smooth="yes"/>
      <point x="433" y="52"/>
      <point x="423" y="58"/>
      <point x="422" y="67" type="curve"/>
      <point x="422" y="71" type="line" smooth="yes"/>
      <point x="422" y="79"/>
      <point x="424" y="95"/>
      <point x="429" y="120" type="curve" smooth="yes"/>
      <point x="541" y="698" type="line"/>
      <point x="519" y="698" type="line"/>
      <point x="481" y="682"/>
      <point x="433" y="672"/>
      <point x="392" y="672" type="curve"/>
      <point x="389" y="648" type="line"/>
      <point x="389" y="645"/>
      <point x="391" y="643"/>
      <point x="393" y="643" type="curve"/>
      <point x="426" y="647" type="line"/>
      <point x="440" y="647"/>
      <point x="447" y="639"/>
      <point x="447" y="616" type="curve" smooth="yes"/>
      <point x="447" y="605"/>
      <point x="446" y="592"/>
      <point x="442" y="574" type="curve" smooth="yes"/>
      <point x="412" y="421" type="line"/>
      <point x="391" y="434"/>
      <point x="349" y="442"/>
      <point x="329" y="442" type="curve" smooth="yes"/>
      <point x="167" y="442"/>
      <point x="64" y="295"/>
    </contour>
    <contour>
      <point x="145" y="165" type="curve" smooth="yes"/>
      <point x="145" y="262"/>
      <point x="196" y="408"/>
      <point x="313" y="408" type="curve" smooth="yes"/>
      <point x="358" y="408"/>
      <point x="381" y="387"/>
      <point x="398" y="349" type="curve"/>
      <point x="348" y="89" type="line"/>
      <point x="300" y="50"/>
      <point x="269" y="30"/>
      <point x="237" y="30" type="curve" smooth="yes"/>
      <point x="191" y="30"/>
      <point x="145" y="71"/>
    </contour>
  </outline>
</glyph>
